%TF.GenerationSoftware,KiCad,Pcbnew,6.0.4-6f826c9f35~116~ubuntu18.04.1*%
%TF.CreationDate,2022-05-26T20:07:41+01:00*%
%TF.ProjectId,cosmic_ray_detector,636f736d-6963-45f7-9261-795f64657465,1*%
%TF.SameCoordinates,Original*%
%TF.FileFunction,Copper,L4,Bot*%
%TF.FilePolarity,Positive*%
%FSLAX46Y46*%
G04 Gerber Fmt 4.6, Leading zero omitted, Abs format (unit mm)*
G04 Created by KiCad (PCBNEW 6.0.4-6f826c9f35~116~ubuntu18.04.1) date 2022-05-26 20:07:41*
%MOMM*%
%LPD*%
G01*
G04 APERTURE LIST*
%TA.AperFunction,ComponentPad*%
%ADD10C,2.955000*%
%TD*%
%TA.AperFunction,ComponentPad*%
%ADD11C,1.540000*%
%TD*%
%TA.AperFunction,ComponentPad*%
%ADD12C,3.165000*%
%TD*%
%TA.AperFunction,ComponentPad*%
%ADD13C,0.500000*%
%TD*%
%TA.AperFunction,SMDPad,CuDef*%
%ADD14R,1.600000X1.800000*%
%TD*%
%TA.AperFunction,ComponentPad*%
%ADD15R,1.000000X1.000000*%
%TD*%
%TA.AperFunction,ComponentPad*%
%ADD16O,1.000000X1.000000*%
%TD*%
%TA.AperFunction,ViaPad*%
%ADD17C,0.800000*%
%TD*%
%TA.AperFunction,ViaPad*%
%ADD18C,0.600000*%
%TD*%
%TA.AperFunction,Conductor*%
%ADD19C,0.350000*%
%TD*%
%TA.AperFunction,Conductor*%
%ADD20C,0.200000*%
%TD*%
G04 APERTURE END LIST*
D10*
%TO.P,J3,1,Pin_1*%
%TO.N,/Power Regulators/-VIN*%
X64750000Y-100970000D03*
X80250000Y-100970000D03*
%TD*%
D11*
%TO.P,J6,2,Ext*%
%TO.N,GNDA*%
X127170000Y-89880000D03*
%TO.P,J6,1,In*%
%TO.N,Net-(J6-Pad1)*%
X127170000Y-92420000D03*
D12*
%TO.P,J6,*%
%TO.N,*%
X132250000Y-87340000D03*
X132250000Y-97500000D03*
%TD*%
D10*
%TO.P,J4,1,Pin_1*%
%TO.N,/Power Regulators/+VIN*%
X80250000Y-80328100D03*
X64750000Y-80328100D03*
%TD*%
%TO.P,J5,1,Pin_1*%
%TO.N,GNDA*%
X80250000Y-90670000D03*
X64750000Y-90670000D03*
%TD*%
D13*
%TO.P,U3,9,EP*%
%TO.N,GNDA*%
X94196000Y-76810000D03*
D14*
X93646000Y-77460000D03*
D13*
X94196000Y-78110000D03*
X93096000Y-78110000D03*
X93096000Y-76810000D03*
%TD*%
%TO.P,U2,9,EP*%
%TO.N,GNDA*%
X94126000Y-101270000D03*
D14*
X93576000Y-101920000D03*
D13*
X94126000Y-102570000D03*
X93026000Y-102570000D03*
X93026000Y-101270000D03*
%TD*%
D15*
%TO.P,J2,1,Pin_1*%
%TO.N,/threshold_setting/SPI.~{SYNC}*%
X136750000Y-76230000D03*
D16*
%TO.P,J2,2,Pin_2*%
%TO.N,/threshold_setting/SPI.SCK*%
X136750000Y-77500000D03*
%TO.P,J2,3,Pin_3*%
%TO.N,/threshold_setting/SPI.SDI*%
X136750000Y-78770000D03*
%TO.P,J2,4,Pin_4*%
%TO.N,/threshold_setting/SPI.SDO*%
X136750000Y-80040000D03*
%TO.P,J2,5,Pin_5*%
%TO.N,GNDA*%
X136750000Y-81310000D03*
%TD*%
D17*
%TO.N,GNDA*%
X88640000Y-111650000D03*
X130000000Y-81750000D03*
%TO.N,/Power Regulators/+VIN*%
X91000000Y-75750000D03*
X90500000Y-80000000D03*
%TO.N,/Power Regulators/-VIN*%
X91250000Y-104000000D03*
X87750000Y-101500000D03*
D18*
%TO.N,GNDA*%
X88750000Y-105750000D03*
X88750000Y-106500000D03*
X88750000Y-107250000D03*
X88750000Y-108000000D03*
X88750000Y-108750000D03*
X88000000Y-108750000D03*
X88000000Y-108000000D03*
X88000000Y-107250000D03*
X88000000Y-106500000D03*
X88000000Y-105750000D03*
X88000000Y-69000000D03*
X88000000Y-69750000D03*
X88000000Y-70500000D03*
X88000000Y-71250000D03*
X88000000Y-72000000D03*
X87000000Y-72000000D03*
X87000000Y-71250000D03*
X87000000Y-70500000D03*
X87000000Y-69750000D03*
X87000000Y-69000000D03*
%TO.N,+5VA*%
X99750000Y-73250000D03*
X100750000Y-73250000D03*
X100750000Y-72500000D03*
X99750000Y-72500000D03*
X99750000Y-71750000D03*
X100750000Y-71750000D03*
X100750000Y-71000000D03*
X99750000Y-71000000D03*
%TO.N,-5VA*%
X100000000Y-105250000D03*
X99250000Y-105250000D03*
X98500000Y-105250000D03*
X97750000Y-105250000D03*
X97750000Y-104500000D03*
X98500000Y-104500000D03*
X99250000Y-104500000D03*
X100000000Y-104500000D03*
D17*
%TO.N,GNDA*%
X107000000Y-85250000D03*
X106000000Y-99000000D03*
X116250000Y-100500000D03*
X114000000Y-92250000D03*
X111000000Y-88750000D03*
X114000000Y-86500000D03*
X112750000Y-79500000D03*
%TO.N,+5VA*%
X125500000Y-78000000D03*
X115750000Y-93500000D03*
X116000000Y-89250000D03*
%TO.N,GNDA*%
X107250000Y-107750000D03*
%TO.N,-5VA*%
X105500000Y-102000000D03*
%TO.N,GNDA*%
X121750000Y-88250000D03*
X119000000Y-83000000D03*
X122750000Y-82750000D03*
X121000000Y-78250000D03*
X123500000Y-76000000D03*
X131000000Y-76000000D03*
D18*
%TO.N,/comparator/VREF*%
X116750000Y-82250000D03*
X127500000Y-79500000D03*
%TD*%
D19*
%TO.N,/Power Regulators/+VIN*%
X91000000Y-79500000D02*
X90500000Y-80000000D01*
X91000000Y-75750000D02*
X91000000Y-79500000D01*
%TO.N,/Power Regulators/-VIN*%
X91250000Y-104000000D02*
X88750000Y-101500000D01*
X88750000Y-101500000D02*
X87750000Y-101500000D01*
D20*
%TO.N,/comparator/VREF*%
X116750000Y-82000000D02*
X119250000Y-79500000D01*
X116750000Y-82250000D02*
X116750000Y-82000000D01*
X119250000Y-79500000D02*
X127500000Y-79500000D01*
%TD*%
%TA.AperFunction,Conductor*%
%TO.N,GNDA*%
G36*
X127275112Y-66270002D02*
G01*
X127284030Y-66276296D01*
X132714158Y-70472304D01*
X138201042Y-74712169D01*
X138242715Y-74769649D01*
X138250000Y-74811871D01*
X138250000Y-109197810D01*
X138229998Y-109265931D01*
X138213095Y-109286905D01*
X128786905Y-118713095D01*
X128724593Y-118747121D01*
X128697810Y-118750000D01*
X72052190Y-118750000D01*
X71984069Y-118729998D01*
X71963095Y-118713095D01*
X63036905Y-109786905D01*
X63002879Y-109724593D01*
X63000000Y-109697810D01*
X63000000Y-105250000D01*
X97144318Y-105250000D01*
X97164956Y-105406762D01*
X97225464Y-105552841D01*
X97321718Y-105678282D01*
X97447159Y-105774536D01*
X97593238Y-105835044D01*
X97750000Y-105855682D01*
X97758188Y-105854604D01*
X97898574Y-105836122D01*
X97906762Y-105835044D01*
X98052841Y-105774536D01*
X98059392Y-105769509D01*
X98062001Y-105768003D01*
X98130997Y-105751266D01*
X98187999Y-105768003D01*
X98190608Y-105769509D01*
X98197159Y-105774536D01*
X98343238Y-105835044D01*
X98500000Y-105855682D01*
X98508188Y-105854604D01*
X98648574Y-105836122D01*
X98656762Y-105835044D01*
X98802841Y-105774536D01*
X98809392Y-105769509D01*
X98812001Y-105768003D01*
X98880997Y-105751266D01*
X98937999Y-105768003D01*
X98940608Y-105769509D01*
X98947159Y-105774536D01*
X99093238Y-105835044D01*
X99250000Y-105855682D01*
X99258188Y-105854604D01*
X99398574Y-105836122D01*
X99406762Y-105835044D01*
X99552841Y-105774536D01*
X99559392Y-105769509D01*
X99562001Y-105768003D01*
X99630997Y-105751266D01*
X99687999Y-105768003D01*
X99690608Y-105769509D01*
X99697159Y-105774536D01*
X99843238Y-105835044D01*
X100000000Y-105855682D01*
X100008188Y-105854604D01*
X100148574Y-105836122D01*
X100156762Y-105835044D01*
X100302841Y-105774536D01*
X100428282Y-105678282D01*
X100524536Y-105552841D01*
X100585044Y-105406762D01*
X100605682Y-105250000D01*
X100585044Y-105093238D01*
X100524536Y-104947159D01*
X100519509Y-104940608D01*
X100518003Y-104937999D01*
X100501266Y-104869003D01*
X100518003Y-104812001D01*
X100519509Y-104809392D01*
X100524536Y-104802841D01*
X100585044Y-104656762D01*
X100605682Y-104500000D01*
X100585044Y-104343238D01*
X100524536Y-104197159D01*
X100428282Y-104071718D01*
X100302841Y-103975464D01*
X100156762Y-103914956D01*
X100000000Y-103894318D01*
X99843238Y-103914956D01*
X99697159Y-103975464D01*
X99690608Y-103980491D01*
X99687999Y-103981997D01*
X99619003Y-103998734D01*
X99562001Y-103981997D01*
X99559392Y-103980491D01*
X99552841Y-103975464D01*
X99406762Y-103914956D01*
X99250000Y-103894318D01*
X99093238Y-103914956D01*
X98947159Y-103975464D01*
X98940608Y-103980491D01*
X98937999Y-103981997D01*
X98869003Y-103998734D01*
X98812001Y-103981997D01*
X98809392Y-103980491D01*
X98802841Y-103975464D01*
X98656762Y-103914956D01*
X98500000Y-103894318D01*
X98343238Y-103914956D01*
X98197159Y-103975464D01*
X98190608Y-103980491D01*
X98187999Y-103981997D01*
X98119003Y-103998734D01*
X98062001Y-103981997D01*
X98059392Y-103980491D01*
X98052841Y-103975464D01*
X97906762Y-103914956D01*
X97750000Y-103894318D01*
X97593238Y-103914956D01*
X97447159Y-103975464D01*
X97321718Y-104071718D01*
X97225464Y-104197159D01*
X97164956Y-104343238D01*
X97144318Y-104500000D01*
X97164956Y-104656762D01*
X97225464Y-104802841D01*
X97230491Y-104809392D01*
X97231997Y-104812001D01*
X97248734Y-104880997D01*
X97231997Y-104937999D01*
X97230491Y-104940608D01*
X97225464Y-104947159D01*
X97164956Y-105093238D01*
X97144318Y-105250000D01*
X63000000Y-105250000D01*
X63000000Y-101970415D01*
X63020002Y-101902294D01*
X63073658Y-101855801D01*
X63143932Y-101845697D01*
X63208512Y-101875191D01*
X63236991Y-101910775D01*
X63246245Y-101927998D01*
X63249040Y-101931742D01*
X63249042Y-101931744D01*
X63307966Y-102010653D01*
X63404363Y-102139744D01*
X63407672Y-102143024D01*
X63407677Y-102143030D01*
X63510274Y-102244735D01*
X63592043Y-102325793D01*
X63595805Y-102328551D01*
X63595808Y-102328554D01*
X63713603Y-102414925D01*
X63805161Y-102482058D01*
X63809292Y-102484232D01*
X63809293Y-102484232D01*
X64034901Y-102602930D01*
X64034907Y-102602932D01*
X64039036Y-102605105D01*
X64043443Y-102606644D01*
X64043450Y-102606647D01*
X64284113Y-102690690D01*
X64288529Y-102692232D01*
X64329881Y-102700083D01*
X64444999Y-102721939D01*
X64548160Y-102741525D01*
X64673677Y-102746457D01*
X64807557Y-102751717D01*
X64807562Y-102751717D01*
X64812225Y-102751900D01*
X64914912Y-102740654D01*
X65070270Y-102723640D01*
X65070275Y-102723639D01*
X65074923Y-102723130D01*
X65299786Y-102663928D01*
X65325960Y-102657037D01*
X65325962Y-102657036D01*
X65330483Y-102655846D01*
X65417807Y-102618329D01*
X65568997Y-102553373D01*
X65568999Y-102553372D01*
X65573291Y-102551528D01*
X65684736Y-102482564D01*
X65794040Y-102414925D01*
X65794044Y-102414922D01*
X65798013Y-102412466D01*
X65999711Y-102241716D01*
X66056574Y-102176876D01*
X66170874Y-102046543D01*
X66170878Y-102046538D01*
X66173956Y-102043028D01*
X66193654Y-102012405D01*
X66309714Y-101831968D01*
X66316919Y-101820767D01*
X66425459Y-101579817D01*
X66497192Y-101325470D01*
X66521941Y-101130925D01*
X66530144Y-101066444D01*
X66530144Y-101066440D01*
X66530542Y-101063314D01*
X66531352Y-101032410D01*
X66532903Y-100973160D01*
X66532986Y-100970000D01*
X66529517Y-100923327D01*
X78467625Y-100923327D01*
X78467849Y-100927993D01*
X78467849Y-100927999D01*
X78472645Y-101027831D01*
X78480304Y-101187291D01*
X78502530Y-101299031D01*
X78527709Y-101425612D01*
X78531860Y-101446482D01*
X78533439Y-101450880D01*
X78533441Y-101450887D01*
X78613216Y-101673077D01*
X78621161Y-101695206D01*
X78746245Y-101927998D01*
X78749040Y-101931742D01*
X78749042Y-101931744D01*
X78807966Y-102010653D01*
X78904363Y-102139744D01*
X78907672Y-102143024D01*
X78907677Y-102143030D01*
X79010274Y-102244735D01*
X79092043Y-102325793D01*
X79095805Y-102328551D01*
X79095808Y-102328554D01*
X79213603Y-102414925D01*
X79305161Y-102482058D01*
X79309292Y-102484232D01*
X79309293Y-102484232D01*
X79534901Y-102602930D01*
X79534907Y-102602932D01*
X79539036Y-102605105D01*
X79543443Y-102606644D01*
X79543450Y-102606647D01*
X79784113Y-102690690D01*
X79788529Y-102692232D01*
X79829881Y-102700083D01*
X79944999Y-102721939D01*
X80048160Y-102741525D01*
X80173677Y-102746457D01*
X80307557Y-102751717D01*
X80307562Y-102751717D01*
X80312225Y-102751900D01*
X80414912Y-102740654D01*
X80570270Y-102723640D01*
X80570275Y-102723639D01*
X80574923Y-102723130D01*
X80799786Y-102663928D01*
X80825960Y-102657037D01*
X80825962Y-102657036D01*
X80830483Y-102655846D01*
X80917807Y-102618329D01*
X81068997Y-102553373D01*
X81068999Y-102553372D01*
X81073291Y-102551528D01*
X81184736Y-102482564D01*
X81294040Y-102414925D01*
X81294044Y-102414922D01*
X81298013Y-102412466D01*
X81499711Y-102241716D01*
X81556574Y-102176876D01*
X81670874Y-102046543D01*
X81670878Y-102046538D01*
X81673956Y-102043028D01*
X81693654Y-102012405D01*
X81809714Y-101831968D01*
X81816919Y-101820767D01*
X81925459Y-101579817D01*
X81997192Y-101325470D01*
X82021941Y-101130925D01*
X82030144Y-101066444D01*
X82030144Y-101066440D01*
X82030542Y-101063314D01*
X82031352Y-101032410D01*
X82032903Y-100973160D01*
X82032986Y-100970000D01*
X82020484Y-100801770D01*
X82013747Y-100711110D01*
X82013746Y-100711106D01*
X82013401Y-100706458D01*
X81955078Y-100448705D01*
X81939554Y-100408785D01*
X81860990Y-100206758D01*
X81860989Y-100206756D01*
X81859297Y-100202405D01*
X81837837Y-100164857D01*
X81767204Y-100041277D01*
X81728162Y-99972967D01*
X81564555Y-99765432D01*
X81372069Y-99584360D01*
X81330413Y-99555462D01*
X81158776Y-99436392D01*
X81158773Y-99436390D01*
X81154934Y-99433727D01*
X81150744Y-99431661D01*
X81150741Y-99431659D01*
X80922106Y-99318909D01*
X80922103Y-99318908D01*
X80917918Y-99316844D01*
X80871196Y-99301888D01*
X80670675Y-99237701D01*
X80670677Y-99237701D01*
X80666230Y-99236278D01*
X80523544Y-99213040D01*
X80410009Y-99194550D01*
X80410008Y-99194550D01*
X80405397Y-99193799D01*
X80273274Y-99192070D01*
X80145828Y-99190401D01*
X80145825Y-99190401D01*
X80141151Y-99190340D01*
X79879296Y-99225977D01*
X79625585Y-99299927D01*
X79385591Y-99410565D01*
X79381682Y-99413128D01*
X79168500Y-99552896D01*
X79168495Y-99552900D01*
X79164587Y-99555462D01*
X78967427Y-99731434D01*
X78798443Y-99934615D01*
X78661348Y-100160541D01*
X78659539Y-100164855D01*
X78659538Y-100164857D01*
X78641968Y-100206758D01*
X78559152Y-100404250D01*
X78494102Y-100660388D01*
X78467625Y-100923327D01*
X66529517Y-100923327D01*
X66520484Y-100801770D01*
X66513747Y-100711110D01*
X66513746Y-100711106D01*
X66513401Y-100706458D01*
X66455078Y-100448705D01*
X66439554Y-100408785D01*
X66360990Y-100206758D01*
X66360989Y-100206756D01*
X66359297Y-100202405D01*
X66337837Y-100164857D01*
X66267204Y-100041277D01*
X66228162Y-99972967D01*
X66064555Y-99765432D01*
X65872069Y-99584360D01*
X65830413Y-99555462D01*
X65658776Y-99436392D01*
X65658773Y-99436390D01*
X65654934Y-99433727D01*
X65650744Y-99431661D01*
X65650741Y-99431659D01*
X65422106Y-99318909D01*
X65422103Y-99318908D01*
X65417918Y-99316844D01*
X65371196Y-99301888D01*
X65170675Y-99237701D01*
X65170677Y-99237701D01*
X65166230Y-99236278D01*
X65023544Y-99213040D01*
X64910009Y-99194550D01*
X64910008Y-99194550D01*
X64905397Y-99193799D01*
X64773274Y-99192070D01*
X64645828Y-99190401D01*
X64645825Y-99190401D01*
X64641151Y-99190340D01*
X64379296Y-99225977D01*
X64125585Y-99299927D01*
X63885591Y-99410565D01*
X63881682Y-99413128D01*
X63668500Y-99552896D01*
X63668495Y-99552900D01*
X63664587Y-99555462D01*
X63467427Y-99731434D01*
X63298443Y-99934615D01*
X63272708Y-99977025D01*
X63233719Y-100041277D01*
X63181280Y-100089138D01*
X63111290Y-100101050D01*
X63045970Y-100073232D01*
X63006059Y-100014515D01*
X63000000Y-99975912D01*
X63000000Y-94876000D01*
X63020002Y-94807879D01*
X63073658Y-94761386D01*
X63126000Y-94750000D01*
X82124000Y-94750000D01*
X82192121Y-94770002D01*
X82238614Y-94823658D01*
X82250000Y-94876000D01*
X82250000Y-97750000D01*
X88874000Y-97750000D01*
X88942121Y-97770002D01*
X88988614Y-97823658D01*
X89000000Y-97876000D01*
X89000000Y-100907692D01*
X88979998Y-100975813D01*
X88926342Y-101022306D01*
X88857037Y-101032271D01*
X88853157Y-101030816D01*
X88831130Y-101029179D01*
X88809324Y-101027559D01*
X88799277Y-101026405D01*
X88791855Y-101025249D01*
X88791853Y-101025249D01*
X88787044Y-101024500D01*
X88772838Y-101024500D01*
X88763501Y-101024154D01*
X88745776Y-101022837D01*
X88717326Y-101020723D01*
X88708550Y-101022596D01*
X88699593Y-101023207D01*
X88699586Y-101023101D01*
X88686333Y-101024500D01*
X88317369Y-101024500D01*
X88249248Y-101004498D01*
X88233550Y-100992576D01*
X88158392Y-100925613D01*
X88152721Y-100920560D01*
X88002881Y-100841224D01*
X87838441Y-100799919D01*
X87830843Y-100799879D01*
X87830841Y-100799879D01*
X87753668Y-100799475D01*
X87668895Y-100799031D01*
X87661508Y-100800805D01*
X87661504Y-100800805D01*
X87518162Y-100835220D01*
X87504032Y-100838612D01*
X87497288Y-100842093D01*
X87497285Y-100842094D01*
X87492089Y-100844776D01*
X87353369Y-100916375D01*
X87347647Y-100921367D01*
X87347645Y-100921368D01*
X87342779Y-100925613D01*
X87225604Y-101027831D01*
X87221237Y-101034045D01*
X87147033Y-101139627D01*
X87128113Y-101166547D01*
X87066524Y-101324513D01*
X87065532Y-101332046D01*
X87065532Y-101332047D01*
X87050467Y-101446482D01*
X87044394Y-101492611D01*
X87062999Y-101661135D01*
X87121266Y-101820356D01*
X87215830Y-101961083D01*
X87221442Y-101966190D01*
X87221445Y-101966193D01*
X87335612Y-102070077D01*
X87335616Y-102070080D01*
X87341233Y-102075191D01*
X87347906Y-102078814D01*
X87347910Y-102078817D01*
X87483558Y-102152467D01*
X87483560Y-102152468D01*
X87490235Y-102156092D01*
X87497584Y-102158020D01*
X87646883Y-102197188D01*
X87646885Y-102197188D01*
X87654233Y-102199116D01*
X87740609Y-102200473D01*
X87816161Y-102201660D01*
X87816164Y-102201660D01*
X87823760Y-102201779D01*
X87831165Y-102200083D01*
X87831166Y-102200083D01*
X87925512Y-102178475D01*
X87989029Y-102163928D01*
X88140498Y-102087747D01*
X88236575Y-102005689D01*
X88301365Y-101976658D01*
X88318406Y-101975500D01*
X88500852Y-101975500D01*
X88568973Y-101995502D01*
X88589947Y-102012405D01*
X90509909Y-103932367D01*
X90543935Y-103994679D01*
X90546052Y-104007631D01*
X90562999Y-104161135D01*
X90621266Y-104320356D01*
X90625502Y-104326659D01*
X90625502Y-104326660D01*
X90636642Y-104343238D01*
X90715830Y-104461083D01*
X90721442Y-104466190D01*
X90721445Y-104466193D01*
X90835612Y-104570077D01*
X90835616Y-104570080D01*
X90841233Y-104575191D01*
X90847906Y-104578814D01*
X90847910Y-104578817D01*
X90983558Y-104652467D01*
X90983560Y-104652468D01*
X90990235Y-104656092D01*
X90997584Y-104658020D01*
X91146883Y-104697188D01*
X91146885Y-104697188D01*
X91154233Y-104699116D01*
X91240609Y-104700473D01*
X91316161Y-104701660D01*
X91316164Y-104701660D01*
X91323760Y-104701779D01*
X91331165Y-104700083D01*
X91331166Y-104700083D01*
X91391586Y-104686245D01*
X91489029Y-104663928D01*
X91640498Y-104587747D01*
X91769423Y-104477634D01*
X91868361Y-104339947D01*
X91876237Y-104320356D01*
X91928766Y-104189687D01*
X91928767Y-104189685D01*
X91931601Y-104182634D01*
X91946455Y-104078264D01*
X91954909Y-104018862D01*
X91954909Y-104018859D01*
X91955490Y-104014778D01*
X91955645Y-104000000D01*
X91935276Y-103831680D01*
X91875345Y-103673077D01*
X91779312Y-103533349D01*
X91773641Y-103528296D01*
X91658392Y-103425612D01*
X91658388Y-103425610D01*
X91652721Y-103420560D01*
X91502881Y-103341224D01*
X91338441Y-103299919D01*
X91330843Y-103299879D01*
X91330841Y-103299879D01*
X91273569Y-103299579D01*
X91205554Y-103279220D01*
X91185134Y-103262676D01*
X90495809Y-102573351D01*
X92572571Y-102573351D01*
X92574936Y-102591434D01*
X92576000Y-102607771D01*
X92576000Y-102833511D01*
X92577207Y-102845766D01*
X92585183Y-102885864D01*
X92594499Y-102908355D01*
X92624915Y-102953876D01*
X92642124Y-102971085D01*
X92687645Y-103001501D01*
X92710136Y-103010817D01*
X92750234Y-103018793D01*
X92762489Y-103020000D01*
X93018773Y-103020000D01*
X93021082Y-103020021D01*
X93073216Y-103020976D01*
X93073300Y-103020966D01*
X93088875Y-103020000D01*
X93104332Y-103020000D01*
X93122810Y-103014574D01*
X93121676Y-103013845D01*
X93267069Y-103013845D01*
X93283571Y-103020000D01*
X93303885Y-103020000D01*
X93319124Y-103015525D01*
X93320329Y-103014135D01*
X93322000Y-103006452D01*
X93322000Y-103001885D01*
X93830000Y-103001885D01*
X93834475Y-103017124D01*
X93835865Y-103018329D01*
X93843548Y-103020000D01*
X93864920Y-103020000D01*
X93883399Y-103014574D01*
X93882266Y-103013846D01*
X94027657Y-103013846D01*
X94044157Y-103020000D01*
X94118773Y-103020000D01*
X94121082Y-103020021D01*
X94173216Y-103020976D01*
X94173300Y-103020966D01*
X94188875Y-103020000D01*
X94389511Y-103020000D01*
X94401766Y-103018793D01*
X94441864Y-103010817D01*
X94464355Y-103001501D01*
X94509876Y-102971085D01*
X94527085Y-102953876D01*
X94557501Y-102908355D01*
X94566817Y-102885864D01*
X94574793Y-102845766D01*
X94576000Y-102833511D01*
X94576000Y-102618329D01*
X94577746Y-102597426D01*
X94579684Y-102585908D01*
X94580551Y-102576246D01*
X94580567Y-102574872D01*
X94579936Y-102565172D01*
X94577273Y-102546581D01*
X94576000Y-102528718D01*
X94576000Y-102192115D01*
X94571525Y-102176876D01*
X94570135Y-102175671D01*
X94562452Y-102174000D01*
X94101668Y-102174000D01*
X94090643Y-102177237D01*
X94093881Y-102184328D01*
X94390458Y-102480905D01*
X94424484Y-102543217D01*
X94419419Y-102614032D01*
X94390458Y-102659095D01*
X94045390Y-103004163D01*
X94027657Y-103013846D01*
X93882266Y-103013846D01*
X93867200Y-103004163D01*
X93842811Y-102979774D01*
X93832724Y-102974266D01*
X93830000Y-102981569D01*
X93830000Y-103001885D01*
X93322000Y-103001885D01*
X93322000Y-102985079D01*
X93318763Y-102974054D01*
X93311670Y-102977293D01*
X93284800Y-103004163D01*
X93267069Y-103013845D01*
X93121676Y-103013845D01*
X93106610Y-103004163D01*
X92761542Y-102659095D01*
X92727516Y-102596783D01*
X92732581Y-102525968D01*
X92761542Y-102480905D01*
X93055635Y-102186812D01*
X93061144Y-102176723D01*
X93053843Y-102174000D01*
X92594115Y-102174000D01*
X92578876Y-102178475D01*
X92577671Y-102179865D01*
X92576000Y-102187548D01*
X92576000Y-102525196D01*
X92574500Y-102544581D01*
X92572788Y-102555573D01*
X92572571Y-102573351D01*
X90495809Y-102573351D01*
X89915069Y-101992611D01*
X104794394Y-101992611D01*
X104812999Y-102161135D01*
X104871266Y-102320356D01*
X104875502Y-102326659D01*
X104875502Y-102326660D01*
X104888574Y-102346113D01*
X104965830Y-102461083D01*
X104971442Y-102466190D01*
X104971445Y-102466193D01*
X105085612Y-102570077D01*
X105085616Y-102570080D01*
X105091233Y-102575191D01*
X105097906Y-102578814D01*
X105097910Y-102578817D01*
X105233558Y-102652467D01*
X105233560Y-102652468D01*
X105240235Y-102656092D01*
X105247584Y-102658020D01*
X105396883Y-102697188D01*
X105396885Y-102697188D01*
X105404233Y-102699116D01*
X105490609Y-102700473D01*
X105566161Y-102701660D01*
X105566164Y-102701660D01*
X105573760Y-102701779D01*
X105581165Y-102700083D01*
X105581166Y-102700083D01*
X105641586Y-102686245D01*
X105739029Y-102663928D01*
X105890498Y-102587747D01*
X106019423Y-102477634D01*
X106118361Y-102339947D01*
X106126237Y-102320356D01*
X106178766Y-102189687D01*
X106178767Y-102189685D01*
X106181601Y-102182634D01*
X106205490Y-102014778D01*
X106205562Y-102007932D01*
X106205602Y-102004135D01*
X106205602Y-102004129D01*
X106205645Y-102000000D01*
X106203840Y-101985080D01*
X106186188Y-101839220D01*
X106185276Y-101831680D01*
X106125345Y-101673077D01*
X106029312Y-101533349D01*
X105983589Y-101492611D01*
X105908392Y-101425612D01*
X105908388Y-101425610D01*
X105902721Y-101420560D01*
X105752881Y-101341224D01*
X105588441Y-101299919D01*
X105580843Y-101299879D01*
X105580841Y-101299879D01*
X105503668Y-101299475D01*
X105418895Y-101299031D01*
X105411508Y-101300805D01*
X105411504Y-101300805D01*
X105268162Y-101335220D01*
X105254032Y-101338612D01*
X105247288Y-101342093D01*
X105247285Y-101342094D01*
X105242089Y-101344776D01*
X105103369Y-101416375D01*
X105097647Y-101421367D01*
X105097645Y-101421368D01*
X105063807Y-101450887D01*
X104975604Y-101527831D01*
X104878113Y-101666547D01*
X104816524Y-101824513D01*
X104815532Y-101832046D01*
X104815532Y-101832047D01*
X104796366Y-101977634D01*
X104794394Y-101992611D01*
X89915069Y-101992611D01*
X89887553Y-101965095D01*
X89853527Y-101902783D01*
X89858592Y-101831968D01*
X89901139Y-101775132D01*
X89967659Y-101750321D01*
X89976648Y-101750000D01*
X97250000Y-101750000D01*
X97250000Y-97440702D01*
X130363122Y-97440702D01*
X130373591Y-97707158D01*
X130421499Y-97969479D01*
X130505891Y-98222434D01*
X130507881Y-98226417D01*
X130507882Y-98226419D01*
X130584272Y-98379297D01*
X130625083Y-98460973D01*
X130627610Y-98464629D01*
X130627611Y-98464631D01*
X130727824Y-98609627D01*
X130776696Y-98680339D01*
X130779718Y-98683608D01*
X130954689Y-98872892D01*
X130954694Y-98872897D01*
X130957705Y-98876154D01*
X131164499Y-99044511D01*
X131392952Y-99182051D01*
X131397047Y-99183785D01*
X131397049Y-99183786D01*
X131634404Y-99284293D01*
X131634411Y-99284295D01*
X131638505Y-99286029D01*
X131896260Y-99354372D01*
X131900684Y-99354896D01*
X131900686Y-99354896D01*
X132006761Y-99367450D01*
X132161072Y-99385714D01*
X132427659Y-99379432D01*
X132578219Y-99354372D01*
X132686310Y-99336381D01*
X132686314Y-99336380D01*
X132690700Y-99335650D01*
X132694941Y-99334309D01*
X132694944Y-99334308D01*
X132940703Y-99256584D01*
X132940705Y-99256583D01*
X132944949Y-99255241D01*
X132948960Y-99253315D01*
X132948965Y-99253313D01*
X133181313Y-99141741D01*
X133181314Y-99141740D01*
X133185332Y-99139811D01*
X133324517Y-99046811D01*
X133403344Y-98994141D01*
X133403348Y-98994138D01*
X133407052Y-98991663D01*
X133605686Y-98813751D01*
X133777270Y-98609627D01*
X133918382Y-98383363D01*
X134026204Y-98139473D01*
X134098587Y-97882824D01*
X134113741Y-97770002D01*
X134133658Y-97621719D01*
X134133659Y-97621711D01*
X134134085Y-97618537D01*
X134137810Y-97500000D01*
X134118977Y-97234005D01*
X134062852Y-96973318D01*
X133970556Y-96723139D01*
X133843931Y-96488461D01*
X133685502Y-96273965D01*
X133498431Y-96083933D01*
X133494892Y-96081232D01*
X133494885Y-96081226D01*
X133289991Y-95924857D01*
X133286451Y-95922155D01*
X133229708Y-95890377D01*
X133057676Y-95794034D01*
X133057673Y-95794033D01*
X133053790Y-95791858D01*
X133049645Y-95790254D01*
X133049642Y-95790253D01*
X132912058Y-95737026D01*
X132805092Y-95695644D01*
X132800767Y-95694641D01*
X132800762Y-95694640D01*
X132658287Y-95661616D01*
X132545319Y-95635432D01*
X132279652Y-95612423D01*
X132275217Y-95612667D01*
X132275213Y-95612667D01*
X132017838Y-95626831D01*
X132017831Y-95626832D01*
X132013395Y-95627076D01*
X131751858Y-95679099D01*
X131500260Y-95767454D01*
X131263622Y-95890377D01*
X131260007Y-95892960D01*
X131260001Y-95892964D01*
X131123042Y-95990837D01*
X131046665Y-96045417D01*
X130853717Y-96229480D01*
X130688629Y-96438893D01*
X130659838Y-96488461D01*
X130556929Y-96665631D01*
X130556926Y-96665637D01*
X130554695Y-96669478D01*
X130454586Y-96916635D01*
X130390301Y-97175431D01*
X130363122Y-97440702D01*
X97250000Y-97440702D01*
X97250000Y-93492611D01*
X115044394Y-93492611D01*
X115062999Y-93661135D01*
X115121266Y-93820356D01*
X115125502Y-93826659D01*
X115125502Y-93826660D01*
X115138574Y-93846113D01*
X115215830Y-93961083D01*
X115221442Y-93966190D01*
X115221445Y-93966193D01*
X115335612Y-94070077D01*
X115335616Y-94070080D01*
X115341233Y-94075191D01*
X115347906Y-94078814D01*
X115347910Y-94078817D01*
X115483558Y-94152467D01*
X115483560Y-94152468D01*
X115490235Y-94156092D01*
X115497584Y-94158020D01*
X115646883Y-94197188D01*
X115646885Y-94197188D01*
X115654233Y-94199116D01*
X115740609Y-94200473D01*
X115816161Y-94201660D01*
X115816164Y-94201660D01*
X115823760Y-94201779D01*
X115831165Y-94200083D01*
X115831166Y-94200083D01*
X115891586Y-94186245D01*
X115989029Y-94163928D01*
X116140498Y-94087747D01*
X116269423Y-93977634D01*
X116368361Y-93839947D01*
X116376237Y-93820356D01*
X116428766Y-93689687D01*
X116428767Y-93689685D01*
X116431601Y-93682634D01*
X116455490Y-93514778D01*
X116455645Y-93500000D01*
X116455006Y-93494715D01*
X116436188Y-93339220D01*
X116435276Y-93331680D01*
X116375345Y-93173077D01*
X116287131Y-93044725D01*
X116283614Y-93039608D01*
X116283613Y-93039607D01*
X116279312Y-93033349D01*
X116250337Y-93007533D01*
X116158392Y-92925612D01*
X116158388Y-92925610D01*
X116152721Y-92920560D01*
X116002881Y-92841224D01*
X115838441Y-92799919D01*
X115830843Y-92799879D01*
X115830841Y-92799879D01*
X115753668Y-92799475D01*
X115668895Y-92799031D01*
X115661508Y-92800805D01*
X115661504Y-92800805D01*
X115518162Y-92835220D01*
X115504032Y-92838612D01*
X115497288Y-92842093D01*
X115497285Y-92842094D01*
X115360117Y-92912892D01*
X115353369Y-92916375D01*
X115225604Y-93027831D01*
X115128113Y-93166547D01*
X115066524Y-93324513D01*
X115065532Y-93332046D01*
X115065532Y-93332047D01*
X115046360Y-93477680D01*
X115044394Y-93492611D01*
X97250000Y-93492611D01*
X97250000Y-92404981D01*
X126094425Y-92404981D01*
X126111992Y-92614181D01*
X126169858Y-92815984D01*
X126172673Y-92821461D01*
X126172674Y-92821464D01*
X126226199Y-92925612D01*
X126265819Y-93002705D01*
X126269642Y-93007529D01*
X126269645Y-93007533D01*
X126386110Y-93154473D01*
X126396221Y-93167230D01*
X126556095Y-93303294D01*
X126561473Y-93306300D01*
X126561475Y-93306301D01*
X126620377Y-93339220D01*
X126739353Y-93405713D01*
X126939014Y-93470587D01*
X127147473Y-93495444D01*
X127153608Y-93494972D01*
X127153610Y-93494972D01*
X127350648Y-93479811D01*
X127350652Y-93479810D01*
X127356790Y-93479338D01*
X127558992Y-93422882D01*
X127564496Y-93420102D01*
X127564498Y-93420101D01*
X127740877Y-93331006D01*
X127740879Y-93331005D01*
X127746378Y-93328227D01*
X127911810Y-93198977D01*
X128048986Y-93040057D01*
X128152683Y-92857518D01*
X128218949Y-92658315D01*
X128225300Y-92608040D01*
X128244819Y-92453538D01*
X128244820Y-92453529D01*
X128245261Y-92450035D01*
X128245680Y-92420000D01*
X128225194Y-92211066D01*
X128164516Y-92010090D01*
X128160277Y-92002118D01*
X128068853Y-91830174D01*
X128068851Y-91830172D01*
X128065957Y-91824728D01*
X128016993Y-91764692D01*
X127937166Y-91666814D01*
X127937163Y-91666811D01*
X127933271Y-91662039D01*
X127926185Y-91656177D01*
X127776263Y-91532150D01*
X127776259Y-91532148D01*
X127771513Y-91528221D01*
X127586843Y-91428370D01*
X127386295Y-91366290D01*
X127380170Y-91365646D01*
X127380169Y-91365646D01*
X127183638Y-91344990D01*
X127183637Y-91344990D01*
X127177510Y-91344346D01*
X127089999Y-91352310D01*
X126974577Y-91362814D01*
X126974574Y-91362815D01*
X126968438Y-91363373D01*
X126962532Y-91365111D01*
X126962528Y-91365112D01*
X126815522Y-91408379D01*
X126767043Y-91422647D01*
X126580997Y-91519909D01*
X126417386Y-91651456D01*
X126282442Y-91812276D01*
X126279478Y-91817668D01*
X126279475Y-91817672D01*
X126275596Y-91824728D01*
X126181304Y-91996245D01*
X126117826Y-92196354D01*
X126117140Y-92202471D01*
X126117139Y-92202475D01*
X126095112Y-92398856D01*
X126094425Y-92404981D01*
X97250000Y-92404981D01*
X97250000Y-90721206D01*
X126693624Y-90721206D01*
X126698533Y-90727764D01*
X126774403Y-90770165D01*
X126785645Y-90775077D01*
X126954836Y-90830051D01*
X126966820Y-90832686D01*
X127143476Y-90853750D01*
X127155725Y-90854007D01*
X127333112Y-90840358D01*
X127345192Y-90838227D01*
X127516529Y-90790389D01*
X127527979Y-90785948D01*
X127637219Y-90730767D01*
X127647505Y-90721120D01*
X127645267Y-90714477D01*
X127182812Y-90252022D01*
X127168868Y-90244408D01*
X127167035Y-90244539D01*
X127160420Y-90248790D01*
X126700384Y-90708826D01*
X126693624Y-90721206D01*
X97250000Y-90721206D01*
X97250000Y-89242611D01*
X115294394Y-89242611D01*
X115312999Y-89411135D01*
X115371266Y-89570356D01*
X115375502Y-89576659D01*
X115375502Y-89576660D01*
X115388574Y-89596113D01*
X115465830Y-89711083D01*
X115471442Y-89716190D01*
X115471445Y-89716193D01*
X115585612Y-89820077D01*
X115585616Y-89820080D01*
X115591233Y-89825191D01*
X115597906Y-89828814D01*
X115597910Y-89828817D01*
X115733558Y-89902467D01*
X115733560Y-89902468D01*
X115740235Y-89906092D01*
X115747584Y-89908020D01*
X115896883Y-89947188D01*
X115896885Y-89947188D01*
X115904233Y-89949116D01*
X115990609Y-89950473D01*
X116066161Y-89951660D01*
X116066164Y-89951660D01*
X116073760Y-89951779D01*
X116081165Y-89950083D01*
X116081166Y-89950083D01*
X116141586Y-89936245D01*
X116239029Y-89913928D01*
X116321330Y-89872535D01*
X126195918Y-89872535D01*
X126210804Y-90049809D01*
X126213019Y-90061876D01*
X126262053Y-90232881D01*
X126266572Y-90244293D01*
X126319370Y-90347026D01*
X126329089Y-90357245D01*
X126335889Y-90354901D01*
X126797978Y-89892812D01*
X126804356Y-89881132D01*
X127534408Y-89881132D01*
X127534539Y-89882965D01*
X127538790Y-89889580D01*
X127998789Y-90349579D01*
X128011169Y-90356339D01*
X128017902Y-90351298D01*
X128057383Y-90281800D01*
X128062372Y-90270594D01*
X128118524Y-90101794D01*
X128121244Y-90089822D01*
X128143870Y-89910719D01*
X128144362Y-89903690D01*
X128144644Y-89883523D01*
X128144349Y-89876495D01*
X128126731Y-89696815D01*
X128124348Y-89684777D01*
X128072930Y-89514473D01*
X128068256Y-89503132D01*
X128020462Y-89413246D01*
X128010603Y-89403166D01*
X128003475Y-89405735D01*
X127542022Y-89867188D01*
X127534408Y-89881132D01*
X126804356Y-89881132D01*
X126805592Y-89878868D01*
X126805461Y-89877035D01*
X126801210Y-89870420D01*
X126341103Y-89410313D01*
X126328723Y-89403553D01*
X126322335Y-89408335D01*
X126277097Y-89490621D01*
X126272260Y-89501906D01*
X126218468Y-89671481D01*
X126215920Y-89683469D01*
X126196089Y-89860266D01*
X126195918Y-89872535D01*
X116321330Y-89872535D01*
X116390498Y-89837747D01*
X116519423Y-89727634D01*
X116618361Y-89589947D01*
X116626237Y-89570356D01*
X116678766Y-89439687D01*
X116678767Y-89439685D01*
X116681601Y-89432634D01*
X116705490Y-89264778D01*
X116705645Y-89250000D01*
X116703840Y-89235080D01*
X116690643Y-89126029D01*
X116685276Y-89081680D01*
X116669247Y-89039260D01*
X126692978Y-89039260D01*
X126695431Y-89046221D01*
X127157188Y-89507978D01*
X127171132Y-89515592D01*
X127172965Y-89515461D01*
X127179580Y-89511210D01*
X127639794Y-89050996D01*
X127646554Y-89038616D01*
X127641895Y-89032393D01*
X127553127Y-88984396D01*
X127541822Y-88979644D01*
X127371876Y-88927037D01*
X127359863Y-88924571D01*
X127182933Y-88905975D01*
X127170665Y-88905890D01*
X126993499Y-88922012D01*
X126981453Y-88924310D01*
X126810783Y-88974541D01*
X126799414Y-88979134D01*
X126703127Y-89029472D01*
X126692978Y-89039260D01*
X116669247Y-89039260D01*
X116625345Y-88923077D01*
X116529312Y-88783349D01*
X116457044Y-88718960D01*
X116408392Y-88675612D01*
X116408388Y-88675610D01*
X116402721Y-88670560D01*
X116376588Y-88656723D01*
X116335080Y-88634746D01*
X116252881Y-88591224D01*
X116088441Y-88549919D01*
X116080843Y-88549879D01*
X116080841Y-88549879D01*
X116003668Y-88549475D01*
X115918895Y-88549031D01*
X115911508Y-88550805D01*
X115911504Y-88550805D01*
X115768162Y-88585220D01*
X115754032Y-88588612D01*
X115747288Y-88592093D01*
X115747285Y-88592094D01*
X115622069Y-88656723D01*
X115603369Y-88666375D01*
X115475604Y-88777831D01*
X115437770Y-88831663D01*
X115385603Y-88905890D01*
X115378113Y-88916547D01*
X115316524Y-89074513D01*
X115315532Y-89082046D01*
X115315532Y-89082047D01*
X115297432Y-89219537D01*
X115294394Y-89242611D01*
X97250000Y-89242611D01*
X97250000Y-87280702D01*
X130363122Y-87280702D01*
X130373591Y-87547158D01*
X130421499Y-87809479D01*
X130505891Y-88062434D01*
X130507881Y-88066417D01*
X130507882Y-88066419D01*
X130584272Y-88219297D01*
X130625083Y-88300973D01*
X130627610Y-88304629D01*
X130627611Y-88304631D01*
X130727824Y-88449627D01*
X130776696Y-88520339D01*
X130779718Y-88523608D01*
X130954689Y-88712892D01*
X130954694Y-88712897D01*
X130957705Y-88716154D01*
X131164499Y-88884511D01*
X131168317Y-88886810D01*
X131168319Y-88886811D01*
X131218162Y-88916819D01*
X131392952Y-89022051D01*
X131397047Y-89023785D01*
X131397049Y-89023786D01*
X131634404Y-89124293D01*
X131634411Y-89124295D01*
X131638505Y-89126029D01*
X131896260Y-89194372D01*
X131900684Y-89194896D01*
X131900686Y-89194896D01*
X132006761Y-89207450D01*
X132161072Y-89225714D01*
X132427659Y-89219432D01*
X132578219Y-89194372D01*
X132686310Y-89176381D01*
X132686314Y-89176380D01*
X132690700Y-89175650D01*
X132694941Y-89174309D01*
X132694944Y-89174308D01*
X132940703Y-89096584D01*
X132940705Y-89096583D01*
X132944949Y-89095241D01*
X132948960Y-89093315D01*
X132948965Y-89093313D01*
X133181313Y-88981741D01*
X133181314Y-88981740D01*
X133185332Y-88979811D01*
X133189038Y-88977335D01*
X133403344Y-88834141D01*
X133403348Y-88834138D01*
X133407052Y-88831663D01*
X133605686Y-88653751D01*
X133777270Y-88449627D01*
X133918382Y-88223363D01*
X134026204Y-87979473D01*
X134098587Y-87722824D01*
X134104088Y-87681868D01*
X134133658Y-87461719D01*
X134133659Y-87461711D01*
X134134085Y-87458537D01*
X134137810Y-87340000D01*
X134118977Y-87074005D01*
X134062852Y-86813318D01*
X133970556Y-86563139D01*
X133843931Y-86328461D01*
X133685502Y-86113965D01*
X133498431Y-85923933D01*
X133494892Y-85921232D01*
X133494885Y-85921226D01*
X133289991Y-85764857D01*
X133286451Y-85762155D01*
X133229708Y-85730377D01*
X133057676Y-85634034D01*
X133057673Y-85634033D01*
X133053790Y-85631858D01*
X133049645Y-85630254D01*
X133049642Y-85630253D01*
X132912058Y-85577026D01*
X132805092Y-85535644D01*
X132800767Y-85534641D01*
X132800762Y-85534640D01*
X132658287Y-85501616D01*
X132545319Y-85475432D01*
X132279652Y-85452423D01*
X132275217Y-85452667D01*
X132275213Y-85452667D01*
X132017838Y-85466831D01*
X132017831Y-85466832D01*
X132013395Y-85467076D01*
X131751858Y-85519099D01*
X131500260Y-85607454D01*
X131263622Y-85730377D01*
X131260007Y-85732960D01*
X131260001Y-85732964D01*
X131123042Y-85830837D01*
X131046665Y-85885417D01*
X130853717Y-86069480D01*
X130688629Y-86278893D01*
X130659838Y-86328461D01*
X130556929Y-86505631D01*
X130556926Y-86505637D01*
X130554695Y-86509478D01*
X130553025Y-86513601D01*
X130458440Y-86747121D01*
X130454586Y-86756635D01*
X130390301Y-87015431D01*
X130363122Y-87280702D01*
X97250000Y-87280702D01*
X97250000Y-82250000D01*
X116144318Y-82250000D01*
X116164956Y-82406762D01*
X116225464Y-82552841D01*
X116321718Y-82678282D01*
X116447159Y-82774536D01*
X116593238Y-82835044D01*
X116750000Y-82855682D01*
X116758188Y-82854604D01*
X116898574Y-82836122D01*
X116906762Y-82835044D01*
X117052841Y-82774536D01*
X117178282Y-82678282D01*
X117274536Y-82552841D01*
X117335044Y-82406762D01*
X117355682Y-82250000D01*
X117335044Y-82093238D01*
X117331883Y-82085607D01*
X117329746Y-82077632D01*
X117332867Y-82076796D01*
X117326901Y-82021314D01*
X117361804Y-81954589D01*
X117742279Y-81574114D01*
X136101217Y-81574114D01*
X136119104Y-81622993D01*
X136125951Y-81636431D01*
X136211978Y-81764454D01*
X136221826Y-81775862D01*
X136335909Y-81879670D01*
X136348200Y-81888404D01*
X136483743Y-81961999D01*
X136484540Y-81962314D01*
X136492573Y-81962081D01*
X136496000Y-81953962D01*
X136496000Y-81947723D01*
X137004000Y-81947723D01*
X137007973Y-81961254D01*
X137011501Y-81961761D01*
X137013114Y-81961254D01*
X137133435Y-81900739D01*
X137145993Y-81892396D01*
X137263274Y-81792228D01*
X137273488Y-81781119D01*
X137363483Y-81655878D01*
X137370755Y-81642651D01*
X137395616Y-81580809D01*
X137396977Y-81566772D01*
X137392192Y-81564000D01*
X137022115Y-81564000D01*
X137006876Y-81568475D01*
X137005671Y-81569865D01*
X137004000Y-81577548D01*
X137004000Y-81947723D01*
X136496000Y-81947723D01*
X136496000Y-81582115D01*
X136491525Y-81566876D01*
X136490135Y-81565671D01*
X136482452Y-81564000D01*
X136115631Y-81564000D01*
X136102100Y-81567973D01*
X136101217Y-81574114D01*
X117742279Y-81574114D01*
X119378988Y-79937405D01*
X119441300Y-79903379D01*
X119468083Y-79900500D01*
X126993269Y-79900500D01*
X127061390Y-79920502D01*
X127071460Y-79928618D01*
X127071718Y-79928282D01*
X127197159Y-80024536D01*
X127343238Y-80085044D01*
X127500000Y-80105682D01*
X127508188Y-80104604D01*
X127648574Y-80086122D01*
X127656762Y-80085044D01*
X127792660Y-80028753D01*
X135944514Y-80028753D01*
X135945201Y-80035760D01*
X135945201Y-80035763D01*
X135950033Y-80085044D01*
X135962039Y-80207486D01*
X135964262Y-80214168D01*
X135964262Y-80214169D01*
X136003213Y-80331260D01*
X136018726Y-80377896D01*
X136111759Y-80531512D01*
X136116648Y-80536575D01*
X136116649Y-80536576D01*
X136232770Y-80656822D01*
X136265702Y-80719718D01*
X136259402Y-80790435D01*
X136235766Y-80828663D01*
X136221611Y-80844383D01*
X136132926Y-80970568D01*
X136125796Y-80983865D01*
X136104253Y-81039120D01*
X136103040Y-81053172D01*
X136108043Y-81056000D01*
X137384250Y-81056000D01*
X137397781Y-81052027D01*
X137398630Y-81046117D01*
X137377582Y-80990414D01*
X137370597Y-80977053D01*
X137283236Y-80849941D01*
X137273260Y-80838626D01*
X137271516Y-80837072D01*
X137270614Y-80835624D01*
X137268240Y-80832932D01*
X137268689Y-80832536D01*
X137233962Y-80776821D01*
X137234945Y-80705831D01*
X137268446Y-80651753D01*
X137348844Y-80575191D01*
X137367099Y-80557807D01*
X137378453Y-80540719D01*
X137431362Y-80461083D01*
X137466483Y-80408222D01*
X137499860Y-80320356D01*
X137527757Y-80246919D01*
X137527758Y-80246914D01*
X137530257Y-80240336D01*
X137535859Y-80200476D01*
X137554700Y-80066416D01*
X137554700Y-80066411D01*
X137555251Y-80062493D01*
X137555565Y-80040000D01*
X137535546Y-79861528D01*
X137529427Y-79843955D01*
X137502588Y-79766885D01*
X137476485Y-79691927D01*
X137472034Y-79684803D01*
X137385049Y-79545599D01*
X137381316Y-79539625D01*
X137336544Y-79494540D01*
X137302737Y-79432110D01*
X137308048Y-79361313D01*
X137339058Y-79314510D01*
X137354732Y-79299584D01*
X137367099Y-79287807D01*
X137384570Y-79261512D01*
X137444074Y-79171950D01*
X137466483Y-79138222D01*
X137491746Y-79071718D01*
X137527757Y-78976919D01*
X137527758Y-78976914D01*
X137530257Y-78970336D01*
X137555251Y-78792493D01*
X137555565Y-78770000D01*
X137535546Y-78591528D01*
X137529427Y-78573955D01*
X137490120Y-78461083D01*
X137476485Y-78421927D01*
X137416956Y-78326660D01*
X137385049Y-78275599D01*
X137381316Y-78269625D01*
X137336544Y-78224540D01*
X137302737Y-78162110D01*
X137308048Y-78091313D01*
X137339058Y-78044510D01*
X137367099Y-78017807D01*
X137381660Y-77995892D01*
X137462582Y-77874093D01*
X137466483Y-77868222D01*
X137485776Y-77817434D01*
X137527757Y-77706919D01*
X137527758Y-77706914D01*
X137530257Y-77700336D01*
X137534874Y-77667486D01*
X137554700Y-77526416D01*
X137554700Y-77526411D01*
X137555251Y-77522493D01*
X137555565Y-77500000D01*
X137535546Y-77321528D01*
X137529427Y-77303955D01*
X137478803Y-77158584D01*
X137476485Y-77151927D01*
X137443689Y-77099442D01*
X137424553Y-77031074D01*
X137445418Y-76963213D01*
X137461370Y-76943655D01*
X137494023Y-76910945D01*
X137502241Y-76902713D01*
X137531105Y-76837426D01*
X137540468Y-76816246D01*
X137547506Y-76800327D01*
X137550500Y-76774646D01*
X137550500Y-75685354D01*
X137547382Y-75659154D01*
X137513133Y-75582047D01*
X137506663Y-75567482D01*
X137501939Y-75556847D01*
X137422713Y-75477759D01*
X137412076Y-75473056D01*
X137412074Y-75473055D01*
X137352538Y-75446735D01*
X137320327Y-75432494D01*
X137294646Y-75429500D01*
X136205354Y-75429500D01*
X136201650Y-75429941D01*
X136201647Y-75429941D01*
X136194254Y-75430821D01*
X136179154Y-75432618D01*
X136076847Y-75478061D01*
X135997759Y-75557287D01*
X135993056Y-75567924D01*
X135993055Y-75567926D01*
X135983641Y-75589220D01*
X135952494Y-75659673D01*
X135949500Y-75685354D01*
X135949500Y-76774646D01*
X135952618Y-76800846D01*
X135956456Y-76809486D01*
X135956456Y-76809487D01*
X135968866Y-76837426D01*
X135998061Y-76903153D01*
X136006294Y-76911372D01*
X136006295Y-76911373D01*
X136038129Y-76943152D01*
X136072207Y-77005435D01*
X136067204Y-77076255D01*
X136055021Y-77100579D01*
X136032265Y-77135889D01*
X136032261Y-77135898D01*
X136028446Y-77141817D01*
X135967022Y-77310578D01*
X135944514Y-77488753D01*
X135945201Y-77495760D01*
X135945201Y-77495763D01*
X135948391Y-77528296D01*
X135962039Y-77667486D01*
X135964262Y-77674168D01*
X135964262Y-77674169D01*
X135972967Y-77700336D01*
X136018726Y-77837896D01*
X136022373Y-77843918D01*
X136107864Y-77985080D01*
X136111759Y-77991512D01*
X136165317Y-78046972D01*
X136198249Y-78109868D01*
X136191950Y-78180584D01*
X136162838Y-78224522D01*
X136125732Y-78260859D01*
X136121913Y-78266784D01*
X136121912Y-78266786D01*
X136074763Y-78339947D01*
X136028446Y-78411817D01*
X136026037Y-78418437D01*
X136026035Y-78418440D01*
X136002696Y-78482564D01*
X135967022Y-78580578D01*
X135944514Y-78758753D01*
X135945201Y-78765760D01*
X135945201Y-78765763D01*
X135945737Y-78771228D01*
X135962039Y-78937486D01*
X135964262Y-78944168D01*
X135964262Y-78944169D01*
X136005916Y-79069386D01*
X136018726Y-79107896D01*
X136022373Y-79113918D01*
X136072786Y-79197159D01*
X136111759Y-79261512D01*
X136165317Y-79316972D01*
X136198249Y-79379868D01*
X136191950Y-79450584D01*
X136162838Y-79494522D01*
X136138209Y-79518641D01*
X136125732Y-79530859D01*
X136121913Y-79536784D01*
X136121912Y-79536786D01*
X136110634Y-79554286D01*
X136028446Y-79681817D01*
X135967022Y-79850578D01*
X135944514Y-80028753D01*
X127792660Y-80028753D01*
X127802841Y-80024536D01*
X127928282Y-79928282D01*
X128024536Y-79802841D01*
X128085044Y-79656762D01*
X128105682Y-79500000D01*
X128085044Y-79343238D01*
X128081684Y-79335125D01*
X128064096Y-79292666D01*
X128024536Y-79197159D01*
X127928282Y-79071718D01*
X127802841Y-78975464D01*
X127656762Y-78914956D01*
X127646174Y-78913562D01*
X127508188Y-78895396D01*
X127500000Y-78894318D01*
X127491812Y-78895396D01*
X127353827Y-78913562D01*
X127343238Y-78914956D01*
X127197159Y-78975464D01*
X127071718Y-79071718D01*
X127069928Y-79069386D01*
X127020052Y-79096621D01*
X126993269Y-79099500D01*
X119186567Y-79099500D01*
X119177136Y-79102564D01*
X119177132Y-79102565D01*
X119165647Y-79106297D01*
X119146422Y-79110913D01*
X119134488Y-79112803D01*
X119134487Y-79112803D01*
X119124696Y-79114354D01*
X119115863Y-79118855D01*
X119115859Y-79118856D01*
X119105094Y-79124341D01*
X119086834Y-79131905D01*
X119065910Y-79138704D01*
X119048107Y-79151639D01*
X119031254Y-79161965D01*
X119011658Y-79171950D01*
X118989095Y-79194513D01*
X118989091Y-79194516D01*
X116481935Y-81701672D01*
X116455840Y-81721696D01*
X116454785Y-81722305D01*
X116447159Y-81725464D01*
X116321718Y-81821718D01*
X116316695Y-81828264D01*
X116305900Y-81842332D01*
X116225464Y-81947159D01*
X116164956Y-82093238D01*
X116144318Y-82250000D01*
X97250000Y-82250000D01*
X97250000Y-77992611D01*
X124794394Y-77992611D01*
X124812999Y-78161135D01*
X124871266Y-78320356D01*
X124875502Y-78326659D01*
X124875502Y-78326660D01*
X124888574Y-78346113D01*
X124965830Y-78461083D01*
X124971442Y-78466190D01*
X124971445Y-78466193D01*
X125085612Y-78570077D01*
X125085616Y-78570080D01*
X125091233Y-78575191D01*
X125097906Y-78578814D01*
X125097910Y-78578817D01*
X125233558Y-78652467D01*
X125233560Y-78652468D01*
X125240235Y-78656092D01*
X125247584Y-78658020D01*
X125396883Y-78697188D01*
X125396885Y-78697188D01*
X125404233Y-78699116D01*
X125490609Y-78700473D01*
X125566161Y-78701660D01*
X125566164Y-78701660D01*
X125573760Y-78701779D01*
X125581165Y-78700083D01*
X125581166Y-78700083D01*
X125681913Y-78677009D01*
X125739029Y-78663928D01*
X125890498Y-78587747D01*
X126019423Y-78477634D01*
X126118361Y-78339947D01*
X126126237Y-78320356D01*
X126178766Y-78189687D01*
X126178767Y-78189685D01*
X126181601Y-78182634D01*
X126188877Y-78131511D01*
X126204909Y-78018862D01*
X126204909Y-78018859D01*
X126205490Y-78014778D01*
X126205645Y-78000000D01*
X126203840Y-77985080D01*
X126201004Y-77961653D01*
X126185276Y-77831680D01*
X126125345Y-77673077D01*
X126029312Y-77533349D01*
X125996330Y-77503963D01*
X125908392Y-77425612D01*
X125908388Y-77425610D01*
X125902721Y-77420560D01*
X125752881Y-77341224D01*
X125588441Y-77299919D01*
X125580843Y-77299879D01*
X125580841Y-77299879D01*
X125503668Y-77299475D01*
X125418895Y-77299031D01*
X125411508Y-77300805D01*
X125411504Y-77300805D01*
X125325190Y-77321528D01*
X125254032Y-77338612D01*
X125247288Y-77342093D01*
X125247285Y-77342094D01*
X125242089Y-77344776D01*
X125103369Y-77416375D01*
X124975604Y-77527831D01*
X124878113Y-77666547D01*
X124816524Y-77824513D01*
X124794394Y-77992611D01*
X97250000Y-77992611D01*
X97250000Y-77250000D01*
X94772000Y-77250000D01*
X94703879Y-77229998D01*
X94657386Y-77176342D01*
X94646000Y-77124000D01*
X94646000Y-76858329D01*
X94647746Y-76837426D01*
X94649684Y-76825908D01*
X94650551Y-76816246D01*
X94650567Y-76814872D01*
X94649936Y-76805172D01*
X94647273Y-76786581D01*
X94646000Y-76768718D01*
X94646000Y-76546489D01*
X94644793Y-76534234D01*
X94636817Y-76494136D01*
X94627501Y-76471645D01*
X94597085Y-76426124D01*
X94579876Y-76408915D01*
X94534355Y-76378499D01*
X94511864Y-76369183D01*
X94471766Y-76361207D01*
X94459511Y-76360000D01*
X94203609Y-76360000D01*
X94202839Y-76359998D01*
X94137865Y-76359601D01*
X94132011Y-76360000D01*
X94117668Y-76360000D01*
X94099190Y-76365426D01*
X94115390Y-76375837D01*
X94460458Y-76720905D01*
X94494484Y-76783217D01*
X94489419Y-76854032D01*
X94460458Y-76899095D01*
X94115390Y-77244163D01*
X94104701Y-77250000D01*
X93946282Y-77250000D01*
X93937200Y-77244163D01*
X93912811Y-77219774D01*
X93902723Y-77214266D01*
X93900000Y-77221568D01*
X93900000Y-77250000D01*
X93392000Y-77250000D01*
X93392000Y-77225079D01*
X93388763Y-77214054D01*
X93381670Y-77217293D01*
X93354800Y-77244163D01*
X93344111Y-77250000D01*
X93185692Y-77250000D01*
X93176610Y-77244163D01*
X92831542Y-76899095D01*
X92797516Y-76836783D01*
X92802581Y-76765968D01*
X92831542Y-76720905D01*
X93176610Y-76375837D01*
X93194343Y-76366154D01*
X93192391Y-76365426D01*
X93338601Y-76365426D01*
X93354800Y-76375837D01*
X93379189Y-76400226D01*
X93389276Y-76405734D01*
X93392000Y-76398431D01*
X93392000Y-76394921D01*
X93900000Y-76394921D01*
X93903237Y-76405946D01*
X93910330Y-76402707D01*
X93937200Y-76375837D01*
X93954931Y-76366155D01*
X93938429Y-76360000D01*
X93918115Y-76360000D01*
X93902876Y-76364475D01*
X93901671Y-76365865D01*
X93900000Y-76373548D01*
X93900000Y-76394921D01*
X93392000Y-76394921D01*
X93392000Y-76378115D01*
X93387525Y-76362876D01*
X93386135Y-76361671D01*
X93378452Y-76360000D01*
X93357080Y-76360000D01*
X93338601Y-76365426D01*
X93192391Y-76365426D01*
X93177843Y-76360000D01*
X93103609Y-76360000D01*
X93102839Y-76359998D01*
X93037865Y-76359601D01*
X93032011Y-76360000D01*
X92832489Y-76360000D01*
X92820234Y-76361207D01*
X92780136Y-76369183D01*
X92757645Y-76378499D01*
X92712124Y-76408915D01*
X92694915Y-76426124D01*
X92664499Y-76471645D01*
X92655183Y-76494136D01*
X92647207Y-76534234D01*
X92646000Y-76546489D01*
X92646000Y-76765196D01*
X92644500Y-76784581D01*
X92642788Y-76795573D01*
X92642571Y-76813351D01*
X92644936Y-76831434D01*
X92646000Y-76847771D01*
X92646000Y-77124000D01*
X92625998Y-77192121D01*
X92572342Y-77238614D01*
X92520000Y-77250000D01*
X91601500Y-77250000D01*
X91533379Y-77229998D01*
X91486886Y-77176342D01*
X91475500Y-77124000D01*
X91475500Y-76323177D01*
X91495502Y-76255056D01*
X91508752Y-76237890D01*
X91513646Y-76232568D01*
X91519423Y-76227634D01*
X91527644Y-76216194D01*
X91613930Y-76096113D01*
X91618361Y-76089947D01*
X91626237Y-76070356D01*
X91678766Y-75939687D01*
X91678767Y-75939685D01*
X91681601Y-75932634D01*
X91705490Y-75764778D01*
X91705645Y-75750000D01*
X91703840Y-75735080D01*
X91701004Y-75711653D01*
X91685276Y-75581680D01*
X91625345Y-75423077D01*
X91529312Y-75283349D01*
X91517514Y-75272837D01*
X91408392Y-75175612D01*
X91408388Y-75175610D01*
X91402721Y-75170560D01*
X91252881Y-75091224D01*
X91088441Y-75049919D01*
X91080843Y-75049879D01*
X91080841Y-75049879D01*
X91003668Y-75049475D01*
X90918895Y-75049031D01*
X90911508Y-75050805D01*
X90911504Y-75050805D01*
X90768162Y-75085220D01*
X90754032Y-75088612D01*
X90747288Y-75092093D01*
X90747285Y-75092094D01*
X90742089Y-75094776D01*
X90603369Y-75166375D01*
X90475604Y-75277831D01*
X90378113Y-75416547D01*
X90316524Y-75574513D01*
X90315532Y-75582046D01*
X90315532Y-75582047D01*
X90301441Y-75689086D01*
X90294394Y-75742611D01*
X90312999Y-75911135D01*
X90371266Y-76070356D01*
X90375502Y-76076659D01*
X90375502Y-76076660D01*
X90388574Y-76096113D01*
X90465830Y-76211083D01*
X90471443Y-76216190D01*
X90471446Y-76216194D01*
X90483301Y-76226981D01*
X90520223Y-76287622D01*
X90524500Y-76320173D01*
X90524500Y-77124000D01*
X90504498Y-77192121D01*
X90450842Y-77238614D01*
X90398500Y-77250000D01*
X89250000Y-77250000D01*
X83500000Y-83000000D01*
X83500000Y-85447810D01*
X83479998Y-85515931D01*
X83463095Y-85536905D01*
X82286905Y-86713095D01*
X82224593Y-86747121D01*
X82197810Y-86750000D01*
X63126000Y-86750000D01*
X63057879Y-86729998D01*
X63011386Y-86676342D01*
X63000000Y-86624000D01*
X63000000Y-81328515D01*
X63020002Y-81260394D01*
X63073658Y-81213901D01*
X63143932Y-81203797D01*
X63208512Y-81233291D01*
X63236991Y-81268875D01*
X63246245Y-81286098D01*
X63404363Y-81497844D01*
X63407672Y-81501124D01*
X63407677Y-81501130D01*
X63510274Y-81602835D01*
X63592043Y-81683893D01*
X63595805Y-81686651D01*
X63595808Y-81686654D01*
X63780012Y-81821718D01*
X63805161Y-81840158D01*
X63809292Y-81842332D01*
X63809293Y-81842332D01*
X64034901Y-81961030D01*
X64034907Y-81961032D01*
X64039036Y-81963205D01*
X64043443Y-81964744D01*
X64043450Y-81964747D01*
X64205434Y-82021314D01*
X64288529Y-82050332D01*
X64293122Y-82051204D01*
X64444999Y-82080039D01*
X64548160Y-82099625D01*
X64673677Y-82104557D01*
X64807557Y-82109817D01*
X64807562Y-82109817D01*
X64812225Y-82110000D01*
X64914912Y-82098754D01*
X65070270Y-82081740D01*
X65070275Y-82081739D01*
X65074923Y-82081230D01*
X65088589Y-82077632D01*
X65325960Y-82015137D01*
X65325962Y-82015136D01*
X65330483Y-82013946D01*
X65334780Y-82012100D01*
X65568997Y-81911473D01*
X65568999Y-81911472D01*
X65573291Y-81909628D01*
X65682040Y-81842332D01*
X65794040Y-81773025D01*
X65794044Y-81773022D01*
X65798013Y-81770566D01*
X65999711Y-81599816D01*
X66031121Y-81564000D01*
X66170874Y-81404643D01*
X66170878Y-81404638D01*
X66173956Y-81401128D01*
X66316919Y-81178867D01*
X66425459Y-80937917D01*
X66497192Y-80683570D01*
X66530542Y-80421414D01*
X66532986Y-80328100D01*
X66529518Y-80281427D01*
X78467625Y-80281427D01*
X78467849Y-80286093D01*
X78467849Y-80286099D01*
X78470436Y-80339947D01*
X78480304Y-80545391D01*
X78486232Y-80575191D01*
X78514980Y-80719718D01*
X78531860Y-80804582D01*
X78533439Y-80808980D01*
X78533441Y-80808987D01*
X78591455Y-80970568D01*
X78621161Y-81053306D01*
X78746245Y-81286098D01*
X78904363Y-81497844D01*
X78907672Y-81501124D01*
X78907677Y-81501130D01*
X79010274Y-81602835D01*
X79092043Y-81683893D01*
X79095805Y-81686651D01*
X79095808Y-81686654D01*
X79280012Y-81821718D01*
X79305161Y-81840158D01*
X79309292Y-81842332D01*
X79309293Y-81842332D01*
X79534901Y-81961030D01*
X79534907Y-81961032D01*
X79539036Y-81963205D01*
X79543443Y-81964744D01*
X79543450Y-81964747D01*
X79705434Y-82021314D01*
X79788529Y-82050332D01*
X79793122Y-82051204D01*
X79944999Y-82080039D01*
X80048160Y-82099625D01*
X80173677Y-82104557D01*
X80307557Y-82109817D01*
X80307562Y-82109817D01*
X80312225Y-82110000D01*
X80414912Y-82098754D01*
X80570270Y-82081740D01*
X80570275Y-82081739D01*
X80574923Y-82081230D01*
X80588589Y-82077632D01*
X80825960Y-82015137D01*
X80825962Y-82015136D01*
X80830483Y-82013946D01*
X80834780Y-82012100D01*
X81068997Y-81911473D01*
X81068999Y-81911472D01*
X81073291Y-81909628D01*
X81182040Y-81842332D01*
X81294040Y-81773025D01*
X81294044Y-81773022D01*
X81298013Y-81770566D01*
X81499711Y-81599816D01*
X81531121Y-81564000D01*
X81670874Y-81404643D01*
X81670878Y-81404638D01*
X81673956Y-81401128D01*
X81816919Y-81178867D01*
X81925459Y-80937917D01*
X81997192Y-80683570D01*
X82030542Y-80421414D01*
X82032986Y-80328100D01*
X82015004Y-80086122D01*
X82013747Y-80069210D01*
X82013746Y-80069206D01*
X82013401Y-80064558D01*
X81955078Y-79806805D01*
X81952613Y-79800467D01*
X81860990Y-79564858D01*
X81860989Y-79564856D01*
X81859297Y-79560505D01*
X81850778Y-79545599D01*
X81774529Y-79412193D01*
X81728162Y-79331067D01*
X81564555Y-79123532D01*
X81372069Y-78942460D01*
X81364899Y-78937486D01*
X81158776Y-78794492D01*
X81158773Y-78794490D01*
X81154934Y-78791827D01*
X81150744Y-78789761D01*
X81150741Y-78789759D01*
X80922106Y-78677009D01*
X80922103Y-78677008D01*
X80917918Y-78674944D01*
X80888800Y-78665623D01*
X80670675Y-78595801D01*
X80670677Y-78595801D01*
X80666230Y-78594378D01*
X80517015Y-78570077D01*
X80410009Y-78552650D01*
X80410008Y-78552650D01*
X80405397Y-78551899D01*
X80273274Y-78550169D01*
X80145828Y-78548501D01*
X80145825Y-78548501D01*
X80141151Y-78548440D01*
X79879296Y-78584077D01*
X79874810Y-78585385D01*
X79874808Y-78585385D01*
X79846528Y-78593628D01*
X79625585Y-78658027D01*
X79621332Y-78659988D01*
X79621331Y-78659988D01*
X79609108Y-78665623D01*
X79385591Y-78768665D01*
X79381682Y-78771228D01*
X79168500Y-78910996D01*
X79168495Y-78911000D01*
X79164587Y-78913562D01*
X78967427Y-79089534D01*
X78798443Y-79292715D01*
X78661348Y-79518641D01*
X78659539Y-79522955D01*
X78659538Y-79522957D01*
X78599326Y-79666547D01*
X78559152Y-79762350D01*
X78558001Y-79766882D01*
X78558000Y-79766885D01*
X78548968Y-79802451D01*
X78494102Y-80018488D01*
X78467625Y-80281427D01*
X66529518Y-80281427D01*
X66515004Y-80086122D01*
X66513747Y-80069210D01*
X66513746Y-80069206D01*
X66513401Y-80064558D01*
X66455078Y-79806805D01*
X66452613Y-79800467D01*
X66360990Y-79564858D01*
X66360989Y-79564856D01*
X66359297Y-79560505D01*
X66350778Y-79545599D01*
X66274529Y-79412193D01*
X66228162Y-79331067D01*
X66064555Y-79123532D01*
X65872069Y-78942460D01*
X65864899Y-78937486D01*
X65658776Y-78794492D01*
X65658773Y-78794490D01*
X65654934Y-78791827D01*
X65650744Y-78789761D01*
X65650741Y-78789759D01*
X65422106Y-78677009D01*
X65422103Y-78677008D01*
X65417918Y-78674944D01*
X65388800Y-78665623D01*
X65170675Y-78595801D01*
X65170677Y-78595801D01*
X65166230Y-78594378D01*
X65017015Y-78570077D01*
X64910009Y-78552650D01*
X64910008Y-78552650D01*
X64905397Y-78551899D01*
X64773274Y-78550169D01*
X64645828Y-78548501D01*
X64645825Y-78548501D01*
X64641151Y-78548440D01*
X64379296Y-78584077D01*
X64374810Y-78585385D01*
X64374808Y-78585385D01*
X64346528Y-78593628D01*
X64125585Y-78658027D01*
X64121332Y-78659988D01*
X64121331Y-78659988D01*
X64109108Y-78665623D01*
X63885591Y-78768665D01*
X63881682Y-78771228D01*
X63668500Y-78910996D01*
X63668495Y-78911000D01*
X63664587Y-78913562D01*
X63467427Y-79089534D01*
X63298443Y-79292715D01*
X63256817Y-79361313D01*
X63233719Y-79399377D01*
X63181280Y-79447238D01*
X63111290Y-79459150D01*
X63045970Y-79431332D01*
X63006059Y-79372615D01*
X63000000Y-79334012D01*
X63000000Y-76552190D01*
X63020002Y-76484069D01*
X63036905Y-76463095D01*
X66250000Y-73250000D01*
X99144318Y-73250000D01*
X99164956Y-73406762D01*
X99225464Y-73552841D01*
X99321718Y-73678282D01*
X99447159Y-73774536D01*
X99593238Y-73835044D01*
X99750000Y-73855682D01*
X99758188Y-73854604D01*
X99898574Y-73836122D01*
X99906762Y-73835044D01*
X100052841Y-73774536D01*
X100173296Y-73682108D01*
X100239517Y-73656508D01*
X100309065Y-73670773D01*
X100326704Y-73682108D01*
X100447159Y-73774536D01*
X100593238Y-73835044D01*
X100750000Y-73855682D01*
X100758188Y-73854604D01*
X100898574Y-73836122D01*
X100906762Y-73835044D01*
X101052841Y-73774536D01*
X101178282Y-73678282D01*
X101274536Y-73552841D01*
X101335044Y-73406762D01*
X101355682Y-73250000D01*
X101335044Y-73093238D01*
X101274536Y-72947159D01*
X101269509Y-72940608D01*
X101268003Y-72937999D01*
X101251266Y-72869003D01*
X101268003Y-72812001D01*
X101269509Y-72809392D01*
X101274536Y-72802841D01*
X101335044Y-72656762D01*
X101355682Y-72500000D01*
X101335044Y-72343238D01*
X101274536Y-72197159D01*
X101269509Y-72190608D01*
X101268003Y-72187999D01*
X101251266Y-72119003D01*
X101268003Y-72062001D01*
X101269509Y-72059392D01*
X101274536Y-72052841D01*
X101335044Y-71906762D01*
X101355682Y-71750000D01*
X101335044Y-71593238D01*
X101274536Y-71447159D01*
X101269509Y-71440608D01*
X101268003Y-71437999D01*
X101251266Y-71369003D01*
X101268003Y-71312001D01*
X101269509Y-71309392D01*
X101274536Y-71302841D01*
X101335044Y-71156762D01*
X101355682Y-71000000D01*
X101335044Y-70843238D01*
X101274536Y-70697159D01*
X101178282Y-70571718D01*
X101052841Y-70475464D01*
X100906762Y-70414956D01*
X100750000Y-70394318D01*
X100593238Y-70414956D01*
X100447159Y-70475464D01*
X100440608Y-70480491D01*
X100326704Y-70567892D01*
X100260483Y-70593492D01*
X100190935Y-70579227D01*
X100173296Y-70567892D01*
X100059392Y-70480491D01*
X100052841Y-70475464D01*
X99906762Y-70414956D01*
X99750000Y-70394318D01*
X99593238Y-70414956D01*
X99447159Y-70475464D01*
X99321718Y-70571718D01*
X99225464Y-70697159D01*
X99164956Y-70843238D01*
X99144318Y-71000000D01*
X99164956Y-71156762D01*
X99225464Y-71302841D01*
X99230491Y-71309392D01*
X99231997Y-71312001D01*
X99248734Y-71380997D01*
X99231997Y-71437999D01*
X99230491Y-71440608D01*
X99225464Y-71447159D01*
X99164956Y-71593238D01*
X99144318Y-71750000D01*
X99164956Y-71906762D01*
X99225464Y-72052841D01*
X99230491Y-72059392D01*
X99231997Y-72062001D01*
X99248734Y-72130997D01*
X99231997Y-72187999D01*
X99230491Y-72190608D01*
X99225464Y-72197159D01*
X99164956Y-72343238D01*
X99144318Y-72500000D01*
X99164956Y-72656762D01*
X99225464Y-72802841D01*
X99230491Y-72809392D01*
X99231997Y-72812001D01*
X99248734Y-72880997D01*
X99231997Y-72937999D01*
X99230491Y-72940608D01*
X99225464Y-72947159D01*
X99164956Y-73093238D01*
X99144318Y-73250000D01*
X66250000Y-73250000D01*
X73213095Y-66286905D01*
X73275407Y-66252879D01*
X73302190Y-66250000D01*
X127206991Y-66250000D01*
X127275112Y-66270002D01*
G37*
%TD.AperFunction*%
%TD*%
M02*
