M48
; DRILL file {KiCad 6.0.4-6f826c9f35~116~ubuntu18.04.1} date Thu 26 May 2022 20:08:18 BST
; FORMAT={-:-/ absolute / metric / decimal}
; #@! TF.CreationDate,2022-05-26T20:08:18+01:00
; #@! TF.GenerationSoftware,Kicad,Pcbnew,6.0.4-6f826c9f35~116~ubuntu18.04.1
; #@! TF.FileFunction,Plated,1,4,PTH
FMAT,2
METRIC
; #@! TA.AperFunction,Plated,PTH,ComponentDrill
T1C0.200
; #@! TA.AperFunction,Plated,PTH,ViaDrill
T2C0.300
; #@! TA.AperFunction,Plated,PTH,ViaDrill
T3C0.400
; #@! TA.AperFunction,Plated,PTH,ComponentDrill
T4C0.650
; #@! TA.AperFunction,Plated,PTH,ComponentDrill
T5C0.990
; #@! TA.AperFunction,Plated,PTH,ComponentDrill
T6C1.970
; #@! TA.AperFunction,Plated,PTH,ComponentDrill
T7C2.110
%
G90
G05
T1
X93.026Y-101.27
X93.026Y-102.57
X93.096Y-76.81
X93.096Y-78.11
X94.126Y-101.27
X94.126Y-102.57
X94.196Y-76.81
X94.196Y-78.11
T2
X87.0Y-69.0
X87.0Y-69.75
X87.0Y-70.5
X87.0Y-71.25
X87.0Y-72.0
X88.0Y-69.0
X88.0Y-69.75
X88.0Y-70.5
X88.0Y-71.25
X88.0Y-72.0
X88.0Y-105.75
X88.0Y-106.5
X88.0Y-107.25
X88.0Y-108.0
X88.0Y-108.75
X88.75Y-105.75
X88.75Y-106.5
X88.75Y-107.25
X88.75Y-108.0
X88.75Y-108.75
X97.75Y-104.5
X97.75Y-105.25
X98.5Y-104.5
X98.5Y-105.25
X99.25Y-104.5
X99.25Y-105.25
X99.75Y-71.0
X99.75Y-71.75
X99.75Y-72.5
X99.75Y-73.25
X100.0Y-104.5
X100.0Y-105.25
X100.75Y-71.0
X100.75Y-71.75
X100.75Y-72.5
X100.75Y-73.25
X116.75Y-82.25
X127.5Y-79.5
T3
X87.75Y-101.5
X88.64Y-111.65
X90.5Y-80.0
X91.0Y-75.75
X91.25Y-104.0
X105.5Y-102.0
X106.0Y-99.0
X107.0Y-85.25
X107.25Y-107.75
X111.0Y-88.75
X112.75Y-79.5
X114.0Y-86.5
X114.0Y-92.25
X115.75Y-93.5
X116.0Y-89.25
X116.25Y-100.5
X119.0Y-83.0
X121.0Y-78.25
X121.75Y-88.25
X122.75Y-82.75
X123.5Y-76.0
X125.5Y-78.0
X130.0Y-81.75
X131.0Y-76.0
T4
X136.75Y-76.23
X136.75Y-77.5
X136.75Y-78.77
X136.75Y-80.04
X136.75Y-81.31
T5
X127.17Y-89.88
X127.17Y-92.42
T6
X64.75Y-80.328
X64.75Y-90.67
X64.75Y-100.97
X80.25Y-80.328
X80.25Y-90.67
X80.25Y-100.97
T7
X132.25Y-87.34
X132.25Y-97.5
T0
M30
