%TF.GenerationSoftware,KiCad,Pcbnew,6.0.4-6f826c9f35~116~ubuntu18.04.1*%
%TF.CreationDate,2022-05-26T20:07:41+01:00*%
%TF.ProjectId,cosmic_ray_detector,636f736d-6963-45f7-9261-795f64657465,1*%
%TF.SameCoordinates,Original*%
%TF.FileFunction,Copper,L3,Inr*%
%TF.FilePolarity,Positive*%
%FSLAX46Y46*%
G04 Gerber Fmt 4.6, Leading zero omitted, Abs format (unit mm)*
G04 Created by KiCad (PCBNEW 6.0.4-6f826c9f35~116~ubuntu18.04.1) date 2022-05-26 20:07:41*
%MOMM*%
%LPD*%
G01*
G04 APERTURE LIST*
%TA.AperFunction,ComponentPad*%
%ADD10C,2.955000*%
%TD*%
%TA.AperFunction,ComponentPad*%
%ADD11C,1.540000*%
%TD*%
%TA.AperFunction,ComponentPad*%
%ADD12C,3.165000*%
%TD*%
%TA.AperFunction,ComponentPad*%
%ADD13C,0.500000*%
%TD*%
%TA.AperFunction,ComponentPad*%
%ADD14R,1.000000X1.000000*%
%TD*%
%TA.AperFunction,ComponentPad*%
%ADD15O,1.000000X1.000000*%
%TD*%
%TA.AperFunction,ViaPad*%
%ADD16C,0.800000*%
%TD*%
%TA.AperFunction,ViaPad*%
%ADD17C,0.600000*%
%TD*%
G04 APERTURE END LIST*
D10*
%TO.N,/Power Regulators/-VIN*%
%TO.C,J3*%
X64750000Y-100970000D03*
X80250000Y-100970000D03*
%TD*%
D11*
%TO.N,GNDA*%
%TO.C,J6*%
X127170000Y-89880000D03*
%TO.N,Net-(J6-Pad1)*%
X127170000Y-92420000D03*
D12*
%TO.N,*%
X132250000Y-87340000D03*
X132250000Y-97500000D03*
%TD*%
D10*
%TO.N,/Power Regulators/+VIN*%
%TO.C,J4*%
X80250000Y-80328100D03*
X64750000Y-80328100D03*
%TD*%
%TO.N,GNDA*%
%TO.C,J5*%
X80250000Y-90670000D03*
X64750000Y-90670000D03*
%TD*%
D13*
%TO.N,GNDA*%
%TO.C,U3*%
X94196000Y-76810000D03*
X94196000Y-78110000D03*
X93096000Y-78110000D03*
X93096000Y-76810000D03*
%TD*%
%TO.N,GNDA*%
%TO.C,U2*%
X94126000Y-101270000D03*
X94126000Y-102570000D03*
X93026000Y-102570000D03*
X93026000Y-101270000D03*
%TD*%
D14*
%TO.N,/threshold_setting/SPI.~{SYNC}*%
%TO.C,J2*%
X136750000Y-76230000D03*
D15*
%TO.N,/threshold_setting/SPI.SCK*%
X136750000Y-77500000D03*
%TO.N,/threshold_setting/SPI.SDI*%
X136750000Y-78770000D03*
%TO.N,/threshold_setting/SPI.SDO*%
X136750000Y-80040000D03*
%TO.N,GNDA*%
X136750000Y-81310000D03*
%TD*%
D16*
%TO.N,GNDA*%
X88640000Y-111650000D03*
X130000000Y-81750000D03*
%TO.N,/Power Regulators/+VIN*%
X91000000Y-75750000D03*
X90500000Y-80000000D03*
%TO.N,/Power Regulators/-VIN*%
X91250000Y-104000000D03*
X87750000Y-101500000D03*
D17*
%TO.N,GNDA*%
X88750000Y-105750000D03*
X88750000Y-106500000D03*
X88750000Y-107250000D03*
X88750000Y-108000000D03*
X88750000Y-108750000D03*
X88000000Y-108750000D03*
X88000000Y-108000000D03*
X88000000Y-107250000D03*
X88000000Y-106500000D03*
X88000000Y-105750000D03*
X88000000Y-69000000D03*
X88000000Y-69750000D03*
X88000000Y-70500000D03*
X88000000Y-71250000D03*
X88000000Y-72000000D03*
X87000000Y-72000000D03*
X87000000Y-71250000D03*
X87000000Y-70500000D03*
X87000000Y-69750000D03*
X87000000Y-69000000D03*
%TO.N,+5VA*%
X99750000Y-73250000D03*
X100750000Y-73250000D03*
X100750000Y-72500000D03*
X99750000Y-72500000D03*
X99750000Y-71750000D03*
X100750000Y-71750000D03*
X100750000Y-71000000D03*
X99750000Y-71000000D03*
%TO.N,-5VA*%
X100000000Y-105250000D03*
X99250000Y-105250000D03*
X98500000Y-105250000D03*
X97750000Y-105250000D03*
X97750000Y-104500000D03*
X98500000Y-104500000D03*
X99250000Y-104500000D03*
X100000000Y-104500000D03*
D16*
%TO.N,GNDA*%
X107000000Y-85250000D03*
X106000000Y-99000000D03*
X116250000Y-100500000D03*
X114000000Y-92250000D03*
X111000000Y-88750000D03*
X114000000Y-86500000D03*
X112750000Y-79500000D03*
%TO.N,+5VA*%
X125500000Y-78000000D03*
X115750000Y-93500000D03*
X116000000Y-89250000D03*
%TO.N,GNDA*%
X107250000Y-107750000D03*
%TO.N,-5VA*%
X105500000Y-102000000D03*
%TO.N,GNDA*%
X121750000Y-88250000D03*
X119000000Y-83000000D03*
X122750000Y-82750000D03*
X121000000Y-78250000D03*
X123500000Y-76000000D03*
X131000000Y-76000000D03*
D17*
%TO.N,/comparator/VREF*%
X116750000Y-82250000D03*
X127500000Y-79500000D03*
%TD*%
%TA.AperFunction,Conductor*%
%TO.N,-5VA*%
G36*
X131135148Y-95770002D02*
G01*
X131181641Y-95823658D01*
X131191745Y-95893932D01*
X131162251Y-95958512D01*
X131140285Y-95978515D01*
X131046665Y-96045417D01*
X130853717Y-96229480D01*
X130688629Y-96438893D01*
X130686392Y-96442745D01*
X130556929Y-96665631D01*
X130556926Y-96665637D01*
X130554695Y-96669478D01*
X130454586Y-96916635D01*
X130390301Y-97175431D01*
X130363122Y-97440702D01*
X130373591Y-97707158D01*
X130421499Y-97969479D01*
X130505891Y-98222434D01*
X130507881Y-98226417D01*
X130507882Y-98226419D01*
X130610186Y-98431159D01*
X130625083Y-98460973D01*
X130776696Y-98680339D01*
X130779718Y-98683608D01*
X130954689Y-98872892D01*
X130954694Y-98872897D01*
X130957705Y-98876154D01*
X131164499Y-99044511D01*
X131392952Y-99182051D01*
X131397047Y-99183785D01*
X131397049Y-99183786D01*
X131634404Y-99284293D01*
X131634411Y-99284295D01*
X131638505Y-99286029D01*
X131896260Y-99354372D01*
X131900684Y-99354896D01*
X131900686Y-99354896D01*
X132006761Y-99367450D01*
X132161072Y-99385714D01*
X132427659Y-99379432D01*
X132578219Y-99354372D01*
X132686310Y-99336381D01*
X132686314Y-99336380D01*
X132690700Y-99335650D01*
X132694941Y-99334309D01*
X132694944Y-99334308D01*
X132940703Y-99256584D01*
X132940705Y-99256583D01*
X132944949Y-99255241D01*
X132948960Y-99253315D01*
X132948965Y-99253313D01*
X133069458Y-99195453D01*
X133139524Y-99183996D01*
X133204662Y-99212239D01*
X133244189Y-99271214D01*
X133250000Y-99309036D01*
X133250000Y-103197810D01*
X133229998Y-103265931D01*
X133213095Y-103286905D01*
X125786905Y-110713095D01*
X125724593Y-110747121D01*
X125697810Y-110750000D01*
X96876000Y-110750000D01*
X96807879Y-110729998D01*
X96761386Y-110676342D01*
X96750000Y-110624000D01*
X96750000Y-107739877D01*
X106525012Y-107739877D01*
X106540785Y-107900748D01*
X106591808Y-108054128D01*
X106595455Y-108060150D01*
X106595456Y-108060152D01*
X106604349Y-108074835D01*
X106675543Y-108192391D01*
X106787830Y-108308668D01*
X106923087Y-108397177D01*
X106929687Y-108399632D01*
X106929688Y-108399632D01*
X107067990Y-108451067D01*
X107067992Y-108451068D01*
X107074592Y-108453522D01*
X107081570Y-108454453D01*
X107081574Y-108454454D01*
X107129806Y-108460889D01*
X107234816Y-108474900D01*
X107241827Y-108474262D01*
X107241831Y-108474262D01*
X107388772Y-108460889D01*
X107395793Y-108460250D01*
X107402495Y-108458072D01*
X107402497Y-108458072D01*
X107542825Y-108412476D01*
X107549525Y-108410299D01*
X107567419Y-108399632D01*
X107682318Y-108331139D01*
X107682320Y-108331138D01*
X107688370Y-108327531D01*
X107805427Y-108216059D01*
X107817788Y-108197455D01*
X107890978Y-108087294D01*
X107894879Y-108081423D01*
X107952280Y-107930315D01*
X107955496Y-107907433D01*
X107974225Y-107774169D01*
X107974226Y-107774162D01*
X107974776Y-107770245D01*
X107975059Y-107750000D01*
X107957041Y-107589364D01*
X107951303Y-107572885D01*
X107906200Y-107443369D01*
X107903882Y-107436712D01*
X107898197Y-107427613D01*
X107821957Y-107305605D01*
X107818224Y-107299631D01*
X107704325Y-107184934D01*
X107567845Y-107098321D01*
X107542658Y-107089352D01*
X107422203Y-107046460D01*
X107422198Y-107046459D01*
X107415568Y-107044098D01*
X107408582Y-107043265D01*
X107408578Y-107043264D01*
X107294624Y-107029676D01*
X107255062Y-107024959D01*
X107248059Y-107025695D01*
X107248058Y-107025695D01*
X107206808Y-107030031D01*
X107094304Y-107041855D01*
X107087636Y-107044125D01*
X106947952Y-107091677D01*
X106947949Y-107091678D01*
X106941285Y-107093947D01*
X106935290Y-107097635D01*
X106935286Y-107097637D01*
X106809610Y-107174954D01*
X106803609Y-107178646D01*
X106688120Y-107291741D01*
X106600556Y-107427613D01*
X106598145Y-107434236D01*
X106598144Y-107434239D01*
X106547681Y-107572885D01*
X106547680Y-107572890D01*
X106545271Y-107579508D01*
X106525012Y-107739877D01*
X96750000Y-107739877D01*
X96750000Y-100489877D01*
X115525012Y-100489877D01*
X115540785Y-100650748D01*
X115591808Y-100804128D01*
X115595455Y-100810150D01*
X115595456Y-100810152D01*
X115604349Y-100824835D01*
X115675543Y-100942391D01*
X115787830Y-101058668D01*
X115923087Y-101147177D01*
X115929687Y-101149632D01*
X115929688Y-101149632D01*
X116067990Y-101201067D01*
X116067992Y-101201068D01*
X116074592Y-101203522D01*
X116081570Y-101204453D01*
X116081574Y-101204454D01*
X116129806Y-101210889D01*
X116234816Y-101224900D01*
X116241827Y-101224262D01*
X116241831Y-101224262D01*
X116388772Y-101210889D01*
X116395793Y-101210250D01*
X116402495Y-101208072D01*
X116402497Y-101208072D01*
X116542825Y-101162476D01*
X116549525Y-101160299D01*
X116567419Y-101149632D01*
X116682318Y-101081139D01*
X116682320Y-101081138D01*
X116688370Y-101077531D01*
X116805427Y-100966059D01*
X116817788Y-100947455D01*
X116890978Y-100837294D01*
X116894879Y-100831423D01*
X116952280Y-100680315D01*
X116955496Y-100657433D01*
X116974225Y-100524169D01*
X116974226Y-100524162D01*
X116974776Y-100520245D01*
X116975059Y-100500000D01*
X116957041Y-100339364D01*
X116951303Y-100322885D01*
X116906200Y-100193369D01*
X116903882Y-100186712D01*
X116898197Y-100177613D01*
X116821957Y-100055605D01*
X116818224Y-100049631D01*
X116704325Y-99934934D01*
X116567845Y-99848321D01*
X116542658Y-99839352D01*
X116422203Y-99796460D01*
X116422198Y-99796459D01*
X116415568Y-99794098D01*
X116408582Y-99793265D01*
X116408578Y-99793264D01*
X116294624Y-99779676D01*
X116255062Y-99774959D01*
X116248059Y-99775695D01*
X116248058Y-99775695D01*
X116206808Y-99780031D01*
X116094304Y-99791855D01*
X116087636Y-99794125D01*
X115947952Y-99841677D01*
X115947949Y-99841678D01*
X115941285Y-99843947D01*
X115935290Y-99847635D01*
X115935286Y-99847637D01*
X115809610Y-99924954D01*
X115803609Y-99928646D01*
X115688120Y-100041741D01*
X115600556Y-100177613D01*
X115598145Y-100184236D01*
X115598144Y-100184239D01*
X115547681Y-100322885D01*
X115547680Y-100322890D01*
X115545271Y-100329508D01*
X115525012Y-100489877D01*
X96750000Y-100489877D01*
X96750000Y-98989877D01*
X105275012Y-98989877D01*
X105290785Y-99150748D01*
X105341808Y-99304128D01*
X105345455Y-99310150D01*
X105345456Y-99310152D01*
X105391155Y-99385609D01*
X105425543Y-99442391D01*
X105537830Y-99558668D01*
X105673087Y-99647177D01*
X105679687Y-99649632D01*
X105679688Y-99649632D01*
X105817990Y-99701067D01*
X105817992Y-99701068D01*
X105824592Y-99703522D01*
X105831570Y-99704453D01*
X105831574Y-99704454D01*
X105879806Y-99710889D01*
X105984816Y-99724900D01*
X105991827Y-99724262D01*
X105991831Y-99724262D01*
X106138772Y-99710889D01*
X106145793Y-99710250D01*
X106152495Y-99708072D01*
X106152497Y-99708072D01*
X106292825Y-99662476D01*
X106299525Y-99660299D01*
X106317419Y-99649632D01*
X106432318Y-99581139D01*
X106432320Y-99581138D01*
X106438370Y-99577531D01*
X106555427Y-99466059D01*
X106567788Y-99447455D01*
X106613468Y-99378700D01*
X106644879Y-99331423D01*
X106702280Y-99180315D01*
X106705496Y-99157433D01*
X106724225Y-99024169D01*
X106724226Y-99024162D01*
X106724776Y-99020245D01*
X106725059Y-99000000D01*
X106707041Y-98839364D01*
X106701303Y-98822885D01*
X106656200Y-98693369D01*
X106653882Y-98686712D01*
X106648197Y-98677613D01*
X106571957Y-98555605D01*
X106568224Y-98549631D01*
X106454325Y-98434934D01*
X106317845Y-98348321D01*
X106292658Y-98339352D01*
X106172203Y-98296460D01*
X106172198Y-98296459D01*
X106165568Y-98294098D01*
X106158582Y-98293265D01*
X106158578Y-98293264D01*
X106044624Y-98279676D01*
X106005062Y-98274959D01*
X105998059Y-98275695D01*
X105998058Y-98275695D01*
X105956808Y-98280031D01*
X105844304Y-98291855D01*
X105837636Y-98294125D01*
X105697952Y-98341677D01*
X105697949Y-98341678D01*
X105691285Y-98343947D01*
X105685290Y-98347635D01*
X105685286Y-98347637D01*
X105627215Y-98383363D01*
X105553609Y-98428646D01*
X105438120Y-98541741D01*
X105350556Y-98677613D01*
X105348145Y-98684236D01*
X105348144Y-98684239D01*
X105297681Y-98822885D01*
X105297680Y-98822890D01*
X105295271Y-98829508D01*
X105275012Y-98989877D01*
X96750000Y-98989877D01*
X96750000Y-95876000D01*
X96770002Y-95807879D01*
X96823658Y-95761386D01*
X96876000Y-95750000D01*
X131067027Y-95750000D01*
X131135148Y-95770002D01*
G37*
%TD.AperFunction*%
%TD*%
%TA.AperFunction,NonConductor*%
G36*
X92192121Y-65520002D02*
G01*
X92238614Y-65573658D01*
X92250000Y-65626000D01*
X92250000Y-118124000D01*
X92229998Y-118192121D01*
X92176342Y-118238614D01*
X92124000Y-118250000D01*
X70626000Y-118250000D01*
X70557879Y-118229998D01*
X70511386Y-118176342D01*
X70500000Y-118124000D01*
X70500000Y-111639877D01*
X87915012Y-111639877D01*
X87930785Y-111800748D01*
X87981808Y-111954128D01*
X87985455Y-111960150D01*
X87985456Y-111960152D01*
X87994349Y-111974835D01*
X88065543Y-112092391D01*
X88177830Y-112208668D01*
X88313087Y-112297177D01*
X88319687Y-112299632D01*
X88319688Y-112299632D01*
X88457990Y-112351067D01*
X88457992Y-112351068D01*
X88464592Y-112353522D01*
X88471570Y-112354453D01*
X88471574Y-112354454D01*
X88519806Y-112360889D01*
X88624816Y-112374900D01*
X88631827Y-112374262D01*
X88631831Y-112374262D01*
X88778772Y-112360889D01*
X88785793Y-112360250D01*
X88792495Y-112358072D01*
X88792497Y-112358072D01*
X88932825Y-112312476D01*
X88939525Y-112310299D01*
X88957419Y-112299632D01*
X89072318Y-112231139D01*
X89072320Y-112231138D01*
X89078370Y-112227531D01*
X89195427Y-112116059D01*
X89207788Y-112097455D01*
X89280978Y-111987294D01*
X89284879Y-111981423D01*
X89342280Y-111830315D01*
X89345496Y-111807433D01*
X89364225Y-111674169D01*
X89364226Y-111674162D01*
X89364776Y-111670245D01*
X89365059Y-111650000D01*
X89347041Y-111489364D01*
X89341303Y-111472885D01*
X89296200Y-111343369D01*
X89293882Y-111336712D01*
X89288197Y-111327613D01*
X89211957Y-111205605D01*
X89208224Y-111199631D01*
X89094325Y-111084934D01*
X88957845Y-110998321D01*
X88932658Y-110989352D01*
X88812203Y-110946460D01*
X88812198Y-110946459D01*
X88805568Y-110944098D01*
X88798582Y-110943265D01*
X88798578Y-110943264D01*
X88684624Y-110929676D01*
X88645062Y-110924959D01*
X88638059Y-110925695D01*
X88638058Y-110925695D01*
X88596808Y-110930031D01*
X88484304Y-110941855D01*
X88477636Y-110944125D01*
X88337952Y-110991677D01*
X88337949Y-110991678D01*
X88331285Y-110993947D01*
X88325290Y-110997635D01*
X88325286Y-110997637D01*
X88199610Y-111074954D01*
X88193609Y-111078646D01*
X88078120Y-111191741D01*
X87990556Y-111327613D01*
X87988145Y-111334236D01*
X87988144Y-111334239D01*
X87937681Y-111472885D01*
X87937680Y-111472890D01*
X87935271Y-111479508D01*
X87915012Y-111639877D01*
X70500000Y-111639877D01*
X70500000Y-108742927D01*
X87324612Y-108742927D01*
X87342420Y-108904234D01*
X87349951Y-108924813D01*
X87395580Y-109049501D01*
X87395582Y-109049505D01*
X87398192Y-109056637D01*
X87402429Y-109062943D01*
X87402431Y-109062946D01*
X87444130Y-109124999D01*
X87488707Y-109191337D01*
X87494325Y-109196449D01*
X87603118Y-109295444D01*
X87603122Y-109295447D01*
X87608739Y-109300558D01*
X87615412Y-109304181D01*
X87615416Y-109304184D01*
X87744686Y-109374371D01*
X87751359Y-109377994D01*
X87908334Y-109419176D01*
X87994250Y-109420526D01*
X88063004Y-109421606D01*
X88063007Y-109421606D01*
X88070601Y-109421725D01*
X88126392Y-109408947D01*
X88221389Y-109387190D01*
X88221393Y-109387189D01*
X88228792Y-109385494D01*
X88318613Y-109340319D01*
X88388456Y-109327580D01*
X88435348Y-109342153D01*
X88501359Y-109377994D01*
X88658334Y-109419176D01*
X88744250Y-109420526D01*
X88813004Y-109421606D01*
X88813007Y-109421606D01*
X88820601Y-109421725D01*
X88876392Y-109408947D01*
X88971389Y-109387190D01*
X88971393Y-109387189D01*
X88978792Y-109385494D01*
X89123774Y-109312576D01*
X89150060Y-109290126D01*
X89241404Y-109212111D01*
X89241406Y-109212108D01*
X89247178Y-109207179D01*
X89341879Y-109075388D01*
X89402410Y-108924813D01*
X89425277Y-108764145D01*
X89425425Y-108750000D01*
X89405928Y-108588889D01*
X89348564Y-108437078D01*
X89345463Y-108432566D01*
X89331807Y-108363820D01*
X89343352Y-108325980D01*
X89341879Y-108325388D01*
X89399577Y-108181861D01*
X89399578Y-108181859D01*
X89402410Y-108174813D01*
X89425277Y-108014145D01*
X89425425Y-108000000D01*
X89405928Y-107838889D01*
X89348564Y-107687078D01*
X89345463Y-107682566D01*
X89331807Y-107613820D01*
X89343352Y-107575980D01*
X89341879Y-107575388D01*
X89399577Y-107431861D01*
X89399578Y-107431859D01*
X89402410Y-107424813D01*
X89425277Y-107264145D01*
X89425425Y-107250000D01*
X89405928Y-107088889D01*
X89348564Y-106937078D01*
X89345463Y-106932566D01*
X89331807Y-106863820D01*
X89343352Y-106825980D01*
X89341879Y-106825388D01*
X89399577Y-106681861D01*
X89399578Y-106681859D01*
X89402410Y-106674813D01*
X89425277Y-106514145D01*
X89425425Y-106500000D01*
X89405928Y-106338889D01*
X89348564Y-106187078D01*
X89345463Y-106182566D01*
X89331807Y-106113820D01*
X89343352Y-106075980D01*
X89341879Y-106075388D01*
X89399577Y-105931861D01*
X89399578Y-105931859D01*
X89402410Y-105924813D01*
X89425277Y-105764145D01*
X89425425Y-105750000D01*
X89405928Y-105588889D01*
X89348564Y-105437078D01*
X89256644Y-105303333D01*
X89135474Y-105195375D01*
X88992051Y-105119436D01*
X88982098Y-105116936D01*
X88842024Y-105081752D01*
X88842021Y-105081752D01*
X88834653Y-105079901D01*
X88827054Y-105079861D01*
X88827052Y-105079861D01*
X88760042Y-105079510D01*
X88672369Y-105079051D01*
X88664989Y-105080823D01*
X88664987Y-105080823D01*
X88521945Y-105115164D01*
X88521941Y-105115165D01*
X88514566Y-105116936D01*
X88507821Y-105120417D01*
X88507822Y-105120417D01*
X88432714Y-105159183D01*
X88363007Y-105172652D01*
X88315967Y-105158573D01*
X88242051Y-105119436D01*
X88232098Y-105116936D01*
X88092024Y-105081752D01*
X88092021Y-105081752D01*
X88084653Y-105079901D01*
X88077054Y-105079861D01*
X88077052Y-105079861D01*
X88010042Y-105079510D01*
X87922369Y-105079051D01*
X87914989Y-105080823D01*
X87914987Y-105080823D01*
X87771945Y-105115164D01*
X87771941Y-105115165D01*
X87764566Y-105116936D01*
X87620355Y-105191369D01*
X87498061Y-105298052D01*
X87404746Y-105430827D01*
X87345795Y-105582029D01*
X87324612Y-105742927D01*
X87342420Y-105904234D01*
X87398192Y-106056637D01*
X87402428Y-106062941D01*
X87404955Y-106067900D01*
X87418060Y-106137677D01*
X87405017Y-106180441D01*
X87404746Y-106180827D01*
X87401989Y-106187898D01*
X87401987Y-106187902D01*
X87348553Y-106324955D01*
X87345795Y-106332029D01*
X87324612Y-106492927D01*
X87342420Y-106654234D01*
X87398192Y-106806637D01*
X87402428Y-106812941D01*
X87404955Y-106817900D01*
X87418060Y-106887677D01*
X87405017Y-106930441D01*
X87404746Y-106930827D01*
X87401989Y-106937898D01*
X87401987Y-106937902D01*
X87348553Y-107074955D01*
X87345795Y-107082029D01*
X87324612Y-107242927D01*
X87342420Y-107404234D01*
X87398192Y-107556637D01*
X87402428Y-107562941D01*
X87404955Y-107567900D01*
X87418060Y-107637677D01*
X87405017Y-107680441D01*
X87404746Y-107680827D01*
X87401989Y-107687898D01*
X87401987Y-107687902D01*
X87348553Y-107824955D01*
X87345795Y-107832029D01*
X87324612Y-107992927D01*
X87342420Y-108154234D01*
X87398192Y-108306637D01*
X87402428Y-108312941D01*
X87404955Y-108317900D01*
X87418060Y-108387677D01*
X87405017Y-108430441D01*
X87404746Y-108430827D01*
X87401989Y-108437898D01*
X87401987Y-108437902D01*
X87348553Y-108574955D01*
X87345795Y-108582029D01*
X87324612Y-108742927D01*
X70500000Y-108742927D01*
X70500000Y-103989877D01*
X90525012Y-103989877D01*
X90540785Y-104150748D01*
X90591808Y-104304128D01*
X90595455Y-104310150D01*
X90595456Y-104310152D01*
X90604349Y-104324835D01*
X90675543Y-104442391D01*
X90787830Y-104558668D01*
X90923087Y-104647177D01*
X90929687Y-104649632D01*
X90929688Y-104649632D01*
X91067990Y-104701067D01*
X91067992Y-104701068D01*
X91074592Y-104703522D01*
X91081570Y-104704453D01*
X91081574Y-104704454D01*
X91129806Y-104710889D01*
X91234816Y-104724900D01*
X91241827Y-104724262D01*
X91241831Y-104724262D01*
X91388772Y-104710889D01*
X91395793Y-104710250D01*
X91402495Y-104708072D01*
X91402497Y-104708072D01*
X91542825Y-104662476D01*
X91549525Y-104660299D01*
X91567419Y-104649632D01*
X91682318Y-104581139D01*
X91682320Y-104581138D01*
X91688370Y-104577531D01*
X91805427Y-104466059D01*
X91817788Y-104447455D01*
X91890978Y-104337294D01*
X91894879Y-104331423D01*
X91952280Y-104180315D01*
X91955496Y-104157433D01*
X91974225Y-104024169D01*
X91974226Y-104024162D01*
X91974776Y-104020245D01*
X91975059Y-104000000D01*
X91957041Y-103839364D01*
X91951303Y-103822885D01*
X91906200Y-103693369D01*
X91903882Y-103686712D01*
X91898197Y-103677613D01*
X91821957Y-103555605D01*
X91818224Y-103549631D01*
X91704325Y-103434934D01*
X91567845Y-103348321D01*
X91542658Y-103339352D01*
X91422203Y-103296460D01*
X91422198Y-103296459D01*
X91415568Y-103294098D01*
X91408582Y-103293265D01*
X91408578Y-103293264D01*
X91294624Y-103279676D01*
X91255062Y-103274959D01*
X91248059Y-103275695D01*
X91248058Y-103275695D01*
X91206808Y-103280031D01*
X91094304Y-103291855D01*
X91087636Y-103294125D01*
X90947952Y-103341677D01*
X90947949Y-103341678D01*
X90941285Y-103343947D01*
X90935290Y-103347635D01*
X90935286Y-103347637D01*
X90809610Y-103424954D01*
X90803609Y-103428646D01*
X90688120Y-103541741D01*
X90600556Y-103677613D01*
X90598145Y-103684236D01*
X90598144Y-103684239D01*
X90547681Y-103822885D01*
X90547680Y-103822890D01*
X90545271Y-103829508D01*
X90525012Y-103989877D01*
X70500000Y-103989877D01*
X70500000Y-100923327D01*
X78467625Y-100923327D01*
X78467849Y-100927993D01*
X78467849Y-100927999D01*
X78473076Y-101036814D01*
X78480304Y-101187291D01*
X78531860Y-101446482D01*
X78533439Y-101450880D01*
X78533441Y-101450887D01*
X78602683Y-101643740D01*
X78621161Y-101695206D01*
X78746245Y-101927998D01*
X78904363Y-102139744D01*
X78907672Y-102143024D01*
X78907677Y-102143030D01*
X79010274Y-102244735D01*
X79092043Y-102325793D01*
X79095805Y-102328551D01*
X79095808Y-102328554D01*
X79213603Y-102414925D01*
X79305161Y-102482058D01*
X79309292Y-102484232D01*
X79309293Y-102484232D01*
X79534901Y-102602930D01*
X79534907Y-102602932D01*
X79539036Y-102605105D01*
X79543443Y-102606644D01*
X79543450Y-102606647D01*
X79784113Y-102690690D01*
X79788529Y-102692232D01*
X79793122Y-102693104D01*
X79944999Y-102721939D01*
X80048160Y-102741525D01*
X80173677Y-102746457D01*
X80307557Y-102751717D01*
X80307562Y-102751717D01*
X80312225Y-102751900D01*
X80414912Y-102740654D01*
X80570270Y-102723640D01*
X80570275Y-102723639D01*
X80574923Y-102723130D01*
X80698138Y-102690690D01*
X80825960Y-102657037D01*
X80825962Y-102657036D01*
X80830483Y-102655846D01*
X80834780Y-102654000D01*
X81068997Y-102553373D01*
X81068999Y-102553372D01*
X81073291Y-102551528D01*
X81182040Y-102484232D01*
X81294040Y-102414925D01*
X81294044Y-102414922D01*
X81298013Y-102412466D01*
X81499711Y-102241716D01*
X81582620Y-102147177D01*
X81670874Y-102046543D01*
X81670878Y-102046538D01*
X81673956Y-102043028D01*
X81727241Y-101960188D01*
X81814391Y-101824697D01*
X81816919Y-101820767D01*
X81925459Y-101579817D01*
X81950825Y-101489877D01*
X87025012Y-101489877D01*
X87040785Y-101650748D01*
X87091808Y-101804128D01*
X87095455Y-101810150D01*
X87095456Y-101810152D01*
X87164331Y-101923877D01*
X87175543Y-101942391D01*
X87287830Y-102058668D01*
X87423087Y-102147177D01*
X87429687Y-102149632D01*
X87429688Y-102149632D01*
X87567990Y-102201067D01*
X87567992Y-102201068D01*
X87574592Y-102203522D01*
X87581570Y-102204453D01*
X87581574Y-102204454D01*
X87629806Y-102210889D01*
X87734816Y-102224900D01*
X87741827Y-102224262D01*
X87741831Y-102224262D01*
X87888772Y-102210889D01*
X87895793Y-102210250D01*
X87902495Y-102208072D01*
X87902497Y-102208072D01*
X88042825Y-102162476D01*
X88049525Y-102160299D01*
X88067419Y-102149632D01*
X88182318Y-102081139D01*
X88182320Y-102081138D01*
X88188370Y-102077531D01*
X88305427Y-101966059D01*
X88317788Y-101947455D01*
X88390978Y-101837294D01*
X88394879Y-101831423D01*
X88445056Y-101699332D01*
X88449780Y-101686897D01*
X88449781Y-101686895D01*
X88452280Y-101680315D01*
X88455496Y-101657433D01*
X88474225Y-101524169D01*
X88474226Y-101524162D01*
X88474776Y-101520245D01*
X88475059Y-101500000D01*
X88457041Y-101339364D01*
X88451303Y-101322885D01*
X88406200Y-101193369D01*
X88403882Y-101186712D01*
X88398197Y-101177613D01*
X88321957Y-101055605D01*
X88318224Y-101049631D01*
X88204325Y-100934934D01*
X88193398Y-100927999D01*
X88152114Y-100901800D01*
X88067845Y-100848321D01*
X88042658Y-100839352D01*
X87922203Y-100796460D01*
X87922198Y-100796459D01*
X87915568Y-100794098D01*
X87908582Y-100793265D01*
X87908578Y-100793264D01*
X87794624Y-100779676D01*
X87755062Y-100774959D01*
X87748059Y-100775695D01*
X87748058Y-100775695D01*
X87706808Y-100780031D01*
X87594304Y-100791855D01*
X87587636Y-100794125D01*
X87447952Y-100841677D01*
X87447949Y-100841678D01*
X87441285Y-100843947D01*
X87435290Y-100847635D01*
X87435286Y-100847637D01*
X87319820Y-100918673D01*
X87303609Y-100928646D01*
X87188120Y-101041741D01*
X87100556Y-101177613D01*
X87098145Y-101184236D01*
X87098144Y-101184239D01*
X87047681Y-101322885D01*
X87047680Y-101322890D01*
X87045271Y-101329508D01*
X87025012Y-101489877D01*
X81950825Y-101489877D01*
X81997192Y-101325470D01*
X82030542Y-101063314D01*
X82030901Y-101049631D01*
X82032903Y-100973160D01*
X82032986Y-100970000D01*
X82024224Y-100852100D01*
X82013747Y-100711110D01*
X82013746Y-100711106D01*
X82013401Y-100706458D01*
X81955078Y-100448705D01*
X81939554Y-100408785D01*
X81860990Y-100206758D01*
X81860989Y-100206756D01*
X81859297Y-100202405D01*
X81837837Y-100164857D01*
X81730481Y-99977025D01*
X81728162Y-99972967D01*
X81564555Y-99765432D01*
X81372069Y-99584360D01*
X81330413Y-99555462D01*
X81158776Y-99436392D01*
X81158773Y-99436390D01*
X81154934Y-99433727D01*
X81150744Y-99431661D01*
X81150741Y-99431659D01*
X80922106Y-99318909D01*
X80922103Y-99318908D01*
X80917918Y-99316844D01*
X80871196Y-99301888D01*
X80670675Y-99237701D01*
X80670677Y-99237701D01*
X80666230Y-99236278D01*
X80523544Y-99213040D01*
X80410009Y-99194550D01*
X80410008Y-99194550D01*
X80405397Y-99193799D01*
X80273274Y-99192070D01*
X80145828Y-99190401D01*
X80145825Y-99190401D01*
X80141151Y-99190340D01*
X79879296Y-99225977D01*
X79625585Y-99299927D01*
X79385591Y-99410565D01*
X79381682Y-99413128D01*
X79168500Y-99552896D01*
X79168495Y-99552900D01*
X79164587Y-99555462D01*
X78967427Y-99731434D01*
X78798443Y-99934615D01*
X78661348Y-100160541D01*
X78659539Y-100164855D01*
X78659538Y-100164857D01*
X78641968Y-100206758D01*
X78559152Y-100404250D01*
X78494102Y-100660388D01*
X78467625Y-100923327D01*
X70500000Y-100923327D01*
X70500000Y-90623327D01*
X78467625Y-90623327D01*
X78467849Y-90627993D01*
X78467849Y-90627999D01*
X78473965Y-90755309D01*
X78480304Y-90887291D01*
X78531860Y-91146482D01*
X78533439Y-91150880D01*
X78533441Y-91150887D01*
X78619578Y-91390797D01*
X78621161Y-91395206D01*
X78746245Y-91627998D01*
X78904363Y-91839744D01*
X78907672Y-91843024D01*
X78907677Y-91843030D01*
X79010274Y-91944735D01*
X79092043Y-92025793D01*
X79095805Y-92028551D01*
X79095808Y-92028554D01*
X79213603Y-92114925D01*
X79305161Y-92182058D01*
X79309292Y-92184232D01*
X79309293Y-92184232D01*
X79534901Y-92302930D01*
X79534907Y-92302932D01*
X79539036Y-92305105D01*
X79543443Y-92306644D01*
X79543450Y-92306647D01*
X79784113Y-92390690D01*
X79788529Y-92392232D01*
X79793122Y-92393104D01*
X79944999Y-92421939D01*
X80048160Y-92441525D01*
X80173677Y-92446457D01*
X80307557Y-92451717D01*
X80307562Y-92451717D01*
X80312225Y-92451900D01*
X80414912Y-92440654D01*
X80570270Y-92423640D01*
X80570275Y-92423639D01*
X80574923Y-92423130D01*
X80698138Y-92390690D01*
X80825960Y-92357037D01*
X80825962Y-92357036D01*
X80830483Y-92355846D01*
X80834780Y-92354000D01*
X81068997Y-92253373D01*
X81068999Y-92253372D01*
X81073291Y-92251528D01*
X81182040Y-92184232D01*
X81294040Y-92114925D01*
X81294044Y-92114922D01*
X81298013Y-92112466D01*
X81499711Y-91941716D01*
X81520883Y-91917574D01*
X81670874Y-91746543D01*
X81670878Y-91746538D01*
X81673956Y-91743028D01*
X81816919Y-91520767D01*
X81925459Y-91279817D01*
X81997192Y-91025470D01*
X82030542Y-90763314D01*
X82032986Y-90670000D01*
X82013401Y-90406458D01*
X81955078Y-90148705D01*
X81939554Y-90108785D01*
X81860990Y-89906758D01*
X81860989Y-89906756D01*
X81859297Y-89902405D01*
X81837837Y-89864857D01*
X81730481Y-89677025D01*
X81728162Y-89672967D01*
X81564555Y-89465432D01*
X81372069Y-89284360D01*
X81330413Y-89255462D01*
X81158776Y-89136392D01*
X81158773Y-89136390D01*
X81154934Y-89133727D01*
X81150744Y-89131661D01*
X81150741Y-89131659D01*
X80922106Y-89018909D01*
X80922103Y-89018908D01*
X80917918Y-89016844D01*
X80871196Y-89001888D01*
X80670675Y-88937701D01*
X80670677Y-88937701D01*
X80666230Y-88936278D01*
X80523544Y-88913040D01*
X80410009Y-88894550D01*
X80410008Y-88894550D01*
X80405397Y-88893799D01*
X80273274Y-88892070D01*
X80145828Y-88890401D01*
X80145825Y-88890401D01*
X80141151Y-88890340D01*
X79879296Y-88925977D01*
X79625585Y-88999927D01*
X79385591Y-89110565D01*
X79381682Y-89113128D01*
X79168500Y-89252896D01*
X79168495Y-89252900D01*
X79164587Y-89255462D01*
X78967427Y-89431434D01*
X78798443Y-89634615D01*
X78661348Y-89860541D01*
X78659539Y-89864855D01*
X78659538Y-89864857D01*
X78641968Y-89906758D01*
X78559152Y-90104250D01*
X78494102Y-90360388D01*
X78467625Y-90623327D01*
X70500000Y-90623327D01*
X70500000Y-80281427D01*
X78467625Y-80281427D01*
X78467849Y-80286093D01*
X78467849Y-80286099D01*
X78470026Y-80331423D01*
X78480304Y-80545391D01*
X78531860Y-80804582D01*
X78533439Y-80808980D01*
X78533441Y-80808987D01*
X78619578Y-81048897D01*
X78621161Y-81053306D01*
X78746245Y-81286098D01*
X78904363Y-81497844D01*
X78907672Y-81501124D01*
X78907677Y-81501130D01*
X79010274Y-81602835D01*
X79092043Y-81683893D01*
X79095805Y-81686651D01*
X79095808Y-81686654D01*
X79213603Y-81773025D01*
X79305161Y-81840158D01*
X79309292Y-81842332D01*
X79309293Y-81842332D01*
X79534901Y-81961030D01*
X79534907Y-81961032D01*
X79539036Y-81963205D01*
X79543443Y-81964744D01*
X79543450Y-81964747D01*
X79784113Y-82048790D01*
X79788529Y-82050332D01*
X79793122Y-82051204D01*
X79944999Y-82080039D01*
X80048160Y-82099625D01*
X80173677Y-82104557D01*
X80307557Y-82109817D01*
X80307562Y-82109817D01*
X80312225Y-82110000D01*
X80414912Y-82098754D01*
X80570270Y-82081740D01*
X80570275Y-82081739D01*
X80574923Y-82081230D01*
X80698138Y-82048790D01*
X80825960Y-82015137D01*
X80825962Y-82015136D01*
X80830483Y-82013946D01*
X80834780Y-82012100D01*
X81068997Y-81911473D01*
X81068999Y-81911472D01*
X81073291Y-81909628D01*
X81182040Y-81842332D01*
X81294040Y-81773025D01*
X81294044Y-81773022D01*
X81298013Y-81770566D01*
X81499711Y-81599816D01*
X81520883Y-81575674D01*
X81670874Y-81404643D01*
X81670878Y-81404638D01*
X81673956Y-81401128D01*
X81816919Y-81178867D01*
X81925459Y-80937917D01*
X81997192Y-80683570D01*
X82015365Y-80540719D01*
X82030144Y-80424544D01*
X82030144Y-80424540D01*
X82030542Y-80421414D01*
X82032986Y-80328100D01*
X82022493Y-80186897D01*
X82013747Y-80069210D01*
X82013746Y-80069206D01*
X82013401Y-80064558D01*
X81996503Y-79989877D01*
X89775012Y-79989877D01*
X89790785Y-80150748D01*
X89841808Y-80304128D01*
X89845455Y-80310150D01*
X89845456Y-80310152D01*
X89910928Y-80418258D01*
X89925543Y-80442391D01*
X90037830Y-80558668D01*
X90173087Y-80647177D01*
X90179687Y-80649632D01*
X90179688Y-80649632D01*
X90317990Y-80701067D01*
X90317992Y-80701068D01*
X90324592Y-80703522D01*
X90331570Y-80704453D01*
X90331574Y-80704454D01*
X90379806Y-80710889D01*
X90484816Y-80724900D01*
X90491827Y-80724262D01*
X90491831Y-80724262D01*
X90638772Y-80710889D01*
X90645793Y-80710250D01*
X90652495Y-80708072D01*
X90652497Y-80708072D01*
X90792825Y-80662476D01*
X90799525Y-80660299D01*
X90817419Y-80649632D01*
X90932318Y-80581139D01*
X90932320Y-80581138D01*
X90938370Y-80577531D01*
X91055427Y-80466059D01*
X91067788Y-80447455D01*
X91140978Y-80337294D01*
X91144879Y-80331423D01*
X91202280Y-80180315D01*
X91205496Y-80157433D01*
X91224225Y-80024169D01*
X91224226Y-80024162D01*
X91224776Y-80020245D01*
X91225059Y-80000000D01*
X91207041Y-79839364D01*
X91201303Y-79822885D01*
X91156200Y-79693369D01*
X91153882Y-79686712D01*
X91148197Y-79677613D01*
X91071957Y-79555605D01*
X91068224Y-79549631D01*
X91033477Y-79514640D01*
X90959287Y-79439931D01*
X90954325Y-79434934D01*
X90817845Y-79348321D01*
X90759089Y-79327399D01*
X90672203Y-79296460D01*
X90672198Y-79296459D01*
X90665568Y-79294098D01*
X90658582Y-79293265D01*
X90658578Y-79293264D01*
X90544624Y-79279676D01*
X90505062Y-79274959D01*
X90498059Y-79275695D01*
X90498058Y-79275695D01*
X90456808Y-79280031D01*
X90344304Y-79291855D01*
X90337636Y-79294125D01*
X90197952Y-79341677D01*
X90197949Y-79341678D01*
X90191285Y-79343947D01*
X90185290Y-79347635D01*
X90185286Y-79347637D01*
X90059610Y-79424954D01*
X90053609Y-79428646D01*
X90048576Y-79433575D01*
X89957302Y-79522957D01*
X89938120Y-79541741D01*
X89850556Y-79677613D01*
X89848145Y-79684236D01*
X89848144Y-79684239D01*
X89797681Y-79822885D01*
X89797680Y-79822890D01*
X89795271Y-79829508D01*
X89775012Y-79989877D01*
X81996503Y-79989877D01*
X81955078Y-79806805D01*
X81939554Y-79766885D01*
X81860990Y-79564858D01*
X81860989Y-79564856D01*
X81859297Y-79560505D01*
X81856497Y-79555605D01*
X81740183Y-79352100D01*
X81728162Y-79331067D01*
X81564555Y-79123532D01*
X81372069Y-78942460D01*
X81330413Y-78913562D01*
X81158776Y-78794492D01*
X81158773Y-78794490D01*
X81154934Y-78791827D01*
X81150744Y-78789761D01*
X81150741Y-78789759D01*
X80922106Y-78677009D01*
X80922103Y-78677008D01*
X80917918Y-78674944D01*
X80871196Y-78659988D01*
X80670675Y-78595801D01*
X80670677Y-78595801D01*
X80666230Y-78594378D01*
X80523544Y-78571140D01*
X80410009Y-78552650D01*
X80410008Y-78552650D01*
X80405397Y-78551899D01*
X80273274Y-78550169D01*
X80145828Y-78548501D01*
X80145825Y-78548501D01*
X80141151Y-78548440D01*
X79879296Y-78584077D01*
X79625585Y-78658027D01*
X79385591Y-78768665D01*
X79381682Y-78771228D01*
X79168500Y-78910996D01*
X79168495Y-78911000D01*
X79164587Y-78913562D01*
X78967427Y-79089534D01*
X78798443Y-79292715D01*
X78661348Y-79518641D01*
X78659539Y-79522955D01*
X78659538Y-79522957D01*
X78590870Y-79686712D01*
X78559152Y-79762350D01*
X78558001Y-79766882D01*
X78558000Y-79766885D01*
X78539593Y-79839364D01*
X78494102Y-80018488D01*
X78467625Y-80281427D01*
X70500000Y-80281427D01*
X70500000Y-75739877D01*
X90275012Y-75739877D01*
X90290785Y-75900748D01*
X90341808Y-76054128D01*
X90345455Y-76060150D01*
X90345456Y-76060152D01*
X90354349Y-76074835D01*
X90425543Y-76192391D01*
X90537830Y-76308668D01*
X90673087Y-76397177D01*
X90679687Y-76399632D01*
X90679688Y-76399632D01*
X90817990Y-76451067D01*
X90817992Y-76451068D01*
X90824592Y-76453522D01*
X90831570Y-76454453D01*
X90831574Y-76454454D01*
X90879806Y-76460889D01*
X90984816Y-76474900D01*
X90991827Y-76474262D01*
X90991831Y-76474262D01*
X91138772Y-76460889D01*
X91145793Y-76460250D01*
X91152495Y-76458072D01*
X91152497Y-76458072D01*
X91292825Y-76412476D01*
X91299525Y-76410299D01*
X91317419Y-76399632D01*
X91432318Y-76331139D01*
X91432320Y-76331138D01*
X91438370Y-76327531D01*
X91555427Y-76216059D01*
X91567788Y-76197455D01*
X91640978Y-76087294D01*
X91644879Y-76081423D01*
X91702280Y-75930315D01*
X91705496Y-75907433D01*
X91724225Y-75774169D01*
X91724226Y-75774162D01*
X91724776Y-75770245D01*
X91725059Y-75750000D01*
X91707041Y-75589364D01*
X91701303Y-75572885D01*
X91656200Y-75443369D01*
X91653882Y-75436712D01*
X91648197Y-75427613D01*
X91571957Y-75305605D01*
X91568224Y-75299631D01*
X91454325Y-75184934D01*
X91317845Y-75098321D01*
X91292658Y-75089352D01*
X91172203Y-75046460D01*
X91172198Y-75046459D01*
X91165568Y-75044098D01*
X91158582Y-75043265D01*
X91158578Y-75043264D01*
X91044624Y-75029676D01*
X91005062Y-75024959D01*
X90998059Y-75025695D01*
X90998058Y-75025695D01*
X90956808Y-75030031D01*
X90844304Y-75041855D01*
X90837636Y-75044125D01*
X90697952Y-75091677D01*
X90697949Y-75091678D01*
X90691285Y-75093947D01*
X90685290Y-75097635D01*
X90685286Y-75097637D01*
X90559610Y-75174954D01*
X90553609Y-75178646D01*
X90438120Y-75291741D01*
X90350556Y-75427613D01*
X90348145Y-75434236D01*
X90348144Y-75434239D01*
X90297681Y-75572885D01*
X90297680Y-75572890D01*
X90295271Y-75579508D01*
X90275012Y-75739877D01*
X70500000Y-75739877D01*
X70500000Y-71992927D01*
X86324612Y-71992927D01*
X86342420Y-72154234D01*
X86349951Y-72174813D01*
X86395580Y-72299501D01*
X86395582Y-72299505D01*
X86398192Y-72306637D01*
X86402429Y-72312943D01*
X86402431Y-72312946D01*
X86444130Y-72374999D01*
X86488707Y-72441337D01*
X86494325Y-72446449D01*
X86603118Y-72545444D01*
X86603122Y-72545447D01*
X86608739Y-72550558D01*
X86615412Y-72554181D01*
X86615416Y-72554184D01*
X86744686Y-72624371D01*
X86751359Y-72627994D01*
X86908334Y-72669176D01*
X86994250Y-72670526D01*
X87063004Y-72671606D01*
X87063007Y-72671606D01*
X87070601Y-72671725D01*
X87126392Y-72658947D01*
X87221389Y-72637190D01*
X87221393Y-72637189D01*
X87228792Y-72635494D01*
X87373774Y-72562576D01*
X87417322Y-72525383D01*
X87482109Y-72496353D01*
X87552309Y-72506958D01*
X87583951Y-72528003D01*
X87603118Y-72545444D01*
X87603122Y-72545447D01*
X87608739Y-72550558D01*
X87751359Y-72627994D01*
X87908334Y-72669176D01*
X87994250Y-72670526D01*
X88063004Y-72671606D01*
X88063007Y-72671606D01*
X88070601Y-72671725D01*
X88126392Y-72658947D01*
X88221389Y-72637190D01*
X88221393Y-72637189D01*
X88228792Y-72635494D01*
X88373774Y-72562576D01*
X88417320Y-72525384D01*
X88491404Y-72462111D01*
X88491406Y-72462108D01*
X88497178Y-72457179D01*
X88591879Y-72325388D01*
X88652410Y-72174813D01*
X88675277Y-72014145D01*
X88675425Y-72000000D01*
X88655928Y-71838889D01*
X88598564Y-71687078D01*
X88595463Y-71682566D01*
X88581807Y-71613820D01*
X88593352Y-71575980D01*
X88591879Y-71575388D01*
X88649577Y-71431861D01*
X88649578Y-71431859D01*
X88652410Y-71424813D01*
X88675277Y-71264145D01*
X88675425Y-71250000D01*
X88655928Y-71088889D01*
X88598564Y-70937078D01*
X88595463Y-70932566D01*
X88581807Y-70863820D01*
X88593352Y-70825980D01*
X88591879Y-70825388D01*
X88649577Y-70681861D01*
X88649578Y-70681859D01*
X88652410Y-70674813D01*
X88675277Y-70514145D01*
X88675425Y-70500000D01*
X88655928Y-70338889D01*
X88598564Y-70187078D01*
X88595463Y-70182566D01*
X88581807Y-70113820D01*
X88593352Y-70075980D01*
X88591879Y-70075388D01*
X88649577Y-69931861D01*
X88649578Y-69931859D01*
X88652410Y-69924813D01*
X88675277Y-69764145D01*
X88675425Y-69750000D01*
X88655928Y-69588889D01*
X88598564Y-69437078D01*
X88595463Y-69432566D01*
X88581807Y-69363820D01*
X88593352Y-69325980D01*
X88591879Y-69325388D01*
X88649577Y-69181861D01*
X88649578Y-69181859D01*
X88652410Y-69174813D01*
X88675277Y-69014145D01*
X88675425Y-69000000D01*
X88655928Y-68838889D01*
X88598564Y-68687078D01*
X88506644Y-68553333D01*
X88499403Y-68546881D01*
X88450786Y-68503566D01*
X88385474Y-68445375D01*
X88242051Y-68369436D01*
X88232098Y-68366936D01*
X88092024Y-68331752D01*
X88092021Y-68331752D01*
X88084653Y-68329901D01*
X88077054Y-68329861D01*
X88077052Y-68329861D01*
X88010042Y-68329510D01*
X87922369Y-68329051D01*
X87914989Y-68330823D01*
X87914987Y-68330823D01*
X87771945Y-68365164D01*
X87771941Y-68365165D01*
X87764566Y-68366936D01*
X87620355Y-68441369D01*
X87584112Y-68472986D01*
X87583112Y-68473858D01*
X87518630Y-68503566D01*
X87448323Y-68493696D01*
X87416464Y-68472986D01*
X87391145Y-68450428D01*
X87385474Y-68445375D01*
X87242051Y-68369436D01*
X87232098Y-68366936D01*
X87092024Y-68331752D01*
X87092021Y-68331752D01*
X87084653Y-68329901D01*
X87077054Y-68329861D01*
X87077052Y-68329861D01*
X87010042Y-68329510D01*
X86922369Y-68329051D01*
X86914989Y-68330823D01*
X86914987Y-68330823D01*
X86771945Y-68365164D01*
X86771941Y-68365165D01*
X86764566Y-68366936D01*
X86620355Y-68441369D01*
X86614633Y-68446361D01*
X86614631Y-68446362D01*
X86503788Y-68543056D01*
X86498061Y-68548052D01*
X86404746Y-68680827D01*
X86345795Y-68832029D01*
X86324612Y-68992927D01*
X86342420Y-69154234D01*
X86398192Y-69306637D01*
X86402428Y-69312941D01*
X86404955Y-69317900D01*
X86418060Y-69387677D01*
X86405017Y-69430441D01*
X86404746Y-69430827D01*
X86401989Y-69437898D01*
X86401987Y-69437902D01*
X86348553Y-69574955D01*
X86345795Y-69582029D01*
X86324612Y-69742927D01*
X86342420Y-69904234D01*
X86398192Y-70056637D01*
X86402428Y-70062941D01*
X86404955Y-70067900D01*
X86418060Y-70137677D01*
X86405017Y-70180441D01*
X86404746Y-70180827D01*
X86401989Y-70187898D01*
X86401987Y-70187902D01*
X86348553Y-70324955D01*
X86345795Y-70332029D01*
X86324612Y-70492927D01*
X86342420Y-70654234D01*
X86398192Y-70806637D01*
X86402428Y-70812941D01*
X86404955Y-70817900D01*
X86418060Y-70887677D01*
X86405017Y-70930441D01*
X86404746Y-70930827D01*
X86401989Y-70937898D01*
X86401987Y-70937902D01*
X86348553Y-71074955D01*
X86345795Y-71082029D01*
X86324612Y-71242927D01*
X86342420Y-71404234D01*
X86398192Y-71556637D01*
X86402428Y-71562941D01*
X86404955Y-71567900D01*
X86418060Y-71637677D01*
X86405017Y-71680441D01*
X86404746Y-71680827D01*
X86401989Y-71687898D01*
X86401987Y-71687902D01*
X86348553Y-71824955D01*
X86345795Y-71832029D01*
X86324612Y-71992927D01*
X70500000Y-71992927D01*
X70500000Y-65626000D01*
X70520002Y-65557879D01*
X70573658Y-65511386D01*
X70626000Y-65500000D01*
X92124000Y-65500000D01*
X92192121Y-65520002D01*
G37*
%TD.AperFunction*%
M02*
