%TF.GenerationSoftware,KiCad,Pcbnew,6.0.4-6f826c9f35~116~ubuntu18.04.1*%
%TF.CreationDate,2022-05-26T20:07:41+01:00*%
%TF.ProjectId,cosmic_ray_detector,636f736d-6963-45f7-9261-795f64657465,1*%
%TF.SameCoordinates,Original*%
%TF.FileFunction,Legend,Top*%
%TF.FilePolarity,Positive*%
%FSLAX46Y46*%
G04 Gerber Fmt 4.6, Leading zero omitted, Abs format (unit mm)*
G04 Created by KiCad (PCBNEW 6.0.4-6f826c9f35~116~ubuntu18.04.1) date 2022-05-26 20:07:41*
%MOMM*%
%LPD*%
G01*
G04 APERTURE LIST*
G04 Aperture macros list*
%AMRoundRect*
0 Rectangle with rounded corners*
0 $1 Rounding radius*
0 $2 $3 $4 $5 $6 $7 $8 $9 X,Y pos of 4 corners*
0 Add a 4 corners polygon primitive as box body*
4,1,4,$2,$3,$4,$5,$6,$7,$8,$9,$2,$3,0*
0 Add four circle primitives for the rounded corners*
1,1,$1+$1,$2,$3*
1,1,$1+$1,$4,$5*
1,1,$1+$1,$6,$7*
1,1,$1+$1,$8,$9*
0 Add four rect primitives between the rounded corners*
20,1,$1+$1,$2,$3,$4,$5,0*
20,1,$1+$1,$4,$5,$6,$7,0*
20,1,$1+$1,$6,$7,$8,$9,0*
20,1,$1+$1,$8,$9,$2,$3,0*%
G04 Aperture macros list end*
%ADD10C,0.100000*%
%ADD11C,0.150000*%
%ADD12C,0.254000*%
%ADD13C,0.200000*%
%ADD14C,0.120000*%
%ADD15C,0.127000*%
%ADD16RoundRect,0.125000X1.725000X-0.925000X1.725000X0.925000X-1.725000X0.925000X-1.725000X-0.925000X0*%
%ADD17RoundRect,0.265000X0.170000X-0.140000X0.170000X0.140000X-0.170000X0.140000X-0.170000X-0.140000X0*%
%ADD18RoundRect,0.265000X-0.170000X0.140000X-0.170000X-0.140000X0.170000X-0.140000X0.170000X0.140000X0*%
%ADD19RoundRect,0.265000X0.140000X0.170000X-0.140000X0.170000X-0.140000X-0.170000X0.140000X-0.170000X0*%
%ADD20RoundRect,0.260000X0.185000X-0.135000X0.185000X0.135000X-0.185000X0.135000X-0.185000X-0.135000X0*%
%ADD21RoundRect,0.260000X-0.185000X0.135000X-0.185000X-0.135000X0.185000X-0.135000X0.185000X0.135000X0*%
%ADD22RoundRect,0.260000X0.135000X0.185000X-0.135000X0.185000X-0.135000X-0.185000X0.135000X-0.185000X0*%
%ADD23RoundRect,0.260000X-0.135000X-0.185000X0.135000X-0.185000X0.135000X0.185000X-0.135000X0.185000X0*%
%ADD24RoundRect,0.125000X-0.600000X0.450000X-0.600000X-0.450000X0.600000X-0.450000X0.600000X0.450000X0*%
%ADD25RoundRect,0.125000X-0.606399X1.254099X-0.606399X-1.254099X0.606399X-1.254099X0.606399X1.254099X0*%
%ADD26RoundRect,0.375000X0.425000X-0.450000X0.425000X0.450000X-0.425000X0.450000X-0.425000X-0.450000X0*%
%ADD27RoundRect,0.375000X-0.450000X-0.425000X0.450000X-0.425000X0.450000X0.425000X-0.450000X0.425000X0*%
%ADD28C,3.450000*%
%ADD29RoundRect,0.125000X1.254099X0.606399X-1.254099X0.606399X-1.254099X-0.606399X1.254099X-0.606399X0*%
%ADD30RoundRect,0.125000X0.725000X-0.150000X0.725000X0.150000X-0.725000X0.150000X-0.725000X-0.150000X0*%
%ADD31RoundRect,0.125000X-0.925000X-1.725000X0.925000X-1.725000X0.925000X1.725000X-0.925000X1.725000X0*%
%ADD32RoundRect,0.125000X-0.300000X-0.600000X0.300000X-0.600000X0.300000X0.600000X-0.300000X0.600000X0*%
%ADD33C,3.205000*%
%ADD34RoundRect,0.375000X-0.850000X0.375000X-0.850000X-0.375000X0.850000X-0.375000X0.850000X0.375000X0*%
%ADD35RoundRect,0.125000X0.875000X0.900000X-0.875000X0.900000X-0.875000X-0.900000X0.875000X-0.900000X0*%
%ADD36C,1.790000*%
%ADD37C,3.415000*%
%ADD38RoundRect,0.275000X-0.725000X-0.150000X0.725000X-0.150000X0.725000X0.150000X-0.725000X0.150000X0*%
%ADD39RoundRect,0.225000X0.612500X0.100000X-0.612500X0.100000X-0.612500X-0.100000X0.612500X-0.100000X0*%
%ADD40RoundRect,0.125000X0.865000X0.925000X-0.865000X0.925000X-0.865000X-0.925000X0.865000X-0.925000X0*%
%ADD41RoundRect,0.125000X0.635000X1.460000X-0.635000X1.460000X-0.635000X-1.460000X0.635000X-1.460000X0*%
%ADD42RoundRect,0.125000X1.715000X-0.825000X1.715000X0.825000X-1.715000X0.825000X-1.715000X-0.825000X0*%
%ADD43RoundRect,0.125000X-0.500000X-0.500000X0.500000X-0.500000X0.500000X0.500000X-0.500000X0.500000X0*%
%ADD44O,1.250000X1.250000*%
%ADD45RoundRect,0.375000X0.375000X0.850000X-0.375000X0.850000X-0.375000X-0.850000X0.375000X-0.850000X0*%
%ADD46RoundRect,0.375000X1.100000X-0.325000X1.100000X0.325000X-1.100000X0.325000X-1.100000X-0.325000X0*%
G04 APERTURE END LIST*
D10*
X97972857Y-113660000D02*
X97915714Y-113631428D01*
X97830000Y-113631428D01*
X97744285Y-113660000D01*
X97687142Y-113717142D01*
X97658571Y-113774285D01*
X97630000Y-113888571D01*
X97630000Y-113974285D01*
X97658571Y-114088571D01*
X97687142Y-114145714D01*
X97744285Y-114202857D01*
X97830000Y-114231428D01*
X97887142Y-114231428D01*
X97972857Y-114202857D01*
X98001428Y-114174285D01*
X98001428Y-113974285D01*
X97887142Y-113974285D01*
X98258571Y-114231428D02*
X98258571Y-113631428D01*
X98601428Y-114231428D01*
X98601428Y-113631428D01*
X98887142Y-114231428D02*
X98887142Y-113631428D01*
X99030000Y-113631428D01*
X99115714Y-113660000D01*
X99172857Y-113717142D01*
X99201428Y-113774285D01*
X99230000Y-113888571D01*
X99230000Y-113974285D01*
X99201428Y-114088571D01*
X99172857Y-114145714D01*
X99115714Y-114202857D01*
X99030000Y-114231428D01*
X98887142Y-114231428D01*
X98105714Y-94004285D02*
X98077142Y-94032857D01*
X97991428Y-94061428D01*
X97934285Y-94061428D01*
X97848571Y-94032857D01*
X97791428Y-93975714D01*
X97762857Y-93918571D01*
X97734285Y-93804285D01*
X97734285Y-93718571D01*
X97762857Y-93604285D01*
X97791428Y-93547142D01*
X97848571Y-93490000D01*
X97934285Y-93461428D01*
X97991428Y-93461428D01*
X98077142Y-93490000D01*
X98105714Y-93518571D01*
X98334285Y-94032857D02*
X98420000Y-94061428D01*
X98562857Y-94061428D01*
X98620000Y-94032857D01*
X98648571Y-94004285D01*
X98677142Y-93947142D01*
X98677142Y-93890000D01*
X98648571Y-93832857D01*
X98620000Y-93804285D01*
X98562857Y-93775714D01*
X98448571Y-93747142D01*
X98391428Y-93718571D01*
X98362857Y-93690000D01*
X98334285Y-93632857D01*
X98334285Y-93575714D01*
X98362857Y-93518571D01*
X98391428Y-93490000D01*
X98448571Y-93461428D01*
X98591428Y-93461428D01*
X98677142Y-93490000D01*
X98905714Y-93890000D02*
X99191428Y-93890000D01*
X98848571Y-94061428D02*
X99048571Y-93461428D01*
X99248571Y-94061428D01*
X99905714Y-94061428D02*
X99905714Y-93461428D01*
X100191428Y-93661428D02*
X100191428Y-94061428D01*
X100191428Y-93718571D02*
X100220000Y-93690000D01*
X100277142Y-93661428D01*
X100362857Y-93661428D01*
X100420000Y-93690000D01*
X100448571Y-93747142D01*
X100448571Y-94061428D01*
X100734285Y-93661428D02*
X100734285Y-94261428D01*
X100734285Y-93690000D02*
X100791428Y-93661428D01*
X100905714Y-93661428D01*
X100962857Y-93690000D01*
X100991428Y-93718571D01*
X101020000Y-93775714D01*
X101020000Y-93947142D01*
X100991428Y-94004285D01*
X100962857Y-94032857D01*
X100905714Y-94061428D01*
X100791428Y-94061428D01*
X100734285Y-94032857D01*
X101534285Y-93661428D02*
X101534285Y-94061428D01*
X101277142Y-93661428D02*
X101277142Y-93975714D01*
X101305714Y-94032857D01*
X101362857Y-94061428D01*
X101448571Y-94061428D01*
X101505714Y-94032857D01*
X101534285Y-94004285D01*
X101734285Y-93661428D02*
X101962857Y-93661428D01*
X101820000Y-93461428D02*
X101820000Y-93975714D01*
X101848571Y-94032857D01*
X101905714Y-94061428D01*
X101962857Y-94061428D01*
X110922857Y-107514285D02*
X110894285Y-107542857D01*
X110808571Y-107571428D01*
X110751428Y-107571428D01*
X110665714Y-107542857D01*
X110608571Y-107485714D01*
X110580000Y-107428571D01*
X110551428Y-107314285D01*
X110551428Y-107228571D01*
X110580000Y-107114285D01*
X110608571Y-107057142D01*
X110665714Y-107000000D01*
X110751428Y-106971428D01*
X110808571Y-106971428D01*
X110894285Y-107000000D01*
X110922857Y-107028571D01*
X111151428Y-107542857D02*
X111237142Y-107571428D01*
X111380000Y-107571428D01*
X111437142Y-107542857D01*
X111465714Y-107514285D01*
X111494285Y-107457142D01*
X111494285Y-107400000D01*
X111465714Y-107342857D01*
X111437142Y-107314285D01*
X111380000Y-107285714D01*
X111265714Y-107257142D01*
X111208571Y-107228571D01*
X111180000Y-107200000D01*
X111151428Y-107142857D01*
X111151428Y-107085714D01*
X111180000Y-107028571D01*
X111208571Y-107000000D01*
X111265714Y-106971428D01*
X111408571Y-106971428D01*
X111494285Y-107000000D01*
X111722857Y-107400000D02*
X112008571Y-107400000D01*
X111665714Y-107571428D02*
X111865714Y-106971428D01*
X112065714Y-107571428D01*
X112837142Y-106971428D02*
X112951428Y-106971428D01*
X113008571Y-107000000D01*
X113065714Y-107057142D01*
X113094285Y-107171428D01*
X113094285Y-107371428D01*
X113065714Y-107485714D01*
X113008571Y-107542857D01*
X112951428Y-107571428D01*
X112837142Y-107571428D01*
X112780000Y-107542857D01*
X112722857Y-107485714D01*
X112694285Y-107371428D01*
X112694285Y-107171428D01*
X112722857Y-107057142D01*
X112780000Y-107000000D01*
X112837142Y-106971428D01*
X113608571Y-107171428D02*
X113608571Y-107571428D01*
X113351428Y-107171428D02*
X113351428Y-107485714D01*
X113380000Y-107542857D01*
X113437142Y-107571428D01*
X113522857Y-107571428D01*
X113580000Y-107542857D01*
X113608571Y-107514285D01*
X113808571Y-107171428D02*
X114037142Y-107171428D01*
X113894285Y-106971428D02*
X113894285Y-107485714D01*
X113922857Y-107542857D01*
X113980000Y-107571428D01*
X114037142Y-107571428D01*
X114237142Y-107171428D02*
X114237142Y-107771428D01*
X114237142Y-107200000D02*
X114294285Y-107171428D01*
X114408571Y-107171428D01*
X114465714Y-107200000D01*
X114494285Y-107228571D01*
X114522857Y-107285714D01*
X114522857Y-107457142D01*
X114494285Y-107514285D01*
X114465714Y-107542857D01*
X114408571Y-107571428D01*
X114294285Y-107571428D01*
X114237142Y-107542857D01*
X115037142Y-107171428D02*
X115037142Y-107571428D01*
X114780000Y-107171428D02*
X114780000Y-107485714D01*
X114808571Y-107542857D01*
X114865714Y-107571428D01*
X114951428Y-107571428D01*
X115008571Y-107542857D01*
X115037142Y-107514285D01*
X115237142Y-107171428D02*
X115465714Y-107171428D01*
X115322857Y-106971428D02*
X115322857Y-107485714D01*
X115351428Y-107542857D01*
X115408571Y-107571428D01*
X115465714Y-107571428D01*
X119415714Y-100264285D02*
X119387142Y-100292857D01*
X119301428Y-100321428D01*
X119244285Y-100321428D01*
X119158571Y-100292857D01*
X119101428Y-100235714D01*
X119072857Y-100178571D01*
X119044285Y-100064285D01*
X119044285Y-99978571D01*
X119072857Y-99864285D01*
X119101428Y-99807142D01*
X119158571Y-99750000D01*
X119244285Y-99721428D01*
X119301428Y-99721428D01*
X119387142Y-99750000D01*
X119415714Y-99778571D01*
X120015714Y-100321428D02*
X119815714Y-100035714D01*
X119672857Y-100321428D02*
X119672857Y-99721428D01*
X119901428Y-99721428D01*
X119958571Y-99750000D01*
X119987142Y-99778571D01*
X120015714Y-99835714D01*
X120015714Y-99921428D01*
X119987142Y-99978571D01*
X119958571Y-100007142D01*
X119901428Y-100035714D01*
X119672857Y-100035714D01*
X120615714Y-100321428D02*
X120415714Y-100035714D01*
X120272857Y-100321428D02*
X120272857Y-99721428D01*
X120501428Y-99721428D01*
X120558571Y-99750000D01*
X120587142Y-99778571D01*
X120615714Y-99835714D01*
X120615714Y-99921428D01*
X120587142Y-99978571D01*
X120558571Y-100007142D01*
X120501428Y-100035714D01*
X120272857Y-100035714D01*
X121215714Y-100264285D02*
X121187142Y-100292857D01*
X121101428Y-100321428D01*
X121044285Y-100321428D01*
X120958571Y-100292857D01*
X120901428Y-100235714D01*
X120872857Y-100178571D01*
X120844285Y-100064285D01*
X120844285Y-99978571D01*
X120872857Y-99864285D01*
X120901428Y-99807142D01*
X120958571Y-99750000D01*
X121044285Y-99721428D01*
X121101428Y-99721428D01*
X121187142Y-99750000D01*
X121215714Y-99778571D01*
X122044285Y-99721428D02*
X122158571Y-99721428D01*
X122215714Y-99750000D01*
X122272857Y-99807142D01*
X122301428Y-99921428D01*
X122301428Y-100121428D01*
X122272857Y-100235714D01*
X122215714Y-100292857D01*
X122158571Y-100321428D01*
X122044285Y-100321428D01*
X121987142Y-100292857D01*
X121930000Y-100235714D01*
X121901428Y-100121428D01*
X121901428Y-99921428D01*
X121930000Y-99807142D01*
X121987142Y-99750000D01*
X122044285Y-99721428D01*
X122815714Y-99921428D02*
X122815714Y-100321428D01*
X122558571Y-99921428D02*
X122558571Y-100235714D01*
X122587142Y-100292857D01*
X122644285Y-100321428D01*
X122730000Y-100321428D01*
X122787142Y-100292857D01*
X122815714Y-100264285D01*
X123015714Y-99921428D02*
X123244285Y-99921428D01*
X123101428Y-99721428D02*
X123101428Y-100235714D01*
X123130000Y-100292857D01*
X123187142Y-100321428D01*
X123244285Y-100321428D01*
X123444285Y-99921428D02*
X123444285Y-100521428D01*
X123444285Y-99950000D02*
X123501428Y-99921428D01*
X123615714Y-99921428D01*
X123672857Y-99950000D01*
X123701428Y-99978571D01*
X123730000Y-100035714D01*
X123730000Y-100207142D01*
X123701428Y-100264285D01*
X123672857Y-100292857D01*
X123615714Y-100321428D01*
X123501428Y-100321428D01*
X123444285Y-100292857D01*
X124244285Y-99921428D02*
X124244285Y-100321428D01*
X123987142Y-99921428D02*
X123987142Y-100235714D01*
X124015714Y-100292857D01*
X124072857Y-100321428D01*
X124158571Y-100321428D01*
X124215714Y-100292857D01*
X124244285Y-100264285D01*
X124444285Y-99921428D02*
X124672857Y-99921428D01*
X124530000Y-99721428D02*
X124530000Y-100235714D01*
X124558571Y-100292857D01*
X124615714Y-100321428D01*
X124672857Y-100321428D01*
X133635714Y-81070000D02*
X133578571Y-81041428D01*
X133492857Y-81041428D01*
X133407142Y-81070000D01*
X133349999Y-81127142D01*
X133321428Y-81184285D01*
X133292857Y-81298571D01*
X133292857Y-81384285D01*
X133321428Y-81498571D01*
X133349999Y-81555714D01*
X133407142Y-81612857D01*
X133492857Y-81641428D01*
X133549999Y-81641428D01*
X133635714Y-81612857D01*
X133664285Y-81584285D01*
X133664285Y-81384285D01*
X133549999Y-81384285D01*
X133921428Y-81641428D02*
X133921428Y-81041428D01*
X134264285Y-81641428D01*
X134264285Y-81041428D01*
X134549999Y-81641428D02*
X134549999Y-81041428D01*
X134692857Y-81041428D01*
X134778571Y-81070000D01*
X134835714Y-81127142D01*
X134864285Y-81184285D01*
X134892857Y-81298571D01*
X134892857Y-81384285D01*
X134864285Y-81498571D01*
X134835714Y-81555714D01*
X134778571Y-81612857D01*
X134692857Y-81641428D01*
X134549999Y-81641428D01*
X133321428Y-80342857D02*
X133407143Y-80371428D01*
X133550000Y-80371428D01*
X133607143Y-80342857D01*
X133635714Y-80314285D01*
X133664285Y-80257142D01*
X133664285Y-80200000D01*
X133635714Y-80142857D01*
X133607143Y-80114285D01*
X133550000Y-80085714D01*
X133435714Y-80057142D01*
X133378571Y-80028571D01*
X133350000Y-80000000D01*
X133321428Y-79942857D01*
X133321428Y-79885714D01*
X133350000Y-79828571D01*
X133378571Y-79800000D01*
X133435714Y-79771428D01*
X133578571Y-79771428D01*
X133664285Y-79800000D01*
X133921428Y-80371428D02*
X133921428Y-79771428D01*
X134064285Y-79771428D01*
X134150000Y-79800000D01*
X134207143Y-79857142D01*
X134235714Y-79914285D01*
X134264285Y-80028571D01*
X134264285Y-80114285D01*
X134235714Y-80228571D01*
X134207143Y-80285714D01*
X134150000Y-80342857D01*
X134064285Y-80371428D01*
X133921428Y-80371428D01*
X134635714Y-79771428D02*
X134750000Y-79771428D01*
X134807143Y-79800000D01*
X134864285Y-79857142D01*
X134892857Y-79971428D01*
X134892857Y-80171428D01*
X134864285Y-80285714D01*
X134807143Y-80342857D01*
X134750000Y-80371428D01*
X134635714Y-80371428D01*
X134578571Y-80342857D01*
X134521428Y-80285714D01*
X134492857Y-80171428D01*
X134492857Y-79971428D01*
X134521428Y-79857142D01*
X134578571Y-79800000D01*
X134635714Y-79771428D01*
X133664285Y-79082857D02*
X133749999Y-79111428D01*
X133892856Y-79111428D01*
X133949999Y-79082857D01*
X133978571Y-79054285D01*
X134007142Y-78997142D01*
X134007142Y-78940000D01*
X133978571Y-78882857D01*
X133949999Y-78854285D01*
X133892856Y-78825714D01*
X133778571Y-78797142D01*
X133721428Y-78768571D01*
X133692856Y-78740000D01*
X133664285Y-78682857D01*
X133664285Y-78625714D01*
X133692856Y-78568571D01*
X133721428Y-78540000D01*
X133778571Y-78511428D01*
X133921428Y-78511428D01*
X134007142Y-78540000D01*
X134264285Y-79111428D02*
X134264285Y-78511428D01*
X134407142Y-78511428D01*
X134492856Y-78540000D01*
X134549999Y-78597142D01*
X134578571Y-78654285D01*
X134607142Y-78768571D01*
X134607142Y-78854285D01*
X134578571Y-78968571D01*
X134549999Y-79025714D01*
X134492856Y-79082857D01*
X134407142Y-79111428D01*
X134264285Y-79111428D01*
X134864285Y-79111428D02*
X134864285Y-78511428D01*
X133349999Y-77692857D02*
X133435713Y-77721428D01*
X133578570Y-77721428D01*
X133635713Y-77692857D01*
X133664285Y-77664285D01*
X133692856Y-77607142D01*
X133692856Y-77550000D01*
X133664285Y-77492857D01*
X133635713Y-77464285D01*
X133578570Y-77435714D01*
X133464285Y-77407142D01*
X133407142Y-77378571D01*
X133378570Y-77350000D01*
X133349999Y-77292857D01*
X133349999Y-77235714D01*
X133378570Y-77178571D01*
X133407142Y-77150000D01*
X133464285Y-77121428D01*
X133607142Y-77121428D01*
X133692856Y-77150000D01*
X134292856Y-77664285D02*
X134264285Y-77692857D01*
X134178570Y-77721428D01*
X134121428Y-77721428D01*
X134035713Y-77692857D01*
X133978570Y-77635714D01*
X133949999Y-77578571D01*
X133921428Y-77464285D01*
X133921428Y-77378571D01*
X133949999Y-77264285D01*
X133978570Y-77207142D01*
X134035713Y-77150000D01*
X134121428Y-77121428D01*
X134178570Y-77121428D01*
X134264285Y-77150000D01*
X134292856Y-77178571D01*
X134549999Y-77721428D02*
X134549999Y-77121428D01*
X134892856Y-77721428D02*
X134635713Y-77378571D01*
X134892856Y-77121428D02*
X134549999Y-77464285D01*
X132692857Y-75722000D02*
X133264285Y-75722000D01*
X132807142Y-76462857D02*
X132892857Y-76491428D01*
X133035714Y-76491428D01*
X133092857Y-76462857D01*
X133121428Y-76434285D01*
X133150000Y-76377142D01*
X133150000Y-76320000D01*
X133121428Y-76262857D01*
X133092857Y-76234285D01*
X133035714Y-76205714D01*
X132921428Y-76177142D01*
X132864285Y-76148571D01*
X132835714Y-76120000D01*
X132807142Y-76062857D01*
X132807142Y-76005714D01*
X132835714Y-75948571D01*
X132864285Y-75920000D01*
X132921428Y-75891428D01*
X133064285Y-75891428D01*
X133150000Y-75920000D01*
X133264285Y-75722000D02*
X133778571Y-75722000D01*
X133521428Y-76205714D02*
X133521428Y-76491428D01*
X133321428Y-75891428D02*
X133521428Y-76205714D01*
X133721428Y-75891428D01*
X133778571Y-75722000D02*
X134407142Y-75722000D01*
X133921428Y-76491428D02*
X133921428Y-75891428D01*
X134264285Y-76491428D01*
X134264285Y-75891428D01*
X134407142Y-75722000D02*
X135007142Y-75722000D01*
X134892857Y-76434285D02*
X134864285Y-76462857D01*
X134778571Y-76491428D01*
X134721428Y-76491428D01*
X134635714Y-76462857D01*
X134578571Y-76405714D01*
X134550000Y-76348571D01*
X134521428Y-76234285D01*
X134521428Y-76148571D01*
X134550000Y-76034285D01*
X134578571Y-75977142D01*
X134635714Y-75920000D01*
X134721428Y-75891428D01*
X134778571Y-75891428D01*
X134864285Y-75920000D01*
X134892857Y-75948571D01*
X132030000Y-74572857D02*
X132115714Y-74601428D01*
X132258571Y-74601428D01*
X132315714Y-74572857D01*
X132344285Y-74544285D01*
X132372857Y-74487142D01*
X132372857Y-74430000D01*
X132344285Y-74372857D01*
X132315714Y-74344285D01*
X132258571Y-74315714D01*
X132144285Y-74287142D01*
X132087142Y-74258571D01*
X132058571Y-74230000D01*
X132030000Y-74172857D01*
X132030000Y-74115714D01*
X132058571Y-74058571D01*
X132087142Y-74030000D01*
X132144285Y-74001428D01*
X132287142Y-74001428D01*
X132372857Y-74030000D01*
X132630000Y-74601428D02*
X132630000Y-74001428D01*
X132858571Y-74001428D01*
X132915714Y-74030000D01*
X132944285Y-74058571D01*
X132972857Y-74115714D01*
X132972857Y-74201428D01*
X132944285Y-74258571D01*
X132915714Y-74287142D01*
X132858571Y-74315714D01*
X132630000Y-74315714D01*
X133230000Y-74601428D02*
X133230000Y-74001428D01*
X133372857Y-74658571D02*
X133830000Y-74658571D01*
X133972857Y-74601428D02*
X133972857Y-74001428D01*
X134258571Y-74601428D02*
X134258571Y-74001428D01*
X134601428Y-74601428D01*
X134601428Y-74001428D01*
X131300000Y-103451428D02*
X131300000Y-102851428D01*
X131442857Y-102851428D01*
X131528571Y-102880000D01*
X131585714Y-102937142D01*
X131614285Y-102994285D01*
X131642857Y-103108571D01*
X131642857Y-103194285D01*
X131614285Y-103308571D01*
X131585714Y-103365714D01*
X131528571Y-103422857D01*
X131442857Y-103451428D01*
X131300000Y-103451428D01*
X131900000Y-103451428D02*
X131900000Y-103051428D01*
X131900000Y-102851428D02*
X131871428Y-102880000D01*
X131900000Y-102908571D01*
X131928571Y-102880000D01*
X131900000Y-102851428D01*
X131900000Y-102908571D01*
X132442857Y-103051428D02*
X132442857Y-103537142D01*
X132414285Y-103594285D01*
X132385714Y-103622857D01*
X132328571Y-103651428D01*
X132242857Y-103651428D01*
X132185714Y-103622857D01*
X132442857Y-103422857D02*
X132385714Y-103451428D01*
X132271428Y-103451428D01*
X132214285Y-103422857D01*
X132185714Y-103394285D01*
X132157142Y-103337142D01*
X132157142Y-103165714D01*
X132185714Y-103108571D01*
X132214285Y-103080000D01*
X132271428Y-103051428D01*
X132385714Y-103051428D01*
X132442857Y-103080000D01*
X132728571Y-103451428D02*
X132728571Y-103051428D01*
X132728571Y-102851428D02*
X132700000Y-102880000D01*
X132728571Y-102908571D01*
X132757142Y-102880000D01*
X132728571Y-102851428D01*
X132728571Y-102908571D01*
X132928571Y-103051428D02*
X133157142Y-103051428D01*
X133014285Y-102851428D02*
X133014285Y-103365714D01*
X133042857Y-103422857D01*
X133100000Y-103451428D01*
X133157142Y-103451428D01*
X133614285Y-103451428D02*
X133614285Y-103137142D01*
X133585714Y-103080000D01*
X133528571Y-103051428D01*
X133414285Y-103051428D01*
X133357142Y-103080000D01*
X133614285Y-103422857D02*
X133557142Y-103451428D01*
X133414285Y-103451428D01*
X133357142Y-103422857D01*
X133328571Y-103365714D01*
X133328571Y-103308571D01*
X133357142Y-103251428D01*
X133414285Y-103222857D01*
X133557142Y-103222857D01*
X133614285Y-103194285D01*
X133985714Y-103451428D02*
X133928571Y-103422857D01*
X133900000Y-103365714D01*
X133900000Y-102851428D01*
X134785714Y-102851428D02*
X134900000Y-102851428D01*
X134957142Y-102880000D01*
X135014285Y-102937142D01*
X135042857Y-103051428D01*
X135042857Y-103251428D01*
X135014285Y-103365714D01*
X134957142Y-103422857D01*
X134900000Y-103451428D01*
X134785714Y-103451428D01*
X134728571Y-103422857D01*
X134671428Y-103365714D01*
X134642857Y-103251428D01*
X134642857Y-103051428D01*
X134671428Y-102937142D01*
X134728571Y-102880000D01*
X134785714Y-102851428D01*
X135557142Y-103051428D02*
X135557142Y-103451428D01*
X135300000Y-103051428D02*
X135300000Y-103365714D01*
X135328571Y-103422857D01*
X135385714Y-103451428D01*
X135471428Y-103451428D01*
X135528571Y-103422857D01*
X135557142Y-103394285D01*
X135757142Y-103051428D02*
X135985714Y-103051428D01*
X135842857Y-102851428D02*
X135842857Y-103365714D01*
X135871428Y-103422857D01*
X135928571Y-103451428D01*
X135985714Y-103451428D01*
X112807142Y-116128285D02*
X112778571Y-116156857D01*
X112692857Y-116185428D01*
X112635714Y-116185428D01*
X112550000Y-116156857D01*
X112492857Y-116099714D01*
X112464285Y-116042571D01*
X112435714Y-115928285D01*
X112435714Y-115842571D01*
X112464285Y-115728285D01*
X112492857Y-115671142D01*
X112550000Y-115614000D01*
X112635714Y-115585428D01*
X112692857Y-115585428D01*
X112778571Y-115614000D01*
X112807142Y-115642571D01*
X113150000Y-116185428D02*
X113092857Y-116156857D01*
X113064285Y-116128285D01*
X113035714Y-116071142D01*
X113035714Y-115899714D01*
X113064285Y-115842571D01*
X113092857Y-115814000D01*
X113150000Y-115785428D01*
X113235714Y-115785428D01*
X113292857Y-115814000D01*
X113321428Y-115842571D01*
X113350000Y-115899714D01*
X113350000Y-116071142D01*
X113321428Y-116128285D01*
X113292857Y-116156857D01*
X113235714Y-116185428D01*
X113150000Y-116185428D01*
X113578571Y-116156857D02*
X113635714Y-116185428D01*
X113750000Y-116185428D01*
X113807142Y-116156857D01*
X113835714Y-116099714D01*
X113835714Y-116071142D01*
X113807142Y-116014000D01*
X113750000Y-115985428D01*
X113664285Y-115985428D01*
X113607142Y-115956857D01*
X113578571Y-115899714D01*
X113578571Y-115871142D01*
X113607142Y-115814000D01*
X113664285Y-115785428D01*
X113750000Y-115785428D01*
X113807142Y-115814000D01*
X114092857Y-116185428D02*
X114092857Y-115785428D01*
X114092857Y-115842571D02*
X114121428Y-115814000D01*
X114178571Y-115785428D01*
X114264285Y-115785428D01*
X114321428Y-115814000D01*
X114350000Y-115871142D01*
X114350000Y-116185428D01*
X114350000Y-115871142D02*
X114378571Y-115814000D01*
X114435714Y-115785428D01*
X114521428Y-115785428D01*
X114578571Y-115814000D01*
X114607142Y-115871142D01*
X114607142Y-116185428D01*
X114892857Y-116185428D02*
X114892857Y-115785428D01*
X114892857Y-115585428D02*
X114864285Y-115614000D01*
X114892857Y-115642571D01*
X114921428Y-115614000D01*
X114892857Y-115585428D01*
X114892857Y-115642571D01*
X115435714Y-116156857D02*
X115378571Y-116185428D01*
X115264285Y-116185428D01*
X115207142Y-116156857D01*
X115178571Y-116128285D01*
X115150000Y-116071142D01*
X115150000Y-115899714D01*
X115178571Y-115842571D01*
X115207142Y-115814000D01*
X115264285Y-115785428D01*
X115378571Y-115785428D01*
X115435714Y-115814000D01*
X116492857Y-116185428D02*
X116292857Y-115899714D01*
X116150000Y-116185428D02*
X116150000Y-115585428D01*
X116378571Y-115585428D01*
X116435714Y-115614000D01*
X116464285Y-115642571D01*
X116492857Y-115699714D01*
X116492857Y-115785428D01*
X116464285Y-115842571D01*
X116435714Y-115871142D01*
X116378571Y-115899714D01*
X116150000Y-115899714D01*
X117007142Y-116185428D02*
X117007142Y-115871142D01*
X116978571Y-115814000D01*
X116921428Y-115785428D01*
X116807142Y-115785428D01*
X116750000Y-115814000D01*
X117007142Y-116156857D02*
X116950000Y-116185428D01*
X116807142Y-116185428D01*
X116750000Y-116156857D01*
X116721428Y-116099714D01*
X116721428Y-116042571D01*
X116750000Y-115985428D01*
X116807142Y-115956857D01*
X116950000Y-115956857D01*
X117007142Y-115928285D01*
X117235714Y-115785428D02*
X117378571Y-116185428D01*
X117521428Y-115785428D02*
X117378571Y-116185428D01*
X117321428Y-116328285D01*
X117292857Y-116356857D01*
X117235714Y-116385428D01*
X118207142Y-116185428D02*
X118207142Y-115585428D01*
X118350000Y-115585428D01*
X118435714Y-115614000D01*
X118492857Y-115671142D01*
X118521428Y-115728285D01*
X118550000Y-115842571D01*
X118550000Y-115928285D01*
X118521428Y-116042571D01*
X118492857Y-116099714D01*
X118435714Y-116156857D01*
X118350000Y-116185428D01*
X118207142Y-116185428D01*
X119035714Y-116156857D02*
X118978571Y-116185428D01*
X118864285Y-116185428D01*
X118807142Y-116156857D01*
X118778571Y-116099714D01*
X118778571Y-115871142D01*
X118807142Y-115814000D01*
X118864285Y-115785428D01*
X118978571Y-115785428D01*
X119035714Y-115814000D01*
X119064285Y-115871142D01*
X119064285Y-115928285D01*
X118778571Y-115985428D01*
X119235714Y-115785428D02*
X119464285Y-115785428D01*
X119321428Y-115585428D02*
X119321428Y-116099714D01*
X119350000Y-116156857D01*
X119407142Y-116185428D01*
X119464285Y-116185428D01*
X119892857Y-116156857D02*
X119835714Y-116185428D01*
X119721428Y-116185428D01*
X119664285Y-116156857D01*
X119635714Y-116099714D01*
X119635714Y-115871142D01*
X119664285Y-115814000D01*
X119721428Y-115785428D01*
X119835714Y-115785428D01*
X119892857Y-115814000D01*
X119921428Y-115871142D01*
X119921428Y-115928285D01*
X119635714Y-115985428D01*
X120435714Y-116156857D02*
X120378571Y-116185428D01*
X120264285Y-116185428D01*
X120207142Y-116156857D01*
X120178571Y-116128285D01*
X120150000Y-116071142D01*
X120150000Y-115899714D01*
X120178571Y-115842571D01*
X120207142Y-115814000D01*
X120264285Y-115785428D01*
X120378571Y-115785428D01*
X120435714Y-115814000D01*
X120607142Y-115785428D02*
X120835714Y-115785428D01*
X120692857Y-115585428D02*
X120692857Y-116099714D01*
X120721428Y-116156857D01*
X120778571Y-116185428D01*
X120835714Y-116185428D01*
X121121428Y-116185428D02*
X121064285Y-116156857D01*
X121035714Y-116128285D01*
X121007142Y-116071142D01*
X121007142Y-115899714D01*
X121035714Y-115842571D01*
X121064285Y-115814000D01*
X121121428Y-115785428D01*
X121207142Y-115785428D01*
X121264285Y-115814000D01*
X121292857Y-115842571D01*
X121321428Y-115899714D01*
X121321428Y-116071142D01*
X121292857Y-116128285D01*
X121264285Y-116156857D01*
X121207142Y-116185428D01*
X121121428Y-116185428D01*
X121578571Y-116185428D02*
X121578571Y-115785428D01*
X121578571Y-115899714D02*
X121607142Y-115842571D01*
X121635714Y-115814000D01*
X121692857Y-115785428D01*
X121750000Y-115785428D01*
X122407142Y-116185428D02*
X122407142Y-115585428D01*
X122750000Y-116185428D02*
X122492857Y-115842571D01*
X122750000Y-115585428D02*
X122407142Y-115928285D01*
X123007142Y-116185428D02*
X123007142Y-115785428D01*
X123007142Y-115585428D02*
X122978571Y-115614000D01*
X123007142Y-115642571D01*
X123035714Y-115614000D01*
X123007142Y-115585428D01*
X123007142Y-115642571D01*
X123635714Y-116128285D02*
X123607142Y-116156857D01*
X123521428Y-116185428D01*
X123464285Y-116185428D01*
X123378571Y-116156857D01*
X123321428Y-116099714D01*
X123292857Y-116042571D01*
X123264285Y-115928285D01*
X123264285Y-115842571D01*
X123292857Y-115728285D01*
X123321428Y-115671142D01*
X123378571Y-115614000D01*
X123464285Y-115585428D01*
X123521428Y-115585428D01*
X123607142Y-115614000D01*
X123635714Y-115642571D01*
X123864285Y-116014000D02*
X124150000Y-116014000D01*
X123807142Y-116185428D02*
X124007142Y-115585428D01*
X124207142Y-116185428D01*
X124407142Y-116185428D02*
X124407142Y-115585428D01*
X124550000Y-115585428D01*
X124635714Y-115614000D01*
X124692857Y-115671142D01*
X124721428Y-115728285D01*
X124750000Y-115842571D01*
X124750000Y-115928285D01*
X124721428Y-116042571D01*
X124692857Y-116099714D01*
X124635714Y-116156857D01*
X124550000Y-116185428D01*
X124407142Y-116185428D01*
X125464285Y-116185428D02*
X125464285Y-115585428D01*
X125607142Y-115585428D01*
X125692857Y-115614000D01*
X125750000Y-115671142D01*
X125778571Y-115728285D01*
X125807142Y-115842571D01*
X125807142Y-115928285D01*
X125778571Y-116042571D01*
X125750000Y-116099714D01*
X125692857Y-116156857D01*
X125607142Y-116185428D01*
X125464285Y-116185428D01*
X126292857Y-116156857D02*
X126235714Y-116185428D01*
X126121428Y-116185428D01*
X126064285Y-116156857D01*
X126035714Y-116099714D01*
X126035714Y-115871142D01*
X126064285Y-115814000D01*
X126121428Y-115785428D01*
X126235714Y-115785428D01*
X126292857Y-115814000D01*
X126321428Y-115871142D01*
X126321428Y-115928285D01*
X126035714Y-115985428D01*
X126578571Y-116185428D02*
X126578571Y-115785428D01*
X126578571Y-115842571D02*
X126607142Y-115814000D01*
X126664285Y-115785428D01*
X126750000Y-115785428D01*
X126807142Y-115814000D01*
X126835714Y-115871142D01*
X126835714Y-116185428D01*
X126835714Y-115871142D02*
X126864285Y-115814000D01*
X126921428Y-115785428D01*
X127007142Y-115785428D01*
X127064285Y-115814000D01*
X127092857Y-115871142D01*
X127092857Y-116185428D01*
X127464285Y-116185428D02*
X127407142Y-116156857D01*
X127378571Y-116128285D01*
X127350000Y-116071142D01*
X127350000Y-115899714D01*
X127378571Y-115842571D01*
X127407142Y-115814000D01*
X127464285Y-115785428D01*
X127550000Y-115785428D01*
X127607142Y-115814000D01*
X127635714Y-115842571D01*
X127664285Y-115899714D01*
X127664285Y-116071142D01*
X127635714Y-116128285D01*
X127607142Y-116156857D01*
X127550000Y-116185428D01*
X127464285Y-116185428D01*
X113792857Y-117151428D02*
X113792857Y-116551428D01*
X113935714Y-116551428D01*
X114021428Y-116580000D01*
X114078571Y-116637142D01*
X114107142Y-116694285D01*
X114135714Y-116808571D01*
X114135714Y-116894285D01*
X114107142Y-117008571D01*
X114078571Y-117065714D01*
X114021428Y-117122857D01*
X113935714Y-117151428D01*
X113792857Y-117151428D01*
X114621428Y-117122857D02*
X114564285Y-117151428D01*
X114450000Y-117151428D01*
X114392857Y-117122857D01*
X114364285Y-117065714D01*
X114364285Y-116837142D01*
X114392857Y-116780000D01*
X114450000Y-116751428D01*
X114564285Y-116751428D01*
X114621428Y-116780000D01*
X114650000Y-116837142D01*
X114650000Y-116894285D01*
X114364285Y-116951428D01*
X114878571Y-117122857D02*
X114935714Y-117151428D01*
X115050000Y-117151428D01*
X115107142Y-117122857D01*
X115135714Y-117065714D01*
X115135714Y-117037142D01*
X115107142Y-116980000D01*
X115050000Y-116951428D01*
X114964285Y-116951428D01*
X114907142Y-116922857D01*
X114878571Y-116865714D01*
X114878571Y-116837142D01*
X114907142Y-116780000D01*
X114964285Y-116751428D01*
X115050000Y-116751428D01*
X115107142Y-116780000D01*
X115392857Y-117151428D02*
X115392857Y-116751428D01*
X115392857Y-116551428D02*
X115364285Y-116580000D01*
X115392857Y-116608571D01*
X115421428Y-116580000D01*
X115392857Y-116551428D01*
X115392857Y-116608571D01*
X115935714Y-116751428D02*
X115935714Y-117237142D01*
X115907142Y-117294285D01*
X115878571Y-117322857D01*
X115821428Y-117351428D01*
X115735714Y-117351428D01*
X115678571Y-117322857D01*
X115935714Y-117122857D02*
X115878571Y-117151428D01*
X115764285Y-117151428D01*
X115707142Y-117122857D01*
X115678571Y-117094285D01*
X115650000Y-117037142D01*
X115650000Y-116865714D01*
X115678571Y-116808571D01*
X115707142Y-116780000D01*
X115764285Y-116751428D01*
X115878571Y-116751428D01*
X115935714Y-116780000D01*
X116221428Y-116751428D02*
X116221428Y-117151428D01*
X116221428Y-116808571D02*
X116250000Y-116780000D01*
X116307142Y-116751428D01*
X116392857Y-116751428D01*
X116450000Y-116780000D01*
X116478571Y-116837142D01*
X116478571Y-117151428D01*
X116992857Y-117122857D02*
X116935714Y-117151428D01*
X116821428Y-117151428D01*
X116764285Y-117122857D01*
X116735714Y-117065714D01*
X116735714Y-116837142D01*
X116764285Y-116780000D01*
X116821428Y-116751428D01*
X116935714Y-116751428D01*
X116992857Y-116780000D01*
X117021428Y-116837142D01*
X117021428Y-116894285D01*
X116735714Y-116951428D01*
X117535714Y-117151428D02*
X117535714Y-116551428D01*
X117535714Y-117122857D02*
X117478571Y-117151428D01*
X117364285Y-117151428D01*
X117307142Y-117122857D01*
X117278571Y-117094285D01*
X117250000Y-117037142D01*
X117250000Y-116865714D01*
X117278571Y-116808571D01*
X117307142Y-116780000D01*
X117364285Y-116751428D01*
X117478571Y-116751428D01*
X117535714Y-116780000D01*
X118278571Y-117151428D02*
X118278571Y-116551428D01*
X118278571Y-116780000D02*
X118335714Y-116751428D01*
X118450000Y-116751428D01*
X118507142Y-116780000D01*
X118535714Y-116808571D01*
X118564285Y-116865714D01*
X118564285Y-117037142D01*
X118535714Y-117094285D01*
X118507142Y-117122857D01*
X118450000Y-117151428D01*
X118335714Y-117151428D01*
X118278571Y-117122857D01*
X118764285Y-116751428D02*
X118907142Y-117151428D01*
X119050000Y-116751428D02*
X118907142Y-117151428D01*
X118850000Y-117294285D01*
X118821428Y-117322857D01*
X118764285Y-117351428D01*
X119278571Y-117094285D02*
X119307142Y-117122857D01*
X119278571Y-117151428D01*
X119250000Y-117122857D01*
X119278571Y-117094285D01*
X119278571Y-117151428D01*
X119278571Y-116780000D02*
X119307142Y-116808571D01*
X119278571Y-116837142D01*
X119250000Y-116808571D01*
X119278571Y-116780000D01*
X119278571Y-116837142D01*
X120021428Y-117151428D02*
X120021428Y-116551428D01*
X120164285Y-116551428D01*
X120250000Y-116580000D01*
X120307142Y-116637142D01*
X120335714Y-116694285D01*
X120364285Y-116808571D01*
X120364285Y-116894285D01*
X120335714Y-117008571D01*
X120307142Y-117065714D01*
X120250000Y-117122857D01*
X120164285Y-117151428D01*
X120021428Y-117151428D01*
X120878571Y-117151428D02*
X120878571Y-116837142D01*
X120850000Y-116780000D01*
X120792857Y-116751428D01*
X120678571Y-116751428D01*
X120621428Y-116780000D01*
X120878571Y-117122857D02*
X120821428Y-117151428D01*
X120678571Y-117151428D01*
X120621428Y-117122857D01*
X120592857Y-117065714D01*
X120592857Y-117008571D01*
X120621428Y-116951428D01*
X120678571Y-116922857D01*
X120821428Y-116922857D01*
X120878571Y-116894285D01*
X121164285Y-116751428D02*
X121164285Y-117151428D01*
X121164285Y-116808571D02*
X121192857Y-116780000D01*
X121250000Y-116751428D01*
X121335714Y-116751428D01*
X121392857Y-116780000D01*
X121421428Y-116837142D01*
X121421428Y-117151428D01*
X122107142Y-116551428D02*
X122250000Y-117151428D01*
X122364285Y-116722857D01*
X122478571Y-117151428D01*
X122621428Y-116551428D01*
X123078571Y-117122857D02*
X123021428Y-117151428D01*
X122907142Y-117151428D01*
X122850000Y-117122857D01*
X122821428Y-117065714D01*
X122821428Y-116837142D01*
X122850000Y-116780000D01*
X122907142Y-116751428D01*
X123021428Y-116751428D01*
X123078571Y-116780000D01*
X123107142Y-116837142D01*
X123107142Y-116894285D01*
X122821428Y-116951428D01*
X123621428Y-117151428D02*
X123621428Y-116837142D01*
X123592857Y-116780000D01*
X123535714Y-116751428D01*
X123421428Y-116751428D01*
X123364285Y-116780000D01*
X123621428Y-117122857D02*
X123564285Y-117151428D01*
X123421428Y-117151428D01*
X123364285Y-117122857D01*
X123335714Y-117065714D01*
X123335714Y-117008571D01*
X123364285Y-116951428D01*
X123421428Y-116922857D01*
X123564285Y-116922857D01*
X123621428Y-116894285D01*
X123821428Y-116751428D02*
X124050000Y-116751428D01*
X123907142Y-116551428D02*
X123907142Y-117065714D01*
X123935714Y-117122857D01*
X123992857Y-117151428D01*
X124050000Y-117151428D01*
X124250000Y-117151428D02*
X124250000Y-116551428D01*
X124507142Y-117151428D02*
X124507142Y-116837142D01*
X124478571Y-116780000D01*
X124421428Y-116751428D01*
X124335714Y-116751428D01*
X124278571Y-116780000D01*
X124250000Y-116808571D01*
X125021428Y-117122857D02*
X124964285Y-117151428D01*
X124850000Y-117151428D01*
X124792857Y-117122857D01*
X124764285Y-117065714D01*
X124764285Y-116837142D01*
X124792857Y-116780000D01*
X124850000Y-116751428D01*
X124964285Y-116751428D01*
X125021428Y-116780000D01*
X125050000Y-116837142D01*
X125050000Y-116894285D01*
X124764285Y-116951428D01*
X125307142Y-117151428D02*
X125307142Y-116751428D01*
X125307142Y-116865714D02*
X125335714Y-116808571D01*
X125364285Y-116780000D01*
X125421428Y-116751428D01*
X125478571Y-116751428D01*
X125678571Y-117151428D02*
X125678571Y-116751428D01*
X125678571Y-116551428D02*
X125650000Y-116580000D01*
X125678571Y-116608571D01*
X125707142Y-116580000D01*
X125678571Y-116551428D01*
X125678571Y-116608571D01*
X126050000Y-117151428D02*
X125992857Y-117122857D01*
X125964285Y-117065714D01*
X125964285Y-116551428D01*
X126364285Y-117151428D02*
X126307142Y-117122857D01*
X126278571Y-117065714D01*
X126278571Y-116551428D01*
X117592857Y-118117428D02*
X117392857Y-117831714D01*
X117250000Y-118117428D02*
X117250000Y-117517428D01*
X117478571Y-117517428D01*
X117535714Y-117546000D01*
X117564285Y-117574571D01*
X117592857Y-117631714D01*
X117592857Y-117717428D01*
X117564285Y-117774571D01*
X117535714Y-117803142D01*
X117478571Y-117831714D01*
X117250000Y-117831714D01*
X118078571Y-118088857D02*
X118021428Y-118117428D01*
X117907142Y-118117428D01*
X117850000Y-118088857D01*
X117821428Y-118031714D01*
X117821428Y-117803142D01*
X117850000Y-117746000D01*
X117907142Y-117717428D01*
X118021428Y-117717428D01*
X118078571Y-117746000D01*
X118107142Y-117803142D01*
X118107142Y-117860285D01*
X117821428Y-117917428D01*
X118307142Y-117717428D02*
X118450000Y-118117428D01*
X118592857Y-117717428D01*
X118821428Y-118117428D02*
X118821428Y-117717428D01*
X118821428Y-117517428D02*
X118792857Y-117546000D01*
X118821428Y-117574571D01*
X118850000Y-117546000D01*
X118821428Y-117517428D01*
X118821428Y-117574571D01*
X119078571Y-118088857D02*
X119135714Y-118117428D01*
X119250000Y-118117428D01*
X119307142Y-118088857D01*
X119335714Y-118031714D01*
X119335714Y-118003142D01*
X119307142Y-117946000D01*
X119250000Y-117917428D01*
X119164285Y-117917428D01*
X119107142Y-117888857D01*
X119078571Y-117831714D01*
X119078571Y-117803142D01*
X119107142Y-117746000D01*
X119164285Y-117717428D01*
X119250000Y-117717428D01*
X119307142Y-117746000D01*
X119592857Y-118117428D02*
X119592857Y-117717428D01*
X119592857Y-117517428D02*
X119564285Y-117546000D01*
X119592857Y-117574571D01*
X119621428Y-117546000D01*
X119592857Y-117517428D01*
X119592857Y-117574571D01*
X119964285Y-118117428D02*
X119907142Y-118088857D01*
X119878571Y-118060285D01*
X119850000Y-118003142D01*
X119850000Y-117831714D01*
X119878571Y-117774571D01*
X119907142Y-117746000D01*
X119964285Y-117717428D01*
X120050000Y-117717428D01*
X120107142Y-117746000D01*
X120135714Y-117774571D01*
X120164285Y-117831714D01*
X120164285Y-118003142D01*
X120135714Y-118060285D01*
X120107142Y-118088857D01*
X120050000Y-118117428D01*
X119964285Y-118117428D01*
X120421428Y-117717428D02*
X120421428Y-118117428D01*
X120421428Y-117774571D02*
X120450000Y-117746000D01*
X120507142Y-117717428D01*
X120592857Y-117717428D01*
X120650000Y-117746000D01*
X120678571Y-117803142D01*
X120678571Y-118117428D01*
X120964285Y-118060285D02*
X120992857Y-118088857D01*
X120964285Y-118117428D01*
X120935714Y-118088857D01*
X120964285Y-118060285D01*
X120964285Y-118117428D01*
X120964285Y-117746000D02*
X120992857Y-117774571D01*
X120964285Y-117803142D01*
X120935714Y-117774571D01*
X120964285Y-117746000D01*
X120964285Y-117803142D01*
X122021428Y-118117428D02*
X121678571Y-118117428D01*
X121850000Y-118117428D02*
X121850000Y-117517428D01*
X121792857Y-117603142D01*
X121735714Y-117660285D01*
X121678571Y-117688857D01*
X122278571Y-118060285D02*
X122307142Y-118088857D01*
X122278571Y-118117428D01*
X122250000Y-118088857D01*
X122278571Y-118060285D01*
X122278571Y-118117428D01*
X122678571Y-117517428D02*
X122735714Y-117517428D01*
X122792857Y-117546000D01*
X122821428Y-117574571D01*
X122849999Y-117631714D01*
X122878571Y-117746000D01*
X122878571Y-117888857D01*
X122849999Y-118003142D01*
X122821428Y-118060285D01*
X122792857Y-118088857D01*
X122735714Y-118117428D01*
X122678571Y-118117428D01*
X122621428Y-118088857D01*
X122592857Y-118060285D01*
X122564285Y-118003142D01*
X122535714Y-117888857D01*
X122535714Y-117746000D01*
X122564285Y-117631714D01*
X122592857Y-117574571D01*
X122621428Y-117546000D01*
X122678571Y-117517428D01*
D11*
%TO.C,C5*%
X109857142Y-104916666D02*
X109904761Y-104964285D01*
X109952380Y-105107142D01*
X109952380Y-105202380D01*
X109904761Y-105345238D01*
X109809523Y-105440476D01*
X109714285Y-105488095D01*
X109523809Y-105535714D01*
X109380952Y-105535714D01*
X109190476Y-105488095D01*
X109095238Y-105440476D01*
X109000000Y-105345238D01*
X108952380Y-105202380D01*
X108952380Y-105107142D01*
X109000000Y-104964285D01*
X109047619Y-104916666D01*
X108952380Y-104011904D02*
X108952380Y-104488095D01*
X109428571Y-104535714D01*
X109380952Y-104488095D01*
X109333333Y-104392857D01*
X109333333Y-104154761D01*
X109380952Y-104059523D01*
X109428571Y-104011904D01*
X109523809Y-103964285D01*
X109761904Y-103964285D01*
X109857142Y-104011904D01*
X109904761Y-104059523D01*
X109952380Y-104154761D01*
X109952380Y-104392857D01*
X109904761Y-104488095D01*
X109857142Y-104535714D01*
%TO.C,C13*%
X100857142Y-101857142D02*
X100809523Y-101904761D01*
X100666666Y-101952380D01*
X100571428Y-101952380D01*
X100428571Y-101904761D01*
X100333333Y-101809523D01*
X100285714Y-101714285D01*
X100238095Y-101523809D01*
X100238095Y-101380952D01*
X100285714Y-101190476D01*
X100333333Y-101095238D01*
X100428571Y-101000000D01*
X100571428Y-100952380D01*
X100666666Y-100952380D01*
X100809523Y-101000000D01*
X100857142Y-101047619D01*
X101809523Y-101952380D02*
X101238095Y-101952380D01*
X101523809Y-101952380D02*
X101523809Y-100952380D01*
X101428571Y-101095238D01*
X101333333Y-101190476D01*
X101238095Y-101238095D01*
X102142857Y-100952380D02*
X102761904Y-100952380D01*
X102428571Y-101333333D01*
X102571428Y-101333333D01*
X102666666Y-101380952D01*
X102714285Y-101428571D01*
X102761904Y-101523809D01*
X102761904Y-101761904D01*
X102714285Y-101857142D01*
X102666666Y-101904761D01*
X102571428Y-101952380D01*
X102285714Y-101952380D01*
X102190476Y-101904761D01*
X102142857Y-101857142D01*
%TO.C,C11*%
X90107142Y-106392857D02*
X90154761Y-106440476D01*
X90202380Y-106583333D01*
X90202380Y-106678571D01*
X90154761Y-106821428D01*
X90059523Y-106916666D01*
X89964285Y-106964285D01*
X89773809Y-107011904D01*
X89630952Y-107011904D01*
X89440476Y-106964285D01*
X89345238Y-106916666D01*
X89250000Y-106821428D01*
X89202380Y-106678571D01*
X89202380Y-106583333D01*
X89250000Y-106440476D01*
X89297619Y-106392857D01*
X90202380Y-105440476D02*
X90202380Y-106011904D01*
X90202380Y-105726190D02*
X89202380Y-105726190D01*
X89345238Y-105821428D01*
X89440476Y-105916666D01*
X89488095Y-106011904D01*
X90202380Y-104488095D02*
X90202380Y-105059523D01*
X90202380Y-104773809D02*
X89202380Y-104773809D01*
X89345238Y-104869047D01*
X89440476Y-104964285D01*
X89488095Y-105059523D01*
%TO.C,C18*%
X115107142Y-90642857D02*
X115154761Y-90690476D01*
X115202380Y-90833333D01*
X115202380Y-90928571D01*
X115154761Y-91071428D01*
X115059523Y-91166666D01*
X114964285Y-91214285D01*
X114773809Y-91261904D01*
X114630952Y-91261904D01*
X114440476Y-91214285D01*
X114345238Y-91166666D01*
X114250000Y-91071428D01*
X114202380Y-90928571D01*
X114202380Y-90833333D01*
X114250000Y-90690476D01*
X114297619Y-90642857D01*
X115202380Y-89690476D02*
X115202380Y-90261904D01*
X115202380Y-89976190D02*
X114202380Y-89976190D01*
X114345238Y-90071428D01*
X114440476Y-90166666D01*
X114488095Y-90261904D01*
X114630952Y-89119047D02*
X114583333Y-89214285D01*
X114535714Y-89261904D01*
X114440476Y-89309523D01*
X114392857Y-89309523D01*
X114297619Y-89261904D01*
X114250000Y-89214285D01*
X114202380Y-89119047D01*
X114202380Y-88928571D01*
X114250000Y-88833333D01*
X114297619Y-88785714D01*
X114392857Y-88738095D01*
X114440476Y-88738095D01*
X114535714Y-88785714D01*
X114583333Y-88833333D01*
X114630952Y-88928571D01*
X114630952Y-89119047D01*
X114678571Y-89214285D01*
X114726190Y-89261904D01*
X114821428Y-89309523D01*
X115011904Y-89309523D01*
X115107142Y-89261904D01*
X115154761Y-89214285D01*
X115202380Y-89119047D01*
X115202380Y-88928571D01*
X115154761Y-88833333D01*
X115107142Y-88785714D01*
X115011904Y-88738095D01*
X114821428Y-88738095D01*
X114726190Y-88785714D01*
X114678571Y-88833333D01*
X114630952Y-88928571D01*
%TO.C,C19*%
X124107142Y-83357142D02*
X124059523Y-83404761D01*
X123916666Y-83452380D01*
X123821428Y-83452380D01*
X123678571Y-83404761D01*
X123583333Y-83309523D01*
X123535714Y-83214285D01*
X123488095Y-83023809D01*
X123488095Y-82880952D01*
X123535714Y-82690476D01*
X123583333Y-82595238D01*
X123678571Y-82500000D01*
X123821428Y-82452380D01*
X123916666Y-82452380D01*
X124059523Y-82500000D01*
X124107142Y-82547619D01*
X125059523Y-83452380D02*
X124488095Y-83452380D01*
X124773809Y-83452380D02*
X124773809Y-82452380D01*
X124678571Y-82595238D01*
X124583333Y-82690476D01*
X124488095Y-82738095D01*
X125535714Y-83452380D02*
X125726190Y-83452380D01*
X125821428Y-83404761D01*
X125869047Y-83357142D01*
X125964285Y-83214285D01*
X126011904Y-83023809D01*
X126011904Y-82642857D01*
X125964285Y-82547619D01*
X125916666Y-82500000D01*
X125821428Y-82452380D01*
X125630952Y-82452380D01*
X125535714Y-82500000D01*
X125488095Y-82547619D01*
X125440476Y-82642857D01*
X125440476Y-82880952D01*
X125488095Y-82976190D01*
X125535714Y-83023809D01*
X125630952Y-83071428D01*
X125821428Y-83071428D01*
X125916666Y-83023809D01*
X125964285Y-82976190D01*
X126011904Y-82880952D01*
%TO.C,C8*%
X116107142Y-100416666D02*
X116154761Y-100464285D01*
X116202380Y-100607142D01*
X116202380Y-100702380D01*
X116154761Y-100845238D01*
X116059523Y-100940476D01*
X115964285Y-100988095D01*
X115773809Y-101035714D01*
X115630952Y-101035714D01*
X115440476Y-100988095D01*
X115345238Y-100940476D01*
X115250000Y-100845238D01*
X115202380Y-100702380D01*
X115202380Y-100607142D01*
X115250000Y-100464285D01*
X115297619Y-100416666D01*
X115630952Y-99845238D02*
X115583333Y-99940476D01*
X115535714Y-99988095D01*
X115440476Y-100035714D01*
X115392857Y-100035714D01*
X115297619Y-99988095D01*
X115250000Y-99940476D01*
X115202380Y-99845238D01*
X115202380Y-99654761D01*
X115250000Y-99559523D01*
X115297619Y-99511904D01*
X115392857Y-99464285D01*
X115440476Y-99464285D01*
X115535714Y-99511904D01*
X115583333Y-99559523D01*
X115630952Y-99654761D01*
X115630952Y-99845238D01*
X115678571Y-99940476D01*
X115726190Y-99988095D01*
X115821428Y-100035714D01*
X116011904Y-100035714D01*
X116107142Y-99988095D01*
X116154761Y-99940476D01*
X116202380Y-99845238D01*
X116202380Y-99654761D01*
X116154761Y-99559523D01*
X116107142Y-99511904D01*
X116011904Y-99464285D01*
X115821428Y-99464285D01*
X115726190Y-99511904D01*
X115678571Y-99559523D01*
X115630952Y-99654761D01*
%TO.C,C20*%
X120607142Y-77107142D02*
X120559523Y-77154761D01*
X120416666Y-77202380D01*
X120321428Y-77202380D01*
X120178571Y-77154761D01*
X120083333Y-77059523D01*
X120035714Y-76964285D01*
X119988095Y-76773809D01*
X119988095Y-76630952D01*
X120035714Y-76440476D01*
X120083333Y-76345238D01*
X120178571Y-76250000D01*
X120321428Y-76202380D01*
X120416666Y-76202380D01*
X120559523Y-76250000D01*
X120607142Y-76297619D01*
X120988095Y-76297619D02*
X121035714Y-76250000D01*
X121130952Y-76202380D01*
X121369047Y-76202380D01*
X121464285Y-76250000D01*
X121511904Y-76297619D01*
X121559523Y-76392857D01*
X121559523Y-76488095D01*
X121511904Y-76630952D01*
X120940476Y-77202380D01*
X121559523Y-77202380D01*
X122178571Y-76202380D02*
X122273809Y-76202380D01*
X122369047Y-76250000D01*
X122416666Y-76297619D01*
X122464285Y-76392857D01*
X122511904Y-76583333D01*
X122511904Y-76821428D01*
X122464285Y-77011904D01*
X122416666Y-77107142D01*
X122369047Y-77154761D01*
X122273809Y-77202380D01*
X122178571Y-77202380D01*
X122083333Y-77154761D01*
X122035714Y-77107142D01*
X121988095Y-77011904D01*
X121940476Y-76821428D01*
X121940476Y-76583333D01*
X121988095Y-76392857D01*
X122035714Y-76297619D01*
X122083333Y-76250000D01*
X122178571Y-76202380D01*
%TO.C,C6*%
X107107142Y-98916666D02*
X107154761Y-98964285D01*
X107202380Y-99107142D01*
X107202380Y-99202380D01*
X107154761Y-99345238D01*
X107059523Y-99440476D01*
X106964285Y-99488095D01*
X106773809Y-99535714D01*
X106630952Y-99535714D01*
X106440476Y-99488095D01*
X106345238Y-99440476D01*
X106250000Y-99345238D01*
X106202380Y-99202380D01*
X106202380Y-99107142D01*
X106250000Y-98964285D01*
X106297619Y-98916666D01*
X106202380Y-98059523D02*
X106202380Y-98250000D01*
X106250000Y-98345238D01*
X106297619Y-98392857D01*
X106440476Y-98488095D01*
X106630952Y-98535714D01*
X107011904Y-98535714D01*
X107107142Y-98488095D01*
X107154761Y-98440476D01*
X107202380Y-98345238D01*
X107202380Y-98154761D01*
X107154761Y-98059523D01*
X107107142Y-98011904D01*
X107011904Y-97964285D01*
X106773809Y-97964285D01*
X106678571Y-98011904D01*
X106630952Y-98059523D01*
X106583333Y-98154761D01*
X106583333Y-98345238D01*
X106630952Y-98440476D01*
X106678571Y-98488095D01*
X106773809Y-98535714D01*
%TO.C,C4*%
X115607142Y-94166666D02*
X115654761Y-94214285D01*
X115702380Y-94357142D01*
X115702380Y-94452380D01*
X115654761Y-94595238D01*
X115559523Y-94690476D01*
X115464285Y-94738095D01*
X115273809Y-94785714D01*
X115130952Y-94785714D01*
X114940476Y-94738095D01*
X114845238Y-94690476D01*
X114750000Y-94595238D01*
X114702380Y-94452380D01*
X114702380Y-94357142D01*
X114750000Y-94214285D01*
X114797619Y-94166666D01*
X115035714Y-93309523D02*
X115702380Y-93309523D01*
X114654761Y-93547619D02*
X115369047Y-93785714D01*
X115369047Y-93166666D01*
%TO.C,C17*%
X116607142Y-90642857D02*
X116654761Y-90690476D01*
X116702380Y-90833333D01*
X116702380Y-90928571D01*
X116654761Y-91071428D01*
X116559523Y-91166666D01*
X116464285Y-91214285D01*
X116273809Y-91261904D01*
X116130952Y-91261904D01*
X115940476Y-91214285D01*
X115845238Y-91166666D01*
X115750000Y-91071428D01*
X115702380Y-90928571D01*
X115702380Y-90833333D01*
X115750000Y-90690476D01*
X115797619Y-90642857D01*
X116702380Y-89690476D02*
X116702380Y-90261904D01*
X116702380Y-89976190D02*
X115702380Y-89976190D01*
X115845238Y-90071428D01*
X115940476Y-90166666D01*
X115988095Y-90261904D01*
X115702380Y-89357142D02*
X115702380Y-88690476D01*
X116702380Y-89119047D01*
%TO.C,C14*%
X100107142Y-77357142D02*
X100059523Y-77404761D01*
X99916666Y-77452380D01*
X99821428Y-77452380D01*
X99678571Y-77404761D01*
X99583333Y-77309523D01*
X99535714Y-77214285D01*
X99488095Y-77023809D01*
X99488095Y-76880952D01*
X99535714Y-76690476D01*
X99583333Y-76595238D01*
X99678571Y-76500000D01*
X99821428Y-76452380D01*
X99916666Y-76452380D01*
X100059523Y-76500000D01*
X100107142Y-76547619D01*
X101059523Y-77452380D02*
X100488095Y-77452380D01*
X100773809Y-77452380D02*
X100773809Y-76452380D01*
X100678571Y-76595238D01*
X100583333Y-76690476D01*
X100488095Y-76738095D01*
X101916666Y-76785714D02*
X101916666Y-77452380D01*
X101678571Y-76404761D02*
X101440476Y-77119047D01*
X102059523Y-77119047D01*
%TO.C,C7*%
X107833333Y-93607142D02*
X107785714Y-93654761D01*
X107642857Y-93702380D01*
X107547619Y-93702380D01*
X107404761Y-93654761D01*
X107309523Y-93559523D01*
X107261904Y-93464285D01*
X107214285Y-93273809D01*
X107214285Y-93130952D01*
X107261904Y-92940476D01*
X107309523Y-92845238D01*
X107404761Y-92750000D01*
X107547619Y-92702380D01*
X107642857Y-92702380D01*
X107785714Y-92750000D01*
X107833333Y-92797619D01*
X108166666Y-92702380D02*
X108833333Y-92702380D01*
X108404761Y-93702380D01*
%TO.C,C12*%
X88273142Y-77062857D02*
X88320761Y-77110476D01*
X88368380Y-77253333D01*
X88368380Y-77348571D01*
X88320761Y-77491428D01*
X88225523Y-77586666D01*
X88130285Y-77634285D01*
X87939809Y-77681904D01*
X87796952Y-77681904D01*
X87606476Y-77634285D01*
X87511238Y-77586666D01*
X87416000Y-77491428D01*
X87368380Y-77348571D01*
X87368380Y-77253333D01*
X87416000Y-77110476D01*
X87463619Y-77062857D01*
X88368380Y-76110476D02*
X88368380Y-76681904D01*
X88368380Y-76396190D02*
X87368380Y-76396190D01*
X87511238Y-76491428D01*
X87606476Y-76586666D01*
X87654095Y-76681904D01*
X87463619Y-75729523D02*
X87416000Y-75681904D01*
X87368380Y-75586666D01*
X87368380Y-75348571D01*
X87416000Y-75253333D01*
X87463619Y-75205714D01*
X87558857Y-75158095D01*
X87654095Y-75158095D01*
X87796952Y-75205714D01*
X88368380Y-75777142D01*
X88368380Y-75158095D01*
%TO.C,R6*%
X99333333Y-100202380D02*
X99000000Y-99726190D01*
X98761904Y-100202380D02*
X98761904Y-99202380D01*
X99142857Y-99202380D01*
X99238095Y-99250000D01*
X99285714Y-99297619D01*
X99333333Y-99392857D01*
X99333333Y-99535714D01*
X99285714Y-99630952D01*
X99238095Y-99678571D01*
X99142857Y-99726190D01*
X98761904Y-99726190D01*
X100190476Y-99202380D02*
X100000000Y-99202380D01*
X99904761Y-99250000D01*
X99857142Y-99297619D01*
X99761904Y-99440476D01*
X99714285Y-99630952D01*
X99714285Y-100011904D01*
X99761904Y-100107142D01*
X99809523Y-100154761D01*
X99904761Y-100202380D01*
X100095238Y-100202380D01*
X100190476Y-100154761D01*
X100238095Y-100107142D01*
X100285714Y-100011904D01*
X100285714Y-99773809D01*
X100238095Y-99678571D01*
X100190476Y-99630952D01*
X100095238Y-99583333D01*
X99904761Y-99583333D01*
X99809523Y-99630952D01*
X99761904Y-99678571D01*
X99714285Y-99773809D01*
%TO.C,R8*%
X100333333Y-74962380D02*
X100000000Y-74486190D01*
X99761904Y-74962380D02*
X99761904Y-73962380D01*
X100142857Y-73962380D01*
X100238095Y-74010000D01*
X100285714Y-74057619D01*
X100333333Y-74152857D01*
X100333333Y-74295714D01*
X100285714Y-74390952D01*
X100238095Y-74438571D01*
X100142857Y-74486190D01*
X99761904Y-74486190D01*
X100904761Y-74390952D02*
X100809523Y-74343333D01*
X100761904Y-74295714D01*
X100714285Y-74200476D01*
X100714285Y-74152857D01*
X100761904Y-74057619D01*
X100809523Y-74010000D01*
X100904761Y-73962380D01*
X101095238Y-73962380D01*
X101190476Y-74010000D01*
X101238095Y-74057619D01*
X101285714Y-74152857D01*
X101285714Y-74200476D01*
X101238095Y-74295714D01*
X101190476Y-74343333D01*
X101095238Y-74390952D01*
X100904761Y-74390952D01*
X100809523Y-74438571D01*
X100761904Y-74486190D01*
X100714285Y-74581428D01*
X100714285Y-74771904D01*
X100761904Y-74867142D01*
X100809523Y-74914761D01*
X100904761Y-74962380D01*
X101095238Y-74962380D01*
X101190476Y-74914761D01*
X101238095Y-74867142D01*
X101285714Y-74771904D01*
X101285714Y-74581428D01*
X101238095Y-74486190D01*
X101190476Y-74438571D01*
X101095238Y-74390952D01*
%TO.C,R5*%
X99583333Y-103952380D02*
X99250000Y-103476190D01*
X99011904Y-103952380D02*
X99011904Y-102952380D01*
X99392857Y-102952380D01*
X99488095Y-103000000D01*
X99535714Y-103047619D01*
X99583333Y-103142857D01*
X99583333Y-103285714D01*
X99535714Y-103380952D01*
X99488095Y-103428571D01*
X99392857Y-103476190D01*
X99011904Y-103476190D01*
X100488095Y-102952380D02*
X100011904Y-102952380D01*
X99964285Y-103428571D01*
X100011904Y-103380952D01*
X100107142Y-103333333D01*
X100345238Y-103333333D01*
X100440476Y-103380952D01*
X100488095Y-103428571D01*
X100535714Y-103523809D01*
X100535714Y-103761904D01*
X100488095Y-103857142D01*
X100440476Y-103904761D01*
X100345238Y-103952380D01*
X100107142Y-103952380D01*
X100011904Y-103904761D01*
X99964285Y-103857142D01*
%TO.C,R10*%
X113357142Y-85202380D02*
X113023809Y-84726190D01*
X112785714Y-85202380D02*
X112785714Y-84202380D01*
X113166666Y-84202380D01*
X113261904Y-84250000D01*
X113309523Y-84297619D01*
X113357142Y-84392857D01*
X113357142Y-84535714D01*
X113309523Y-84630952D01*
X113261904Y-84678571D01*
X113166666Y-84726190D01*
X112785714Y-84726190D01*
X114309523Y-85202380D02*
X113738095Y-85202380D01*
X114023809Y-85202380D02*
X114023809Y-84202380D01*
X113928571Y-84345238D01*
X113833333Y-84440476D01*
X113738095Y-84488095D01*
X114928571Y-84202380D02*
X115023809Y-84202380D01*
X115119047Y-84250000D01*
X115166666Y-84297619D01*
X115214285Y-84392857D01*
X115261904Y-84583333D01*
X115261904Y-84821428D01*
X115214285Y-85011904D01*
X115166666Y-85107142D01*
X115119047Y-85154761D01*
X115023809Y-85202380D01*
X114928571Y-85202380D01*
X114833333Y-85154761D01*
X114785714Y-85107142D01*
X114738095Y-85011904D01*
X114690476Y-84821428D01*
X114690476Y-84583333D01*
X114738095Y-84392857D01*
X114785714Y-84297619D01*
X114833333Y-84250000D01*
X114928571Y-84202380D01*
%TO.C,R9*%
X115333333Y-83452380D02*
X115000000Y-82976190D01*
X114761904Y-83452380D02*
X114761904Y-82452380D01*
X115142857Y-82452380D01*
X115238095Y-82500000D01*
X115285714Y-82547619D01*
X115333333Y-82642857D01*
X115333333Y-82785714D01*
X115285714Y-82880952D01*
X115238095Y-82928571D01*
X115142857Y-82976190D01*
X114761904Y-82976190D01*
X115809523Y-83452380D02*
X116000000Y-83452380D01*
X116095238Y-83404761D01*
X116142857Y-83357142D01*
X116238095Y-83214285D01*
X116285714Y-83023809D01*
X116285714Y-82642857D01*
X116238095Y-82547619D01*
X116190476Y-82500000D01*
X116095238Y-82452380D01*
X115904761Y-82452380D01*
X115809523Y-82500000D01*
X115761904Y-82547619D01*
X115714285Y-82642857D01*
X115714285Y-82880952D01*
X115761904Y-82976190D01*
X115809523Y-83023809D01*
X115904761Y-83071428D01*
X116095238Y-83071428D01*
X116190476Y-83023809D01*
X116238095Y-82976190D01*
X116285714Y-82880952D01*
%TO.C,R4*%
X117952380Y-100416666D02*
X117476190Y-100750000D01*
X117952380Y-100988095D02*
X116952380Y-100988095D01*
X116952380Y-100607142D01*
X117000000Y-100511904D01*
X117047619Y-100464285D01*
X117142857Y-100416666D01*
X117285714Y-100416666D01*
X117380952Y-100464285D01*
X117428571Y-100511904D01*
X117476190Y-100607142D01*
X117476190Y-100988095D01*
X117285714Y-99559523D02*
X117952380Y-99559523D01*
X116904761Y-99797619D02*
X117619047Y-100035714D01*
X117619047Y-99416666D01*
%TO.C,R2*%
X105452380Y-98916666D02*
X104976190Y-99250000D01*
X105452380Y-99488095D02*
X104452380Y-99488095D01*
X104452380Y-99107142D01*
X104500000Y-99011904D01*
X104547619Y-98964285D01*
X104642857Y-98916666D01*
X104785714Y-98916666D01*
X104880952Y-98964285D01*
X104928571Y-99011904D01*
X104976190Y-99107142D01*
X104976190Y-99488095D01*
X104547619Y-98535714D02*
X104500000Y-98488095D01*
X104452380Y-98392857D01*
X104452380Y-98154761D01*
X104500000Y-98059523D01*
X104547619Y-98011904D01*
X104642857Y-97964285D01*
X104738095Y-97964285D01*
X104880952Y-98011904D01*
X105452380Y-98583333D01*
X105452380Y-97964285D01*
%TO.C,R7*%
X100203333Y-78802380D02*
X99870000Y-78326190D01*
X99631904Y-78802380D02*
X99631904Y-77802380D01*
X100012857Y-77802380D01*
X100108095Y-77850000D01*
X100155714Y-77897619D01*
X100203333Y-77992857D01*
X100203333Y-78135714D01*
X100155714Y-78230952D01*
X100108095Y-78278571D01*
X100012857Y-78326190D01*
X99631904Y-78326190D01*
X100536666Y-77802380D02*
X101203333Y-77802380D01*
X100774761Y-78802380D01*
%TO.C,R1*%
X125452380Y-94166666D02*
X124976190Y-94500000D01*
X125452380Y-94738095D02*
X124452380Y-94738095D01*
X124452380Y-94357142D01*
X124500000Y-94261904D01*
X124547619Y-94214285D01*
X124642857Y-94166666D01*
X124785714Y-94166666D01*
X124880952Y-94214285D01*
X124928571Y-94261904D01*
X124976190Y-94357142D01*
X124976190Y-94738095D01*
X125452380Y-93214285D02*
X125452380Y-93785714D01*
X125452380Y-93500000D02*
X124452380Y-93500000D01*
X124595238Y-93595238D01*
X124690476Y-93690476D01*
X124738095Y-93785714D01*
%TO.C,R3*%
X104583333Y-95202380D02*
X104250000Y-94726190D01*
X104011904Y-95202380D02*
X104011904Y-94202380D01*
X104392857Y-94202380D01*
X104488095Y-94250000D01*
X104535714Y-94297619D01*
X104583333Y-94392857D01*
X104583333Y-94535714D01*
X104535714Y-94630952D01*
X104488095Y-94678571D01*
X104392857Y-94726190D01*
X104011904Y-94726190D01*
X104916666Y-94202380D02*
X105535714Y-94202380D01*
X105202380Y-94583333D01*
X105345238Y-94583333D01*
X105440476Y-94630952D01*
X105488095Y-94678571D01*
X105535714Y-94773809D01*
X105535714Y-95011904D01*
X105488095Y-95107142D01*
X105440476Y-95154761D01*
X105345238Y-95202380D01*
X105059523Y-95202380D01*
X104964285Y-95154761D01*
X104916666Y-95107142D01*
%TO.C,R11*%
X120357142Y-79702380D02*
X120023809Y-79226190D01*
X119785714Y-79702380D02*
X119785714Y-78702380D01*
X120166666Y-78702380D01*
X120261904Y-78750000D01*
X120309523Y-78797619D01*
X120357142Y-78892857D01*
X120357142Y-79035714D01*
X120309523Y-79130952D01*
X120261904Y-79178571D01*
X120166666Y-79226190D01*
X119785714Y-79226190D01*
X121309523Y-79702380D02*
X120738095Y-79702380D01*
X121023809Y-79702380D02*
X121023809Y-78702380D01*
X120928571Y-78845238D01*
X120833333Y-78940476D01*
X120738095Y-78988095D01*
X122261904Y-79702380D02*
X121690476Y-79702380D01*
X121976190Y-79702380D02*
X121976190Y-78702380D01*
X121880952Y-78845238D01*
X121785714Y-78940476D01*
X121690476Y-78988095D01*
%TO.C,D2*%
X95028380Y-97158095D02*
X94028380Y-97158095D01*
X94028380Y-96920000D01*
X94076000Y-96777142D01*
X94171238Y-96681904D01*
X94266476Y-96634285D01*
X94456952Y-96586666D01*
X94599809Y-96586666D01*
X94790285Y-96634285D01*
X94885523Y-96681904D01*
X94980761Y-96777142D01*
X95028380Y-96920000D01*
X95028380Y-97158095D01*
X94123619Y-96205714D02*
X94076000Y-96158095D01*
X94028380Y-96062857D01*
X94028380Y-95824761D01*
X94076000Y-95729523D01*
X94123619Y-95681904D01*
X94218857Y-95634285D01*
X94314095Y-95634285D01*
X94456952Y-95681904D01*
X95028380Y-96253333D01*
X95028380Y-95634285D01*
%TO.C,D3*%
X94528380Y-84158095D02*
X93528380Y-84158095D01*
X93528380Y-83920000D01*
X93576000Y-83777142D01*
X93671238Y-83681904D01*
X93766476Y-83634285D01*
X93956952Y-83586666D01*
X94099809Y-83586666D01*
X94290285Y-83634285D01*
X94385523Y-83681904D01*
X94480761Y-83777142D01*
X94528380Y-83920000D01*
X94528380Y-84158095D01*
X93528380Y-83253333D02*
X93528380Y-82634285D01*
X93909333Y-82967619D01*
X93909333Y-82824761D01*
X93956952Y-82729523D01*
X94004571Y-82681904D01*
X94099809Y-82634285D01*
X94337904Y-82634285D01*
X94433142Y-82681904D01*
X94480761Y-82729523D01*
X94528380Y-82824761D01*
X94528380Y-83110476D01*
X94480761Y-83205714D01*
X94433142Y-83253333D01*
%TO.C,C9*%
X90357142Y-92916666D02*
X90404761Y-92964285D01*
X90452380Y-93107142D01*
X90452380Y-93202380D01*
X90404761Y-93345238D01*
X90309523Y-93440476D01*
X90214285Y-93488095D01*
X90023809Y-93535714D01*
X89880952Y-93535714D01*
X89690476Y-93488095D01*
X89595238Y-93440476D01*
X89500000Y-93345238D01*
X89452380Y-93202380D01*
X89452380Y-93107142D01*
X89500000Y-92964285D01*
X89547619Y-92916666D01*
X90452380Y-92440476D02*
X90452380Y-92250000D01*
X90404761Y-92154761D01*
X90357142Y-92107142D01*
X90214285Y-92011904D01*
X90023809Y-91964285D01*
X89642857Y-91964285D01*
X89547619Y-92011904D01*
X89500000Y-92059523D01*
X89452380Y-92154761D01*
X89452380Y-92345238D01*
X89500000Y-92440476D01*
X89547619Y-92488095D01*
X89642857Y-92535714D01*
X89880952Y-92535714D01*
X89976190Y-92488095D01*
X90023809Y-92440476D01*
X90071428Y-92345238D01*
X90071428Y-92154761D01*
X90023809Y-92059523D01*
X89976190Y-92011904D01*
X89880952Y-91964285D01*
%TO.C,C3*%
X107607142Y-107436666D02*
X107654761Y-107484285D01*
X107702380Y-107627142D01*
X107702380Y-107722380D01*
X107654761Y-107865238D01*
X107559523Y-107960476D01*
X107464285Y-108008095D01*
X107273809Y-108055714D01*
X107130952Y-108055714D01*
X106940476Y-108008095D01*
X106845238Y-107960476D01*
X106750000Y-107865238D01*
X106702380Y-107722380D01*
X106702380Y-107627142D01*
X106750000Y-107484285D01*
X106797619Y-107436666D01*
X106702380Y-107103333D02*
X106702380Y-106484285D01*
X107083333Y-106817619D01*
X107083333Y-106674761D01*
X107130952Y-106579523D01*
X107178571Y-106531904D01*
X107273809Y-106484285D01*
X107511904Y-106484285D01*
X107607142Y-106531904D01*
X107654761Y-106579523D01*
X107702380Y-106674761D01*
X107702380Y-106960476D01*
X107654761Y-107055714D01*
X107607142Y-107103333D01*
%TO.C,C2*%
X110107142Y-91816666D02*
X110154761Y-91864285D01*
X110202380Y-92007142D01*
X110202380Y-92102380D01*
X110154761Y-92245238D01*
X110059523Y-92340476D01*
X109964285Y-92388095D01*
X109773809Y-92435714D01*
X109630952Y-92435714D01*
X109440476Y-92388095D01*
X109345238Y-92340476D01*
X109250000Y-92245238D01*
X109202380Y-92102380D01*
X109202380Y-92007142D01*
X109250000Y-91864285D01*
X109297619Y-91816666D01*
X109297619Y-91435714D02*
X109250000Y-91388095D01*
X109202380Y-91292857D01*
X109202380Y-91054761D01*
X109250000Y-90959523D01*
X109297619Y-90911904D01*
X109392857Y-90864285D01*
X109488095Y-90864285D01*
X109630952Y-90911904D01*
X110202380Y-91483333D01*
X110202380Y-90864285D01*
%TO.C,C21*%
X128167142Y-74727142D02*
X128119523Y-74774761D01*
X127976666Y-74822380D01*
X127881428Y-74822380D01*
X127738571Y-74774761D01*
X127643333Y-74679523D01*
X127595714Y-74584285D01*
X127548095Y-74393809D01*
X127548095Y-74250952D01*
X127595714Y-74060476D01*
X127643333Y-73965238D01*
X127738571Y-73870000D01*
X127881428Y-73822380D01*
X127976666Y-73822380D01*
X128119523Y-73870000D01*
X128167142Y-73917619D01*
X128548095Y-73917619D02*
X128595714Y-73870000D01*
X128690952Y-73822380D01*
X128929047Y-73822380D01*
X129024285Y-73870000D01*
X129071904Y-73917619D01*
X129119523Y-74012857D01*
X129119523Y-74108095D01*
X129071904Y-74250952D01*
X128500476Y-74822380D01*
X129119523Y-74822380D01*
X130071904Y-74822380D02*
X129500476Y-74822380D01*
X129786190Y-74822380D02*
X129786190Y-73822380D01*
X129690952Y-73965238D01*
X129595714Y-74060476D01*
X129500476Y-74108095D01*
%TO.C,C16*%
X93607142Y-69357142D02*
X93559523Y-69404761D01*
X93416666Y-69452380D01*
X93321428Y-69452380D01*
X93178571Y-69404761D01*
X93083333Y-69309523D01*
X93035714Y-69214285D01*
X92988095Y-69023809D01*
X92988095Y-68880952D01*
X93035714Y-68690476D01*
X93083333Y-68595238D01*
X93178571Y-68500000D01*
X93321428Y-68452380D01*
X93416666Y-68452380D01*
X93559523Y-68500000D01*
X93607142Y-68547619D01*
X94559523Y-69452380D02*
X93988095Y-69452380D01*
X94273809Y-69452380D02*
X94273809Y-68452380D01*
X94178571Y-68595238D01*
X94083333Y-68690476D01*
X93988095Y-68738095D01*
X95416666Y-68452380D02*
X95226190Y-68452380D01*
X95130952Y-68500000D01*
X95083333Y-68547619D01*
X94988095Y-68690476D01*
X94940476Y-68880952D01*
X94940476Y-69261904D01*
X94988095Y-69357142D01*
X95035714Y-69404761D01*
X95130952Y-69452380D01*
X95321428Y-69452380D01*
X95416666Y-69404761D01*
X95464285Y-69357142D01*
X95511904Y-69261904D01*
X95511904Y-69023809D01*
X95464285Y-68928571D01*
X95416666Y-68880952D01*
X95321428Y-68833333D01*
X95130952Y-68833333D01*
X95035714Y-68880952D01*
X94988095Y-68928571D01*
X94940476Y-69023809D01*
D12*
%TO.C,U5*%
X129412380Y-82304523D02*
X129412380Y-83332619D01*
X129472857Y-83453571D01*
X129533333Y-83514047D01*
X129654285Y-83574523D01*
X129896190Y-83574523D01*
X130017142Y-83514047D01*
X130077619Y-83453571D01*
X130138095Y-83332619D01*
X130138095Y-82304523D01*
X131347619Y-82304523D02*
X130742857Y-82304523D01*
X130682380Y-82909285D01*
X130742857Y-82848809D01*
X130863809Y-82788333D01*
X131166190Y-82788333D01*
X131287142Y-82848809D01*
X131347619Y-82909285D01*
X131408095Y-83030238D01*
X131408095Y-83332619D01*
X131347619Y-83453571D01*
X131287142Y-83514047D01*
X131166190Y-83574523D01*
X130863809Y-83574523D01*
X130742857Y-83514047D01*
X130682380Y-83453571D01*
%TO.C,TP2*%
X113554523Y-105102619D02*
X113554523Y-104376904D01*
X114824523Y-104739761D02*
X113554523Y-104739761D01*
X114824523Y-103953571D02*
X113554523Y-103953571D01*
X113554523Y-103469761D01*
X113615000Y-103348809D01*
X113675476Y-103288333D01*
X113796428Y-103227857D01*
X113977857Y-103227857D01*
X114098809Y-103288333D01*
X114159285Y-103348809D01*
X114219761Y-103469761D01*
X114219761Y-103953571D01*
X113675476Y-102744047D02*
X113615000Y-102683571D01*
X113554523Y-102562619D01*
X113554523Y-102260238D01*
X113615000Y-102139285D01*
X113675476Y-102078809D01*
X113796428Y-102018333D01*
X113917380Y-102018333D01*
X114098809Y-102078809D01*
X114824523Y-102804523D01*
X114824523Y-102018333D01*
%TO.C,TP1*%
X100397380Y-97804523D02*
X101123095Y-97804523D01*
X100760238Y-99074523D02*
X100760238Y-97804523D01*
X101546428Y-99074523D02*
X101546428Y-97804523D01*
X102030238Y-97804523D01*
X102151190Y-97865000D01*
X102211666Y-97925476D01*
X102272142Y-98046428D01*
X102272142Y-98227857D01*
X102211666Y-98348809D01*
X102151190Y-98409285D01*
X102030238Y-98469761D01*
X101546428Y-98469761D01*
X103481666Y-99074523D02*
X102755952Y-99074523D01*
X103118809Y-99074523D02*
X103118809Y-97804523D01*
X102997857Y-97985952D01*
X102876904Y-98106904D01*
X102755952Y-98167380D01*
%TO.C,U4*%
X121304523Y-86967619D02*
X122332619Y-86967619D01*
X122453571Y-86907142D01*
X122514047Y-86846666D01*
X122574523Y-86725714D01*
X122574523Y-86483809D01*
X122514047Y-86362857D01*
X122453571Y-86302380D01*
X122332619Y-86241904D01*
X121304523Y-86241904D01*
X121727857Y-85092857D02*
X122574523Y-85092857D01*
X121244047Y-85395238D02*
X122151190Y-85697619D01*
X122151190Y-84911428D01*
%TO.C,J3*%
X72076666Y-100274523D02*
X72076666Y-101181666D01*
X72016190Y-101363095D01*
X71895238Y-101484047D01*
X71713809Y-101544523D01*
X71592857Y-101544523D01*
X72560476Y-100274523D02*
X73346666Y-100274523D01*
X72923333Y-100758333D01*
X73104761Y-100758333D01*
X73225714Y-100818809D01*
X73286190Y-100879285D01*
X73346666Y-101000238D01*
X73346666Y-101302619D01*
X73286190Y-101423571D01*
X73225714Y-101484047D01*
X73104761Y-101544523D01*
X72741904Y-101544523D01*
X72620952Y-101484047D01*
X72560476Y-101423571D01*
D11*
%TO.C,L2*%
X98202380Y-83166666D02*
X98202380Y-83642857D01*
X97202380Y-83642857D01*
X97297619Y-82880952D02*
X97250000Y-82833333D01*
X97202380Y-82738095D01*
X97202380Y-82500000D01*
X97250000Y-82404761D01*
X97297619Y-82357142D01*
X97392857Y-82309523D01*
X97488095Y-82309523D01*
X97630952Y-82357142D01*
X98202380Y-82928571D01*
X98202380Y-82309523D01*
D12*
%TO.C,D1*%
X102087619Y-90324523D02*
X102087619Y-89054523D01*
X102390000Y-89054523D01*
X102571428Y-89115000D01*
X102692380Y-89235952D01*
X102752857Y-89356904D01*
X102813333Y-89598809D01*
X102813333Y-89780238D01*
X102752857Y-90022142D01*
X102692380Y-90143095D01*
X102571428Y-90264047D01*
X102390000Y-90324523D01*
X102087619Y-90324523D01*
X104022857Y-90324523D02*
X103297142Y-90324523D01*
X103660000Y-90324523D02*
X103660000Y-89054523D01*
X103539047Y-89235952D01*
X103418095Y-89356904D01*
X103297142Y-89417380D01*
%TO.C,J6*%
X126881666Y-101474523D02*
X126881666Y-102381666D01*
X126821190Y-102563095D01*
X126700238Y-102684047D01*
X126518809Y-102744523D01*
X126397857Y-102744523D01*
X128030714Y-101474523D02*
X127788809Y-101474523D01*
X127667857Y-101535000D01*
X127607380Y-101595476D01*
X127486428Y-101776904D01*
X127425952Y-102018809D01*
X127425952Y-102502619D01*
X127486428Y-102623571D01*
X127546904Y-102684047D01*
X127667857Y-102744523D01*
X127909761Y-102744523D01*
X128030714Y-102684047D01*
X128091190Y-102623571D01*
X128151666Y-102502619D01*
X128151666Y-102200238D01*
X128091190Y-102079285D01*
X128030714Y-102018809D01*
X127909761Y-101958333D01*
X127667857Y-101958333D01*
X127546904Y-102018809D01*
X127486428Y-102079285D01*
X127425952Y-102200238D01*
%TO.C,J4*%
X72076666Y-79632623D02*
X72076666Y-80539766D01*
X72016190Y-80721195D01*
X71895238Y-80842147D01*
X71713809Y-80902623D01*
X71592857Y-80902623D01*
X73225714Y-80055957D02*
X73225714Y-80902623D01*
X72923333Y-79572147D02*
X72620952Y-80479290D01*
X73407142Y-80479290D01*
%TO.C,J5*%
X72076666Y-89974523D02*
X72076666Y-90881666D01*
X72016190Y-91063095D01*
X71895238Y-91184047D01*
X71713809Y-91244523D01*
X71592857Y-91244523D01*
X73286190Y-89974523D02*
X72681428Y-89974523D01*
X72620952Y-90579285D01*
X72681428Y-90518809D01*
X72802380Y-90458333D01*
X73104761Y-90458333D01*
X73225714Y-90518809D01*
X73286190Y-90579285D01*
X73346666Y-90700238D01*
X73346666Y-91002619D01*
X73286190Y-91123571D01*
X73225714Y-91184047D01*
X73104761Y-91244523D01*
X72802380Y-91244523D01*
X72681428Y-91184047D01*
X72620952Y-91123571D01*
D11*
%TO.C,U1*%
X115488095Y-95452380D02*
X115488095Y-96261904D01*
X115535714Y-96357142D01*
X115583333Y-96404761D01*
X115678571Y-96452380D01*
X115869047Y-96452380D01*
X115964285Y-96404761D01*
X116011904Y-96357142D01*
X116059523Y-96261904D01*
X116059523Y-95452380D01*
X117059523Y-96452380D02*
X116488095Y-96452380D01*
X116773809Y-96452380D02*
X116773809Y-95452380D01*
X116678571Y-95595238D01*
X116583333Y-95690476D01*
X116488095Y-95738095D01*
D12*
%TO.C,TP3*%
X119897380Y-94304523D02*
X120623095Y-94304523D01*
X120260238Y-95574523D02*
X120260238Y-94304523D01*
X121046428Y-95574523D02*
X121046428Y-94304523D01*
X121530238Y-94304523D01*
X121651190Y-94365000D01*
X121711666Y-94425476D01*
X121772142Y-94546428D01*
X121772142Y-94727857D01*
X121711666Y-94848809D01*
X121651190Y-94909285D01*
X121530238Y-94969761D01*
X121046428Y-94969761D01*
X122195476Y-94304523D02*
X122981666Y-94304523D01*
X122558333Y-94788333D01*
X122739761Y-94788333D01*
X122860714Y-94848809D01*
X122921190Y-94909285D01*
X122981666Y-95030238D01*
X122981666Y-95332619D01*
X122921190Y-95453571D01*
X122860714Y-95514047D01*
X122739761Y-95574523D01*
X122376904Y-95574523D01*
X122255952Y-95514047D01*
X122195476Y-95453571D01*
D11*
%TO.C,U3*%
X93488095Y-79702380D02*
X93488095Y-80511904D01*
X93535714Y-80607142D01*
X93583333Y-80654761D01*
X93678571Y-80702380D01*
X93869047Y-80702380D01*
X93964285Y-80654761D01*
X94011904Y-80607142D01*
X94059523Y-80511904D01*
X94059523Y-79702380D01*
X94440476Y-79702380D02*
X95059523Y-79702380D01*
X94726190Y-80083333D01*
X94869047Y-80083333D01*
X94964285Y-80130952D01*
X95011904Y-80178571D01*
X95059523Y-80273809D01*
X95059523Y-80511904D01*
X95011904Y-80607142D01*
X94964285Y-80654761D01*
X94869047Y-80702380D01*
X94583333Y-80702380D01*
X94488095Y-80654761D01*
X94440476Y-80607142D01*
D12*
%TO.C,J1*%
X116804523Y-72545233D02*
X117711666Y-72545233D01*
X117893095Y-72605709D01*
X118014047Y-72726661D01*
X118074523Y-72908090D01*
X118074523Y-73029042D01*
X118074523Y-71275233D02*
X118074523Y-72000947D01*
X118074523Y-71638090D02*
X116804523Y-71638090D01*
X116985952Y-71759042D01*
X117106904Y-71879995D01*
X117167380Y-72000947D01*
D11*
%TO.C,C10*%
X86857142Y-87642857D02*
X86904761Y-87690476D01*
X86952380Y-87833333D01*
X86952380Y-87928571D01*
X86904761Y-88071428D01*
X86809523Y-88166666D01*
X86714285Y-88214285D01*
X86523809Y-88261904D01*
X86380952Y-88261904D01*
X86190476Y-88214285D01*
X86095238Y-88166666D01*
X86000000Y-88071428D01*
X85952380Y-87928571D01*
X85952380Y-87833333D01*
X86000000Y-87690476D01*
X86047619Y-87642857D01*
X86952380Y-86690476D02*
X86952380Y-87261904D01*
X86952380Y-86976190D02*
X85952380Y-86976190D01*
X86095238Y-87071428D01*
X86190476Y-87166666D01*
X86238095Y-87261904D01*
X85952380Y-86071428D02*
X85952380Y-85976190D01*
X86000000Y-85880952D01*
X86047619Y-85833333D01*
X86142857Y-85785714D01*
X86333333Y-85738095D01*
X86571428Y-85738095D01*
X86761904Y-85785714D01*
X86857142Y-85833333D01*
X86904761Y-85880952D01*
X86952380Y-85976190D01*
X86952380Y-86071428D01*
X86904761Y-86166666D01*
X86857142Y-86214285D01*
X86761904Y-86261904D01*
X86571428Y-86309523D01*
X86333333Y-86309523D01*
X86142857Y-86261904D01*
X86047619Y-86214285D01*
X86000000Y-86166666D01*
X85952380Y-86071428D01*
%TO.C,U2*%
X91738095Y-104202380D02*
X91738095Y-105011904D01*
X91785714Y-105107142D01*
X91833333Y-105154761D01*
X91928571Y-105202380D01*
X92119047Y-105202380D01*
X92214285Y-105154761D01*
X92261904Y-105107142D01*
X92309523Y-105011904D01*
X92309523Y-104202380D01*
X92738095Y-104297619D02*
X92785714Y-104250000D01*
X92880952Y-104202380D01*
X93119047Y-104202380D01*
X93214285Y-104250000D01*
X93261904Y-104297619D01*
X93309523Y-104392857D01*
X93309523Y-104488095D01*
X93261904Y-104630952D01*
X92690476Y-105202380D01*
X93309523Y-105202380D01*
%TO.C,J2*%
X136416666Y-73702380D02*
X136416666Y-74416666D01*
X136369047Y-74559523D01*
X136273809Y-74654761D01*
X136130952Y-74702380D01*
X136035714Y-74702380D01*
X136845238Y-73797619D02*
X136892857Y-73750000D01*
X136988095Y-73702380D01*
X137226190Y-73702380D01*
X137321428Y-73750000D01*
X137369047Y-73797619D01*
X137416666Y-73892857D01*
X137416666Y-73988095D01*
X137369047Y-74130952D01*
X136797619Y-74702380D01*
X137416666Y-74702380D01*
%TO.C,C15*%
X97707142Y-110857142D02*
X97659523Y-110904761D01*
X97516666Y-110952380D01*
X97421428Y-110952380D01*
X97278571Y-110904761D01*
X97183333Y-110809523D01*
X97135714Y-110714285D01*
X97088095Y-110523809D01*
X97088095Y-110380952D01*
X97135714Y-110190476D01*
X97183333Y-110095238D01*
X97278571Y-110000000D01*
X97421428Y-109952380D01*
X97516666Y-109952380D01*
X97659523Y-110000000D01*
X97707142Y-110047619D01*
X98659523Y-110952380D02*
X98088095Y-110952380D01*
X98373809Y-110952380D02*
X98373809Y-109952380D01*
X98278571Y-110095238D01*
X98183333Y-110190476D01*
X98088095Y-110238095D01*
X99564285Y-109952380D02*
X99088095Y-109952380D01*
X99040476Y-110428571D01*
X99088095Y-110380952D01*
X99183333Y-110333333D01*
X99421428Y-110333333D01*
X99516666Y-110380952D01*
X99564285Y-110428571D01*
X99611904Y-110523809D01*
X99611904Y-110761904D01*
X99564285Y-110857142D01*
X99516666Y-110904761D01*
X99421428Y-110952380D01*
X99183333Y-110952380D01*
X99088095Y-110904761D01*
X99040476Y-110857142D01*
%TO.C,L1*%
X109333333Y-83502380D02*
X108857142Y-83502380D01*
X108857142Y-82502380D01*
X110190476Y-83502380D02*
X109619047Y-83502380D01*
X109904761Y-83502380D02*
X109904761Y-82502380D01*
X109809523Y-82645238D01*
X109714285Y-82740476D01*
X109619047Y-82788095D01*
%TO.C,C1*%
X104357142Y-80166666D02*
X104404761Y-80214285D01*
X104452380Y-80357142D01*
X104452380Y-80452380D01*
X104404761Y-80595238D01*
X104309523Y-80690476D01*
X104214285Y-80738095D01*
X104023809Y-80785714D01*
X103880952Y-80785714D01*
X103690476Y-80738095D01*
X103595238Y-80690476D01*
X103500000Y-80595238D01*
X103452380Y-80452380D01*
X103452380Y-80357142D01*
X103500000Y-80214285D01*
X103547619Y-80166666D01*
X104452380Y-79214285D02*
X104452380Y-79785714D01*
X104452380Y-79500000D02*
X103452380Y-79500000D01*
X103595238Y-79595238D01*
X103690476Y-79690476D01*
X103738095Y-79785714D01*
D13*
%TO.C,TP4*%
X97812500Y-116570000D02*
G75*
G03*
X97812500Y-116370000I0J100000D01*
G01*
X97812500Y-116370000D02*
G75*
G03*
X97812500Y-116570000I0J-100000D01*
G01*
X97812500Y-116370000D02*
X97812500Y-116370000D01*
X97812500Y-116570000D02*
X97812500Y-116570000D01*
D14*
%TO.C,C5*%
X109140000Y-102570000D02*
X109140000Y-102470000D01*
X109860000Y-102595000D02*
X109860000Y-102470000D01*
%TO.C,C13*%
X98890000Y-101550000D02*
X98890000Y-101450000D01*
X99610000Y-101575000D02*
X99610000Y-101450000D01*
%TO.C,C11*%
X89360000Y-103220000D02*
X89360000Y-103320000D01*
X88640000Y-103195000D02*
X88640000Y-103320000D01*
%TO.C,C18*%
X114545000Y-87530000D02*
X114545000Y-87430000D01*
X115265000Y-87555000D02*
X115265000Y-87430000D01*
%TO.C,C19*%
X123075000Y-81140000D02*
X122950000Y-81140000D01*
X123050000Y-81860000D02*
X122950000Y-81860000D01*
%TO.C,C8*%
X115390000Y-98030000D02*
X115390000Y-97930000D01*
X116110000Y-98055000D02*
X116110000Y-97930000D01*
%TO.C,C20*%
X124095000Y-76640000D02*
X123970000Y-76640000D01*
X124070000Y-77360000D02*
X123970000Y-77360000D01*
%TO.C,C6*%
X106390000Y-96800000D02*
X106390000Y-96700000D01*
X107110000Y-96825000D02*
X107110000Y-96700000D01*
%TO.C,C4*%
X113640000Y-94050000D02*
X113640000Y-93950000D01*
X114360000Y-94075000D02*
X114360000Y-93950000D01*
%TO.C,C17*%
X115795000Y-87530000D02*
X115795000Y-87430000D01*
X116515000Y-87555000D02*
X116515000Y-87430000D01*
%TO.C,C14*%
X98030000Y-77110000D02*
X97930000Y-77110000D01*
X98055000Y-76390000D02*
X97930000Y-76390000D01*
%TO.C,C7*%
X108725000Y-94725000D02*
X108625000Y-94725000D01*
X108750000Y-94005000D02*
X108625000Y-94005000D01*
%TO.C,C12*%
X88716000Y-76470000D02*
X88716000Y-76370000D01*
X89436000Y-76495000D02*
X89436000Y-76370000D01*
%TO.C,R6*%
X97620000Y-100600000D02*
X97620000Y-100400000D01*
X98380000Y-100600000D02*
X98380000Y-100400000D01*
%TO.C,R8*%
X98620000Y-75360000D02*
X98620000Y-75160000D01*
X99380000Y-75360000D02*
X99380000Y-75160000D01*
%TO.C,R5*%
X97620000Y-102850000D02*
X97620000Y-102650000D01*
X98380000Y-102850000D02*
X98380000Y-102650000D01*
%TO.C,R10*%
X116535000Y-84620000D02*
X116535000Y-84820000D01*
X115775000Y-84620000D02*
X115775000Y-84820000D01*
%TO.C,R9*%
X118285000Y-82630000D02*
X118285000Y-82830000D01*
X117525000Y-82630000D02*
X117525000Y-82830000D01*
%TO.C,R4*%
X116620000Y-98110000D02*
X116620000Y-97910000D01*
X117380000Y-98110000D02*
X117380000Y-97910000D01*
%TO.C,R2*%
X105120000Y-96850000D02*
X105120000Y-96650000D01*
X105880000Y-96850000D02*
X105880000Y-96650000D01*
%TO.C,R7*%
X98100000Y-78130000D02*
X97900000Y-78130000D01*
X98100000Y-77370000D02*
X97900000Y-77370000D01*
%TO.C,R1*%
X124150000Y-92120000D02*
X124350000Y-92120000D01*
X124150000Y-92880000D02*
X124350000Y-92880000D01*
%TO.C,R3*%
X106295000Y-94705000D02*
X106295000Y-94505000D01*
X107055000Y-94705000D02*
X107055000Y-94505000D01*
%TO.C,R11*%
X123590000Y-77870000D02*
X123390000Y-77870000D01*
X123590000Y-78630000D02*
X123390000Y-78630000D01*
%TO.C,D2*%
X91576000Y-94170000D02*
X91576000Y-98070000D01*
X93576000Y-94170000D02*
X93576000Y-98070000D01*
X93576000Y-94120000D02*
X91576000Y-94120000D01*
%TO.C,D3*%
X91076000Y-81170000D02*
X91076000Y-85070000D01*
X93076000Y-81170000D02*
X93076000Y-85070000D01*
X93076000Y-81120000D02*
X91076000Y-81120000D01*
%TO.C,C9*%
X89015140Y-98794900D02*
X90450900Y-98794900D01*
X87136860Y-94045100D02*
X85701100Y-94045100D01*
X90450900Y-98794900D02*
X90450900Y-94045100D01*
X90450900Y-94045100D02*
X89015140Y-94045100D01*
X85701100Y-98794900D02*
X87136860Y-98794900D01*
X85701100Y-94045100D02*
X85701100Y-98794900D01*
%TO.C,C3*%
X106315000Y-101900000D02*
X106315000Y-105810000D01*
X106315000Y-105810000D02*
X108185000Y-105810000D01*
X108185000Y-105810000D02*
X108185000Y-101900000D01*
%TO.C,C2*%
X110565000Y-90050000D02*
X110565000Y-93960000D01*
X110565000Y-93960000D02*
X112435000Y-93960000D01*
X112435000Y-93960000D02*
X112435000Y-90050000D01*
%TO.C,C21*%
X125440000Y-77185000D02*
X129350000Y-77185000D01*
X125440000Y-75315000D02*
X125440000Y-77185000D01*
X129350000Y-75315000D02*
X125440000Y-75315000D01*
%TO.C,C16*%
X93201100Y-73359140D02*
X93201100Y-74794900D01*
X97950900Y-71480860D02*
X97950900Y-70045100D01*
X93201100Y-74794900D02*
X97950900Y-74794900D01*
X97950900Y-74794900D02*
X97950900Y-73359140D01*
X93201100Y-70045100D02*
X93201100Y-71480860D01*
X97950900Y-70045100D02*
X93201100Y-70045100D01*
D13*
%TO.C,U5*%
X126600000Y-78500000D02*
X128900000Y-78500000D01*
X126600000Y-81500000D02*
X126600000Y-78500000D01*
X124800000Y-78500000D02*
X126250000Y-78500000D01*
X128900000Y-78500000D02*
X128900000Y-81500000D01*
X128900000Y-81500000D02*
X126600000Y-81500000D01*
%TO.C,TP2*%
X111750000Y-105800000D02*
X111750000Y-105800000D01*
X111950000Y-105800000D02*
X111950000Y-105800000D01*
X111950000Y-105800000D02*
G75*
G03*
X111750000Y-105800000I-100000J0D01*
G01*
X111750000Y-105800000D02*
G75*
G03*
X111950000Y-105800000I100000J0D01*
G01*
%TO.C,TP1*%
X102300000Y-96000000D02*
X102300000Y-96000000D01*
X102300000Y-95800000D02*
X102300000Y-95800000D01*
X102300000Y-95800000D02*
G75*
G03*
X102300000Y-96000000I0J-100000D01*
G01*
X102300000Y-96000000D02*
G75*
G03*
X102300000Y-95800000I0J100000D01*
G01*
%TO.C,U4*%
X117550000Y-86300000D02*
X117550000Y-85700000D01*
X120600000Y-84150000D02*
X120600000Y-85350000D01*
X120450000Y-86300000D02*
X117550000Y-86300000D01*
X117550000Y-85700000D02*
X120450000Y-85700000D01*
X120450000Y-85700000D02*
X120450000Y-86300000D01*
D10*
%TO.C,J3*%
X60500000Y-95890000D02*
X84500000Y-95890000D01*
X84500000Y-95890000D02*
X84500000Y-106050000D01*
X60500000Y-106050000D02*
X60500000Y-95890000D01*
X84500000Y-106050000D02*
X60500000Y-106050000D01*
D14*
%TO.C,L2*%
X101360000Y-82913748D02*
X101360000Y-83436252D01*
X99140000Y-82913748D02*
X99140000Y-83436252D01*
D13*
%TO.C,D1*%
X108000000Y-89250000D02*
X108000000Y-89250000D01*
D10*
X100300000Y-87800000D02*
X104700000Y-87800000D01*
X100300000Y-91700000D02*
X100300000Y-87800000D01*
X104700000Y-87800000D02*
X104700000Y-91700000D01*
D13*
X107800000Y-89250000D02*
X107800000Y-89250000D01*
D10*
X104700000Y-91700000D02*
X100300000Y-91700000D01*
D13*
X108000000Y-89250000D02*
G75*
G03*
X107800000Y-89250000I-100000J0D01*
G01*
X107800000Y-89250000D02*
G75*
G03*
X108000000Y-89250000I100000J0D01*
G01*
D10*
%TO.C,J6*%
X126530000Y-93920000D02*
X126530000Y-99800000D01*
X139610000Y-85040000D02*
X126530000Y-85040000D01*
X126530000Y-99800000D02*
X139610000Y-99800000D01*
X126530000Y-85040000D02*
X126530000Y-88420000D01*
X139610000Y-99800000D02*
X139610000Y-85040000D01*
%TO.C,J4*%
X60500000Y-75248100D02*
X84500000Y-75248100D01*
X84500000Y-85408100D02*
X60500000Y-85408100D01*
X84500000Y-75248100D02*
X84500000Y-85408100D01*
X60500000Y-85408100D02*
X60500000Y-75248100D01*
%TO.C,J5*%
X60500000Y-95750000D02*
X60500000Y-85590000D01*
X60500000Y-85590000D02*
X84500000Y-85590000D01*
X84500000Y-85590000D02*
X84500000Y-95750000D01*
X84500000Y-95750000D02*
X60500000Y-95750000D01*
D14*
%TO.C,U1*%
X111250000Y-95440000D02*
X113200000Y-95440000D01*
X111250000Y-100560000D02*
X109300000Y-100560000D01*
X111250000Y-100560000D02*
X113200000Y-100560000D01*
X111250000Y-95440000D02*
X107800000Y-95440000D01*
D13*
%TO.C,TP3*%
X123550000Y-97500000D02*
X123550000Y-97500000D01*
X123550000Y-97300000D02*
X123550000Y-97300000D01*
X123550000Y-97300000D02*
G75*
G03*
X123550000Y-97500000I0J-100000D01*
G01*
X123550000Y-97500000D02*
G75*
G03*
X123550000Y-97300000I0J100000D01*
G01*
D14*
%TO.C,U3*%
X93646000Y-79070000D02*
X96521000Y-79070000D01*
X93646000Y-75850000D02*
X92146000Y-75850000D01*
X93646000Y-75850000D02*
X95146000Y-75850000D01*
X93646000Y-79070000D02*
X92146000Y-79070000D01*
D15*
%TO.C,J1*%
X107696901Y-71800400D02*
X108696901Y-72300400D01*
X107696901Y-72800400D02*
X107696901Y-71800400D01*
X109371901Y-62160400D02*
X116021901Y-62160400D01*
X108696901Y-72300400D02*
X107696901Y-72800400D01*
D14*
%TO.C,C10*%
X89015140Y-84843901D02*
X90450900Y-84843901D01*
X87136860Y-80094101D02*
X85701100Y-80094101D01*
X90450900Y-84843901D02*
X90450900Y-80094101D01*
X90450900Y-80094101D02*
X89015140Y-80094101D01*
X85701100Y-84843901D02*
X87136860Y-84843901D01*
X85701100Y-80094101D02*
X85701100Y-84843901D01*
%TO.C,U2*%
X93576000Y-103530000D02*
X96451000Y-103530000D01*
X93576000Y-100310000D02*
X92076000Y-100310000D01*
X93576000Y-100310000D02*
X95076000Y-100310000D01*
X93576000Y-103530000D02*
X92076000Y-103530000D01*
%TO.C,J2*%
X137057530Y-82005000D02*
X137860000Y-82005000D01*
X135640000Y-75470000D02*
X136750000Y-75470000D01*
X135640000Y-76230000D02*
X135640000Y-75470000D01*
X135640000Y-76990000D02*
X135640000Y-82005000D01*
X135640000Y-82005000D02*
X136442470Y-82005000D01*
X137313471Y-76990000D02*
X137860000Y-76990000D01*
X135640000Y-76990000D02*
X136186529Y-76990000D01*
X137860000Y-76990000D02*
X137860000Y-82005000D01*
%TO.C,C15*%
X93875100Y-107939140D02*
X93875100Y-109374900D01*
X98624900Y-106060860D02*
X98624900Y-104625100D01*
X93875100Y-109374900D02*
X98624900Y-109374900D01*
X98624900Y-109374900D02*
X98624900Y-107939140D01*
X93875100Y-104625100D02*
X93875100Y-106060860D01*
X98624900Y-104625100D02*
X93875100Y-104625100D01*
%TO.C,L1*%
X108511252Y-82110000D02*
X107988748Y-82110000D01*
X108511252Y-79890000D02*
X107988748Y-79890000D01*
%TO.C,C1*%
X102640000Y-84186252D02*
X102640000Y-82763748D01*
X105360000Y-84186252D02*
X105360000Y-82763748D01*
%TD*%
%LPC*%
D16*
%TO.C,TP4*%
X95512500Y-116570000D03*
%TD*%
D17*
%TO.C,C5*%
X109500000Y-103000000D03*
X109500000Y-102040000D03*
%TD*%
%TO.C,C13*%
X99250000Y-101980000D03*
X99250000Y-101020000D03*
%TD*%
D18*
%TO.C,C11*%
X89000000Y-102790000D03*
X89000000Y-103750000D03*
%TD*%
D17*
%TO.C,C18*%
X114905000Y-87960000D03*
X114905000Y-87000000D03*
%TD*%
D19*
%TO.C,C19*%
X122520000Y-81500000D03*
X123480000Y-81500000D03*
%TD*%
D17*
%TO.C,C8*%
X115750000Y-98460000D03*
X115750000Y-97500000D03*
%TD*%
D19*
%TO.C,C20*%
X123540000Y-77000000D03*
X124500000Y-77000000D03*
%TD*%
D17*
%TO.C,C6*%
X106750000Y-97230000D03*
X106750000Y-96270000D03*
%TD*%
%TO.C,C4*%
X114000000Y-94480000D03*
X114000000Y-93520000D03*
%TD*%
%TO.C,C17*%
X116155000Y-87960000D03*
X116155000Y-87000000D03*
%TD*%
D19*
%TO.C,C14*%
X98460000Y-76750000D03*
X97500000Y-76750000D03*
%TD*%
%TO.C,C7*%
X109155000Y-94365000D03*
X108195000Y-94365000D03*
%TD*%
D17*
%TO.C,C12*%
X89076000Y-76900000D03*
X89076000Y-75940000D03*
%TD*%
D20*
%TO.C,R6*%
X98000000Y-101010000D03*
X98000000Y-99990000D03*
%TD*%
%TO.C,R8*%
X99000000Y-75770000D03*
X99000000Y-74750000D03*
%TD*%
%TO.C,R5*%
X98000000Y-103260000D03*
X98000000Y-102240000D03*
%TD*%
D21*
%TO.C,R10*%
X116155000Y-84210000D03*
X116155000Y-85230000D03*
%TD*%
%TO.C,R9*%
X117905000Y-82220000D03*
X117905000Y-83240000D03*
%TD*%
D20*
%TO.C,R4*%
X117000000Y-98520000D03*
X117000000Y-97500000D03*
%TD*%
%TO.C,R2*%
X105500000Y-97260000D03*
X105500000Y-96240000D03*
%TD*%
D22*
%TO.C,R7*%
X98510000Y-77750000D03*
X97490000Y-77750000D03*
%TD*%
D23*
%TO.C,R1*%
X123740000Y-92500000D03*
X124760000Y-92500000D03*
%TD*%
D20*
%TO.C,R3*%
X106675000Y-95115000D03*
X106675000Y-94095000D03*
%TD*%
D22*
%TO.C,R11*%
X122980000Y-78250000D03*
X124000000Y-78250000D03*
%TD*%
D24*
%TO.C,D2*%
X92576000Y-94770000D03*
X92576000Y-98070000D03*
%TD*%
%TO.C,D3*%
X92076000Y-81770000D03*
X92076000Y-85070000D03*
%TD*%
D25*
%TO.C,C9*%
X88076000Y-94469001D03*
X88076000Y-98370999D03*
%TD*%
D26*
%TO.C,C3*%
X107250000Y-104850000D03*
X107250000Y-102150000D03*
%TD*%
%TO.C,C2*%
X111500000Y-93000000D03*
X111500000Y-90300000D03*
%TD*%
D27*
%TO.C,C21*%
X129100000Y-76250000D03*
X126400000Y-76250000D03*
%TD*%
D28*
%TO.C,REF\u002A\u002A*%
X135076000Y-66920000D03*
%TD*%
%TO.C,REF\u002A\u002A*%
X135076000Y-116920000D03*
%TD*%
%TO.C,REF\u002A\u002A*%
X65076000Y-116920000D03*
%TD*%
%TO.C,REF\u002A\u002A*%
X65076000Y-66920000D03*
%TD*%
D29*
%TO.C,C16*%
X97526999Y-72420000D03*
X93625001Y-72420000D03*
%TD*%
D30*
%TO.C,U5*%
X129975000Y-79000000D03*
X129975000Y-79500000D03*
X129975000Y-80000000D03*
X129975000Y-80500000D03*
X129975000Y-81000000D03*
X125525000Y-81000000D03*
X125525000Y-80500000D03*
X125525000Y-80000000D03*
X125525000Y-79500000D03*
X125525000Y-79000000D03*
%TD*%
D31*
%TO.C,TP2*%
X111750000Y-103500000D03*
%TD*%
D16*
%TO.C,TP1*%
X100000000Y-96000000D03*
%TD*%
D32*
%TO.C,U4*%
X119950000Y-84750000D03*
X119000000Y-84750000D03*
X118050000Y-84750000D03*
X118050000Y-87250000D03*
X119000000Y-87250000D03*
X119950000Y-87250000D03*
%TD*%
D33*
%TO.C,J3*%
X64750000Y-100970000D03*
X80250000Y-100970000D03*
%TD*%
D34*
%TO.C,L2*%
X100250000Y-82100000D03*
X100250000Y-84250000D03*
%TD*%
D35*
%TO.C,D1*%
X106075000Y-89750000D03*
X98925000Y-89750000D03*
%TD*%
D36*
%TO.C,J6*%
X127170000Y-89880000D03*
X127170000Y-92420000D03*
D37*
X132250000Y-87340000D03*
X132250000Y-97500000D03*
%TD*%
D33*
%TO.C,J4*%
X80250000Y-80328100D03*
X64750000Y-80328100D03*
%TD*%
%TO.C,J5*%
X80250000Y-90670000D03*
X64750000Y-90670000D03*
%TD*%
D38*
%TO.C,U1*%
X108675000Y-96095000D03*
X108675000Y-97365000D03*
X108675000Y-98635000D03*
X108675000Y-99905000D03*
X113825000Y-99905000D03*
X113825000Y-98635000D03*
X113825000Y-97365000D03*
X113825000Y-96095000D03*
%TD*%
D16*
%TO.C,TP3*%
X121250000Y-97500000D03*
%TD*%
D39*
%TO.C,U3*%
X95808500Y-78435000D03*
X95808500Y-77785000D03*
X95808500Y-77135000D03*
X95808500Y-76485000D03*
X91483500Y-76485000D03*
X91483500Y-77135000D03*
X91483500Y-77785000D03*
X91483500Y-78435000D03*
D40*
X93646000Y-77460000D03*
%TD*%
D41*
%TO.C,J1*%
X112696901Y-76930400D03*
X112696901Y-72300400D03*
D42*
X116581901Y-66830400D03*
X108811901Y-66830400D03*
%TD*%
D25*
%TO.C,C10*%
X88076000Y-80518002D03*
X88076000Y-84420000D03*
%TD*%
D39*
%TO.C,U2*%
X95738500Y-102895000D03*
X95738500Y-102245000D03*
X95738500Y-101595000D03*
X95738500Y-100945000D03*
X91413500Y-100945000D03*
X91413500Y-101595000D03*
X91413500Y-102245000D03*
X91413500Y-102895000D03*
D40*
X93576000Y-101920000D03*
%TD*%
D43*
%TO.C,J2*%
X136750000Y-76230000D03*
D44*
X136750000Y-77500000D03*
X136750000Y-78770000D03*
X136750000Y-80040000D03*
X136750000Y-81310000D03*
%TD*%
D29*
%TO.C,C15*%
X98200999Y-107000000D03*
X94299001Y-107000000D03*
%TD*%
D45*
%TO.C,L1*%
X109325000Y-81000000D03*
X107175000Y-81000000D03*
%TD*%
D46*
%TO.C,C1*%
X104000000Y-84950000D03*
X104000000Y-82000000D03*
%TD*%
M02*
