%TF.GenerationSoftware,KiCad,Pcbnew,6.0.4-6f826c9f35~116~ubuntu18.04.1*%
%TF.CreationDate,2022-05-26T20:07:40+01:00*%
%TF.ProjectId,cosmic_ray_detector,636f736d-6963-45f7-9261-795f64657465,1*%
%TF.SameCoordinates,Original*%
%TF.FileFunction,Copper,L2,Inr*%
%TF.FilePolarity,Positive*%
%FSLAX46Y46*%
G04 Gerber Fmt 4.6, Leading zero omitted, Abs format (unit mm)*
G04 Created by KiCad (PCBNEW 6.0.4-6f826c9f35~116~ubuntu18.04.1) date 2022-05-26 20:07:40*
%MOMM*%
%LPD*%
G01*
G04 APERTURE LIST*
%TA.AperFunction,ComponentPad*%
%ADD10C,2.955000*%
%TD*%
%TA.AperFunction,ComponentPad*%
%ADD11C,1.540000*%
%TD*%
%TA.AperFunction,ComponentPad*%
%ADD12C,3.165000*%
%TD*%
%TA.AperFunction,ComponentPad*%
%ADD13C,0.500000*%
%TD*%
%TA.AperFunction,ComponentPad*%
%ADD14R,1.000000X1.000000*%
%TD*%
%TA.AperFunction,ComponentPad*%
%ADD15O,1.000000X1.000000*%
%TD*%
%TA.AperFunction,ViaPad*%
%ADD16C,0.800000*%
%TD*%
%TA.AperFunction,ViaPad*%
%ADD17C,0.600000*%
%TD*%
G04 APERTURE END LIST*
D10*
%TO.N,/Power Regulators/-VIN*%
%TO.C,J3*%
X64750000Y-100970000D03*
X80250000Y-100970000D03*
%TD*%
D11*
%TO.N,GNDA*%
%TO.C,J6*%
X127170000Y-89880000D03*
%TO.N,Net-(J6-Pad1)*%
X127170000Y-92420000D03*
D12*
%TO.N,*%
X132250000Y-87340000D03*
X132250000Y-97500000D03*
%TD*%
D10*
%TO.N,/Power Regulators/+VIN*%
%TO.C,J4*%
X80250000Y-80328100D03*
X64750000Y-80328100D03*
%TD*%
%TO.N,GNDA*%
%TO.C,J5*%
X80250000Y-90670000D03*
X64750000Y-90670000D03*
%TD*%
D13*
%TO.N,GNDA*%
%TO.C,U3*%
X94196000Y-76810000D03*
X94196000Y-78110000D03*
X93096000Y-78110000D03*
X93096000Y-76810000D03*
%TD*%
%TO.N,GNDA*%
%TO.C,U2*%
X94126000Y-101270000D03*
X94126000Y-102570000D03*
X93026000Y-102570000D03*
X93026000Y-101270000D03*
%TD*%
D14*
%TO.N,/threshold_setting/SPI.~{SYNC}*%
%TO.C,J2*%
X136750000Y-76230000D03*
D15*
%TO.N,/threshold_setting/SPI.SCK*%
X136750000Y-77500000D03*
%TO.N,/threshold_setting/SPI.SDI*%
X136750000Y-78770000D03*
%TO.N,/threshold_setting/SPI.SDO*%
X136750000Y-80040000D03*
%TO.N,GNDA*%
X136750000Y-81310000D03*
%TD*%
D16*
%TO.N,GNDA*%
X88640000Y-111650000D03*
X130000000Y-81750000D03*
%TO.N,/Power Regulators/+VIN*%
X91000000Y-75750000D03*
X90500000Y-80000000D03*
%TO.N,/Power Regulators/-VIN*%
X91250000Y-104000000D03*
X87750000Y-101500000D03*
D17*
%TO.N,GNDA*%
X88750000Y-105750000D03*
X88750000Y-106500000D03*
X88750000Y-107250000D03*
X88750000Y-108000000D03*
X88750000Y-108750000D03*
X88000000Y-108750000D03*
X88000000Y-108000000D03*
X88000000Y-107250000D03*
X88000000Y-106500000D03*
X88000000Y-105750000D03*
X88000000Y-69000000D03*
X88000000Y-69750000D03*
X88000000Y-70500000D03*
X88000000Y-71250000D03*
X88000000Y-72000000D03*
X87000000Y-72000000D03*
X87000000Y-71250000D03*
X87000000Y-70500000D03*
X87000000Y-69750000D03*
X87000000Y-69000000D03*
%TO.N,+5VA*%
X99750000Y-73250000D03*
X100750000Y-73250000D03*
X100750000Y-72500000D03*
X99750000Y-72500000D03*
X99750000Y-71750000D03*
X100750000Y-71750000D03*
X100750000Y-71000000D03*
X99750000Y-71000000D03*
%TO.N,-5VA*%
X100000000Y-105250000D03*
X99250000Y-105250000D03*
X98500000Y-105250000D03*
X97750000Y-105250000D03*
X97750000Y-104500000D03*
X98500000Y-104500000D03*
X99250000Y-104500000D03*
X100000000Y-104500000D03*
D16*
%TO.N,GNDA*%
X107000000Y-85250000D03*
X106000000Y-99000000D03*
X116250000Y-100500000D03*
X114000000Y-92250000D03*
X111000000Y-88750000D03*
X114000000Y-86500000D03*
X112750000Y-79500000D03*
%TO.N,+5VA*%
X125500000Y-78000000D03*
X115750000Y-93500000D03*
X116000000Y-89250000D03*
%TO.N,GNDA*%
X107250000Y-107750000D03*
%TO.N,-5VA*%
X105500000Y-102000000D03*
%TO.N,GNDA*%
X121750000Y-88250000D03*
X119000000Y-83000000D03*
X122750000Y-82750000D03*
X121000000Y-78250000D03*
X123500000Y-76000000D03*
X131000000Y-76000000D03*
D17*
%TO.N,/comparator/VREF*%
X116750000Y-82250000D03*
X127500000Y-79500000D03*
%TD*%
%TA.AperFunction,Conductor*%
%TO.N,+5VA*%
G36*
X102015931Y-69020002D02*
G01*
X102036905Y-69036905D01*
X108250000Y-75250000D01*
X122927282Y-75250000D01*
X122995403Y-75270002D01*
X123041896Y-75323658D01*
X123052000Y-75393932D01*
X123022506Y-75458512D01*
X123015439Y-75466024D01*
X122943155Y-75536810D01*
X122938120Y-75541741D01*
X122850556Y-75677613D01*
X122848145Y-75684236D01*
X122848144Y-75684239D01*
X122797681Y-75822885D01*
X122797680Y-75822890D01*
X122795271Y-75829508D01*
X122775012Y-75989877D01*
X122790785Y-76150748D01*
X122841808Y-76304128D01*
X122845455Y-76310150D01*
X122845456Y-76310152D01*
X122854349Y-76324835D01*
X122925543Y-76442391D01*
X123037830Y-76558668D01*
X123173087Y-76647177D01*
X123179687Y-76649632D01*
X123179688Y-76649632D01*
X123317990Y-76701067D01*
X123317992Y-76701068D01*
X123324592Y-76703522D01*
X123331570Y-76704453D01*
X123331574Y-76704454D01*
X123379806Y-76710889D01*
X123484816Y-76724900D01*
X123491827Y-76724262D01*
X123491831Y-76724262D01*
X123638772Y-76710889D01*
X123645793Y-76710250D01*
X123652495Y-76708072D01*
X123652497Y-76708072D01*
X123792825Y-76662476D01*
X123799525Y-76660299D01*
X123817419Y-76649632D01*
X123932318Y-76581139D01*
X123932320Y-76581138D01*
X123938370Y-76577531D01*
X124055427Y-76466059D01*
X124067788Y-76447455D01*
X124140978Y-76337294D01*
X124144879Y-76331423D01*
X124202280Y-76180315D01*
X124205496Y-76157433D01*
X124224225Y-76024169D01*
X124224226Y-76024162D01*
X124224776Y-76020245D01*
X124225059Y-76000000D01*
X124207041Y-75839364D01*
X124201303Y-75822885D01*
X124156200Y-75693369D01*
X124153882Y-75686712D01*
X124148197Y-75677613D01*
X124071957Y-75555605D01*
X124068224Y-75549631D01*
X123983967Y-75464783D01*
X123950160Y-75402354D01*
X123955472Y-75331556D01*
X123998216Y-75274869D01*
X124064823Y-75250290D01*
X124073373Y-75250000D01*
X130427282Y-75250000D01*
X130495403Y-75270002D01*
X130541896Y-75323658D01*
X130552000Y-75393932D01*
X130522506Y-75458512D01*
X130515439Y-75466024D01*
X130443155Y-75536810D01*
X130438120Y-75541741D01*
X130350556Y-75677613D01*
X130348145Y-75684236D01*
X130348144Y-75684239D01*
X130297681Y-75822885D01*
X130297680Y-75822890D01*
X130295271Y-75829508D01*
X130275012Y-75989877D01*
X130290785Y-76150748D01*
X130341808Y-76304128D01*
X130345455Y-76310150D01*
X130345456Y-76310152D01*
X130354349Y-76324835D01*
X130425543Y-76442391D01*
X130537830Y-76558668D01*
X130673087Y-76647177D01*
X130679687Y-76649632D01*
X130679688Y-76649632D01*
X130817990Y-76701067D01*
X130817992Y-76701068D01*
X130824592Y-76703522D01*
X130831570Y-76704453D01*
X130831574Y-76704454D01*
X130879806Y-76710889D01*
X130984816Y-76724900D01*
X130991827Y-76724262D01*
X130991831Y-76724262D01*
X131138772Y-76710889D01*
X131145793Y-76710250D01*
X131152495Y-76708072D01*
X131152497Y-76708072D01*
X131292825Y-76662476D01*
X131299525Y-76660299D01*
X131317419Y-76649632D01*
X131432318Y-76581139D01*
X131432320Y-76581138D01*
X131438370Y-76577531D01*
X131555427Y-76466059D01*
X131567788Y-76447455D01*
X131640978Y-76337294D01*
X131644879Y-76331423D01*
X131702280Y-76180315D01*
X131705496Y-76157433D01*
X131724225Y-76024169D01*
X131724226Y-76024162D01*
X131724776Y-76020245D01*
X131725059Y-76000000D01*
X131707041Y-75839364D01*
X131701303Y-75822885D01*
X131656200Y-75693369D01*
X131653882Y-75686712D01*
X131648197Y-75677613D01*
X131571957Y-75555605D01*
X131568224Y-75549631D01*
X131483967Y-75464783D01*
X131450160Y-75402354D01*
X131455472Y-75331556D01*
X131498216Y-75274869D01*
X131564823Y-75250290D01*
X131573373Y-75250000D01*
X132374000Y-75250000D01*
X132442121Y-75270002D01*
X132488614Y-75323658D01*
X132500000Y-75376000D01*
X132500000Y-85334123D01*
X132479998Y-85402244D01*
X132426342Y-85448737D01*
X132363129Y-85459653D01*
X132279652Y-85452423D01*
X132275217Y-85452667D01*
X132275213Y-85452667D01*
X132017838Y-85466831D01*
X132017831Y-85466832D01*
X132013395Y-85467076D01*
X131751858Y-85519099D01*
X131500260Y-85607454D01*
X131453280Y-85631858D01*
X131336749Y-85692391D01*
X131263622Y-85730377D01*
X131260007Y-85732960D01*
X131260001Y-85732964D01*
X131127668Y-85827531D01*
X131046665Y-85885417D01*
X130853717Y-86069480D01*
X130688629Y-86278893D01*
X130628393Y-86382597D01*
X130556929Y-86505631D01*
X130556926Y-86505637D01*
X130554695Y-86509478D01*
X130454586Y-86756635D01*
X130390301Y-87015431D01*
X130363122Y-87280702D01*
X130363297Y-87285154D01*
X130373383Y-87541855D01*
X130373591Y-87547158D01*
X130421499Y-87809479D01*
X130505891Y-88062434D01*
X130507881Y-88066417D01*
X130507882Y-88066419D01*
X130621915Y-88294632D01*
X130625083Y-88300973D01*
X130776696Y-88520339D01*
X130807930Y-88554128D01*
X130954689Y-88712892D01*
X130954694Y-88712897D01*
X130957705Y-88716154D01*
X131164499Y-88884511D01*
X131168317Y-88886810D01*
X131168319Y-88886811D01*
X131318214Y-88977055D01*
X131392952Y-89022051D01*
X131397047Y-89023785D01*
X131397049Y-89023786D01*
X131634404Y-89124293D01*
X131634411Y-89124295D01*
X131638505Y-89126029D01*
X131896260Y-89194372D01*
X131900684Y-89194896D01*
X131900686Y-89194896D01*
X132006761Y-89207450D01*
X132161072Y-89225714D01*
X132371032Y-89220766D01*
X132439605Y-89239158D01*
X132487349Y-89291703D01*
X132500000Y-89346731D01*
X132500000Y-94124000D01*
X132479998Y-94192121D01*
X132426342Y-94238614D01*
X132374000Y-94250000D01*
X95126000Y-94250000D01*
X95057879Y-94229998D01*
X95011386Y-94176342D01*
X95000000Y-94124000D01*
X95000000Y-92239877D01*
X113275012Y-92239877D01*
X113290785Y-92400748D01*
X113341808Y-92554128D01*
X113345455Y-92560150D01*
X113345456Y-92560152D01*
X113354349Y-92574835D01*
X113425543Y-92692391D01*
X113537830Y-92808668D01*
X113673087Y-92897177D01*
X113679687Y-92899632D01*
X113679688Y-92899632D01*
X113817990Y-92951067D01*
X113817992Y-92951068D01*
X113824592Y-92953522D01*
X113831570Y-92954453D01*
X113831574Y-92954454D01*
X113879806Y-92960889D01*
X113984816Y-92974900D01*
X113991827Y-92974262D01*
X113991831Y-92974262D01*
X114138772Y-92960889D01*
X114145793Y-92960250D01*
X114152495Y-92958072D01*
X114152497Y-92958072D01*
X114292825Y-92912476D01*
X114299525Y-92910299D01*
X114317419Y-92899632D01*
X114432318Y-92831139D01*
X114432320Y-92831138D01*
X114438370Y-92827531D01*
X114555427Y-92716059D01*
X114567788Y-92697455D01*
X114619179Y-92620105D01*
X114644879Y-92581423D01*
X114682152Y-92483301D01*
X114699780Y-92436897D01*
X114699781Y-92436895D01*
X114702280Y-92430315D01*
X114705496Y-92407433D01*
X114705841Y-92404981D01*
X126094425Y-92404981D01*
X126111992Y-92614181D01*
X126124647Y-92658315D01*
X126166307Y-92803599D01*
X126169858Y-92815984D01*
X126172673Y-92821461D01*
X126172674Y-92821464D01*
X126251050Y-92973968D01*
X126265819Y-93002705D01*
X126269642Y-93007529D01*
X126269645Y-93007533D01*
X126386110Y-93154473D01*
X126396221Y-93167230D01*
X126556095Y-93303294D01*
X126561473Y-93306300D01*
X126561475Y-93306301D01*
X126605680Y-93331006D01*
X126739353Y-93405713D01*
X126939014Y-93470587D01*
X127147473Y-93495444D01*
X127153608Y-93494972D01*
X127153610Y-93494972D01*
X127350648Y-93479811D01*
X127350652Y-93479810D01*
X127356790Y-93479338D01*
X127558992Y-93422882D01*
X127564496Y-93420102D01*
X127564498Y-93420101D01*
X127740877Y-93331006D01*
X127740879Y-93331005D01*
X127746378Y-93328227D01*
X127911810Y-93198977D01*
X128048986Y-93040057D01*
X128152683Y-92857518D01*
X128218949Y-92658315D01*
X128232955Y-92547445D01*
X128244819Y-92453538D01*
X128244820Y-92453529D01*
X128245261Y-92450035D01*
X128245680Y-92420000D01*
X128225194Y-92211066D01*
X128164516Y-92010090D01*
X128160277Y-92002118D01*
X128068853Y-91830174D01*
X128068851Y-91830172D01*
X128065957Y-91824728D01*
X128016993Y-91764692D01*
X127937166Y-91666814D01*
X127937163Y-91666811D01*
X127933271Y-91662039D01*
X127926185Y-91656177D01*
X127776263Y-91532150D01*
X127776259Y-91532148D01*
X127771513Y-91528221D01*
X127586843Y-91428370D01*
X127386295Y-91366290D01*
X127380170Y-91365646D01*
X127380169Y-91365646D01*
X127183638Y-91344990D01*
X127183637Y-91344990D01*
X127177510Y-91344346D01*
X127089999Y-91352310D01*
X126974577Y-91362814D01*
X126974574Y-91362815D01*
X126968438Y-91363373D01*
X126962532Y-91365111D01*
X126962528Y-91365112D01*
X126815522Y-91408379D01*
X126767043Y-91422647D01*
X126580997Y-91519909D01*
X126417386Y-91651456D01*
X126282442Y-91812276D01*
X126279478Y-91817668D01*
X126279475Y-91817672D01*
X126210373Y-91943369D01*
X126181304Y-91996245D01*
X126117826Y-92196354D01*
X126117140Y-92202471D01*
X126117139Y-92202475D01*
X126095686Y-92393740D01*
X126094425Y-92404981D01*
X114705841Y-92404981D01*
X114724225Y-92274169D01*
X114724226Y-92274162D01*
X114724776Y-92270245D01*
X114725059Y-92250000D01*
X114707041Y-92089364D01*
X114701303Y-92072885D01*
X114676659Y-92002118D01*
X114653882Y-91936712D01*
X114648197Y-91927613D01*
X114571957Y-91805605D01*
X114568224Y-91799631D01*
X114454325Y-91684934D01*
X114317845Y-91598321D01*
X114292658Y-91589352D01*
X114172203Y-91546460D01*
X114172198Y-91546459D01*
X114165568Y-91544098D01*
X114158582Y-91543265D01*
X114158578Y-91543264D01*
X114032418Y-91528221D01*
X114005062Y-91524959D01*
X113998059Y-91525695D01*
X113998058Y-91525695D01*
X113956808Y-91530031D01*
X113844304Y-91541855D01*
X113837636Y-91544125D01*
X113697952Y-91591677D01*
X113697949Y-91591678D01*
X113691285Y-91593947D01*
X113685290Y-91597635D01*
X113685286Y-91597637D01*
X113559610Y-91674954D01*
X113553609Y-91678646D01*
X113438120Y-91791741D01*
X113350556Y-91927613D01*
X113348145Y-91934236D01*
X113348144Y-91934239D01*
X113297681Y-92072885D01*
X113297680Y-92072890D01*
X113295271Y-92079508D01*
X113275012Y-92239877D01*
X95000000Y-92239877D01*
X95000000Y-89864981D01*
X126094425Y-89864981D01*
X126111992Y-90074181D01*
X126169858Y-90275984D01*
X126172673Y-90281461D01*
X126172674Y-90281464D01*
X126263004Y-90457228D01*
X126265819Y-90462705D01*
X126269642Y-90467529D01*
X126269645Y-90467533D01*
X126386110Y-90614473D01*
X126396221Y-90627230D01*
X126556095Y-90763294D01*
X126561473Y-90766300D01*
X126561475Y-90766301D01*
X126605680Y-90791006D01*
X126739353Y-90865713D01*
X126939014Y-90930587D01*
X127147473Y-90955444D01*
X127153608Y-90954972D01*
X127153610Y-90954972D01*
X127350648Y-90939811D01*
X127350652Y-90939810D01*
X127356790Y-90939338D01*
X127558992Y-90882882D01*
X127564496Y-90880102D01*
X127564498Y-90880101D01*
X127740877Y-90791006D01*
X127740879Y-90791005D01*
X127746378Y-90788227D01*
X127911810Y-90658977D01*
X128048986Y-90500057D01*
X128152683Y-90317518D01*
X128218949Y-90118315D01*
X128225300Y-90068040D01*
X128244819Y-89913538D01*
X128244820Y-89913529D01*
X128245261Y-89910035D01*
X128245680Y-89880000D01*
X128225194Y-89671066D01*
X128164516Y-89470090D01*
X128158126Y-89458072D01*
X128068853Y-89290174D01*
X128068851Y-89290172D01*
X128065957Y-89284728D01*
X127992692Y-89194896D01*
X127937166Y-89126814D01*
X127937163Y-89126811D01*
X127933271Y-89122039D01*
X127926185Y-89116177D01*
X127776263Y-88992150D01*
X127776259Y-88992148D01*
X127771513Y-88988221D01*
X127586843Y-88888370D01*
X127386295Y-88826290D01*
X127380170Y-88825646D01*
X127380169Y-88825646D01*
X127183638Y-88804990D01*
X127183637Y-88804990D01*
X127177510Y-88804346D01*
X127089999Y-88812310D01*
X126974577Y-88822814D01*
X126974574Y-88822815D01*
X126968438Y-88823373D01*
X126962532Y-88825111D01*
X126962528Y-88825112D01*
X126815522Y-88868379D01*
X126767043Y-88882647D01*
X126761583Y-88885501D01*
X126761584Y-88885501D01*
X126622768Y-88958072D01*
X126580997Y-88979909D01*
X126417386Y-89111456D01*
X126282442Y-89272276D01*
X126279478Y-89277668D01*
X126279475Y-89277672D01*
X126241510Y-89346731D01*
X126181304Y-89456245D01*
X126117826Y-89656354D01*
X126117140Y-89662471D01*
X126117139Y-89662475D01*
X126095112Y-89858856D01*
X126094425Y-89864981D01*
X95000000Y-89864981D01*
X95000000Y-88739877D01*
X110275012Y-88739877D01*
X110290785Y-88900748D01*
X110341808Y-89054128D01*
X110345455Y-89060150D01*
X110345456Y-89060152D01*
X110386044Y-89127170D01*
X110425543Y-89192391D01*
X110537830Y-89308668D01*
X110673087Y-89397177D01*
X110679687Y-89399632D01*
X110679688Y-89399632D01*
X110817990Y-89451067D01*
X110817992Y-89451068D01*
X110824592Y-89453522D01*
X110831570Y-89454453D01*
X110831574Y-89454454D01*
X110879806Y-89460889D01*
X110984816Y-89474900D01*
X110991827Y-89474262D01*
X110991831Y-89474262D01*
X111138772Y-89460889D01*
X111145793Y-89460250D01*
X111152495Y-89458072D01*
X111152497Y-89458072D01*
X111292825Y-89412476D01*
X111299525Y-89410299D01*
X111317419Y-89399632D01*
X111432318Y-89331139D01*
X111432320Y-89331138D01*
X111438370Y-89327531D01*
X111555427Y-89216059D01*
X111567788Y-89197455D01*
X111624925Y-89111456D01*
X111644879Y-89081423D01*
X111691736Y-88958072D01*
X111699780Y-88936897D01*
X111699781Y-88936895D01*
X111702280Y-88930315D01*
X111705600Y-88906692D01*
X111724225Y-88774169D01*
X111724226Y-88774162D01*
X111724776Y-88770245D01*
X111725059Y-88750000D01*
X111707041Y-88589364D01*
X111701982Y-88574835D01*
X111656200Y-88443369D01*
X111653882Y-88436712D01*
X111648197Y-88427613D01*
X111571957Y-88305605D01*
X111568224Y-88299631D01*
X111539043Y-88270245D01*
X111508886Y-88239877D01*
X121025012Y-88239877D01*
X121040785Y-88400748D01*
X121091808Y-88554128D01*
X121095455Y-88560150D01*
X121095456Y-88560152D01*
X121152142Y-88653751D01*
X121175543Y-88692391D01*
X121287830Y-88808668D01*
X121423087Y-88897177D01*
X121429687Y-88899632D01*
X121429688Y-88899632D01*
X121567990Y-88951067D01*
X121567992Y-88951068D01*
X121574592Y-88953522D01*
X121581570Y-88954453D01*
X121581574Y-88954454D01*
X121629806Y-88960889D01*
X121734816Y-88974900D01*
X121741827Y-88974262D01*
X121741831Y-88974262D01*
X121888772Y-88960889D01*
X121895793Y-88960250D01*
X121902495Y-88958072D01*
X121902497Y-88958072D01*
X122042825Y-88912476D01*
X122049525Y-88910299D01*
X122067419Y-88899632D01*
X122182318Y-88831139D01*
X122182320Y-88831138D01*
X122188370Y-88827531D01*
X122305427Y-88716059D01*
X122317788Y-88697455D01*
X122390978Y-88587294D01*
X122394879Y-88581423D01*
X122452280Y-88430315D01*
X122455496Y-88407433D01*
X122474225Y-88274169D01*
X122474226Y-88274162D01*
X122474776Y-88270245D01*
X122475059Y-88250000D01*
X122457041Y-88089364D01*
X122451303Y-88072885D01*
X122406200Y-87943369D01*
X122403882Y-87936712D01*
X122398197Y-87927613D01*
X122321957Y-87805605D01*
X122318224Y-87799631D01*
X122204325Y-87684934D01*
X122067845Y-87598321D01*
X122042658Y-87589352D01*
X121922203Y-87546460D01*
X121922198Y-87546459D01*
X121915568Y-87544098D01*
X121908582Y-87543265D01*
X121908578Y-87543264D01*
X121794624Y-87529676D01*
X121755062Y-87524959D01*
X121748059Y-87525695D01*
X121748058Y-87525695D01*
X121706808Y-87530031D01*
X121594304Y-87541855D01*
X121587636Y-87544125D01*
X121447952Y-87591677D01*
X121447949Y-87591678D01*
X121441285Y-87593947D01*
X121435290Y-87597635D01*
X121435286Y-87597637D01*
X121309610Y-87674954D01*
X121303609Y-87678646D01*
X121188120Y-87791741D01*
X121100556Y-87927613D01*
X121098145Y-87934236D01*
X121098144Y-87934239D01*
X121047681Y-88072885D01*
X121047680Y-88072890D01*
X121045271Y-88079508D01*
X121025012Y-88239877D01*
X111508886Y-88239877D01*
X111459287Y-88189931D01*
X111454325Y-88184934D01*
X111317845Y-88098321D01*
X111265012Y-88079508D01*
X111172203Y-88046460D01*
X111172198Y-88046459D01*
X111165568Y-88044098D01*
X111158582Y-88043265D01*
X111158578Y-88043264D01*
X111044624Y-88029676D01*
X111005062Y-88024959D01*
X110998059Y-88025695D01*
X110998058Y-88025695D01*
X110956808Y-88030031D01*
X110844304Y-88041855D01*
X110837636Y-88044125D01*
X110697952Y-88091677D01*
X110697949Y-88091678D01*
X110691285Y-88093947D01*
X110685290Y-88097635D01*
X110685286Y-88097637D01*
X110559610Y-88174954D01*
X110553609Y-88178646D01*
X110438120Y-88291741D01*
X110350556Y-88427613D01*
X110348145Y-88434236D01*
X110348144Y-88434239D01*
X110297681Y-88572885D01*
X110297680Y-88572890D01*
X110295271Y-88579508D01*
X110275012Y-88739877D01*
X95000000Y-88739877D01*
X95000000Y-86489877D01*
X113275012Y-86489877D01*
X113290785Y-86650748D01*
X113341808Y-86804128D01*
X113345455Y-86810150D01*
X113345456Y-86810152D01*
X113354349Y-86824835D01*
X113425543Y-86942391D01*
X113537830Y-87058668D01*
X113673087Y-87147177D01*
X113679687Y-87149632D01*
X113679688Y-87149632D01*
X113817990Y-87201067D01*
X113817992Y-87201068D01*
X113824592Y-87203522D01*
X113831570Y-87204453D01*
X113831574Y-87204454D01*
X113879806Y-87210889D01*
X113984816Y-87224900D01*
X113991827Y-87224262D01*
X113991831Y-87224262D01*
X114138772Y-87210889D01*
X114145793Y-87210250D01*
X114152495Y-87208072D01*
X114152497Y-87208072D01*
X114292825Y-87162476D01*
X114299525Y-87160299D01*
X114317419Y-87149632D01*
X114432318Y-87081139D01*
X114432320Y-87081138D01*
X114438370Y-87077531D01*
X114555427Y-86966059D01*
X114567788Y-86947455D01*
X114640978Y-86837294D01*
X114644879Y-86831423D01*
X114702280Y-86680315D01*
X114705496Y-86657433D01*
X114724225Y-86524169D01*
X114724226Y-86524162D01*
X114724776Y-86520245D01*
X114724927Y-86509478D01*
X114725004Y-86503962D01*
X114725004Y-86503956D01*
X114725059Y-86500000D01*
X114707041Y-86339364D01*
X114701303Y-86322885D01*
X114656200Y-86193369D01*
X114653882Y-86186712D01*
X114648197Y-86177613D01*
X114571957Y-86055605D01*
X114568224Y-86049631D01*
X114454325Y-85934934D01*
X114436991Y-85923933D01*
X114388755Y-85893322D01*
X114317845Y-85848321D01*
X114269592Y-85831139D01*
X114172203Y-85796460D01*
X114172198Y-85796459D01*
X114165568Y-85794098D01*
X114158582Y-85793265D01*
X114158578Y-85793264D01*
X114044624Y-85779676D01*
X114005062Y-85774959D01*
X113998059Y-85775695D01*
X113998058Y-85775695D01*
X113956808Y-85780031D01*
X113844304Y-85791855D01*
X113837636Y-85794125D01*
X113697952Y-85841677D01*
X113697949Y-85841678D01*
X113691285Y-85843947D01*
X113685290Y-85847635D01*
X113685286Y-85847637D01*
X113579893Y-85912476D01*
X113553609Y-85928646D01*
X113438120Y-86041741D01*
X113350556Y-86177613D01*
X113348145Y-86184236D01*
X113348144Y-86184239D01*
X113297681Y-86322885D01*
X113297680Y-86322890D01*
X113295271Y-86329508D01*
X113275012Y-86489877D01*
X95000000Y-86489877D01*
X95000000Y-85239877D01*
X106275012Y-85239877D01*
X106290785Y-85400748D01*
X106341808Y-85554128D01*
X106345455Y-85560150D01*
X106345456Y-85560152D01*
X106354349Y-85574835D01*
X106425543Y-85692391D01*
X106537830Y-85808668D01*
X106673087Y-85897177D01*
X106679687Y-85899632D01*
X106679688Y-85899632D01*
X106817990Y-85951067D01*
X106817992Y-85951068D01*
X106824592Y-85953522D01*
X106831570Y-85954453D01*
X106831574Y-85954454D01*
X106879806Y-85960889D01*
X106984816Y-85974900D01*
X106991827Y-85974262D01*
X106991831Y-85974262D01*
X107138772Y-85960889D01*
X107145793Y-85960250D01*
X107152495Y-85958072D01*
X107152497Y-85958072D01*
X107292825Y-85912476D01*
X107299525Y-85910299D01*
X107317419Y-85899632D01*
X107432318Y-85831139D01*
X107432320Y-85831138D01*
X107438370Y-85827531D01*
X107555427Y-85716059D01*
X107567788Y-85697455D01*
X107611370Y-85631858D01*
X107644879Y-85581423D01*
X107688409Y-85466831D01*
X107699780Y-85436897D01*
X107699781Y-85436895D01*
X107702280Y-85430315D01*
X107706225Y-85402244D01*
X107724225Y-85274169D01*
X107724226Y-85274162D01*
X107724776Y-85270245D01*
X107725059Y-85250000D01*
X107707041Y-85089364D01*
X107701303Y-85072885D01*
X107656200Y-84943369D01*
X107653882Y-84936712D01*
X107648197Y-84927613D01*
X107571957Y-84805605D01*
X107568224Y-84799631D01*
X107454325Y-84684934D01*
X107317845Y-84598321D01*
X107292658Y-84589352D01*
X107172203Y-84546460D01*
X107172198Y-84546459D01*
X107165568Y-84544098D01*
X107158582Y-84543265D01*
X107158578Y-84543264D01*
X107044624Y-84529676D01*
X107005062Y-84524959D01*
X106998059Y-84525695D01*
X106998058Y-84525695D01*
X106956808Y-84530031D01*
X106844304Y-84541855D01*
X106837636Y-84544125D01*
X106697952Y-84591677D01*
X106697949Y-84591678D01*
X106691285Y-84593947D01*
X106685290Y-84597635D01*
X106685286Y-84597637D01*
X106559610Y-84674954D01*
X106553609Y-84678646D01*
X106438120Y-84791741D01*
X106350556Y-84927613D01*
X106348145Y-84934236D01*
X106348144Y-84934239D01*
X106297681Y-85072885D01*
X106297680Y-85072890D01*
X106295271Y-85079508D01*
X106275012Y-85239877D01*
X95000000Y-85239877D01*
X95000000Y-82989877D01*
X118275012Y-82989877D01*
X118290785Y-83150748D01*
X118341808Y-83304128D01*
X118345455Y-83310150D01*
X118345456Y-83310152D01*
X118395826Y-83393322D01*
X118425543Y-83442391D01*
X118537830Y-83558668D01*
X118673087Y-83647177D01*
X118679687Y-83649632D01*
X118679688Y-83649632D01*
X118817990Y-83701067D01*
X118817992Y-83701068D01*
X118824592Y-83703522D01*
X118831570Y-83704453D01*
X118831574Y-83704454D01*
X118879806Y-83710889D01*
X118984816Y-83724900D01*
X118991827Y-83724262D01*
X118991831Y-83724262D01*
X119138772Y-83710889D01*
X119145793Y-83710250D01*
X119152495Y-83708072D01*
X119152497Y-83708072D01*
X119292825Y-83662476D01*
X119299525Y-83660299D01*
X119317419Y-83649632D01*
X119432318Y-83581139D01*
X119432320Y-83581138D01*
X119438370Y-83577531D01*
X119555427Y-83466059D01*
X119563138Y-83454454D01*
X119640978Y-83337294D01*
X119644879Y-83331423D01*
X119702280Y-83180315D01*
X119705496Y-83157433D01*
X119724225Y-83024169D01*
X119724226Y-83024162D01*
X119724776Y-83020245D01*
X119725059Y-83000000D01*
X119707041Y-82839364D01*
X119701303Y-82822885D01*
X119672396Y-82739877D01*
X122025012Y-82739877D01*
X122040785Y-82900748D01*
X122091808Y-83054128D01*
X122095455Y-83060150D01*
X122095456Y-83060152D01*
X122168230Y-83180315D01*
X122175543Y-83192391D01*
X122287830Y-83308668D01*
X122423087Y-83397177D01*
X122429687Y-83399632D01*
X122429688Y-83399632D01*
X122567990Y-83451067D01*
X122567992Y-83451068D01*
X122574592Y-83453522D01*
X122581570Y-83454453D01*
X122581574Y-83454454D01*
X122629806Y-83460889D01*
X122734816Y-83474900D01*
X122741827Y-83474262D01*
X122741831Y-83474262D01*
X122888772Y-83460889D01*
X122895793Y-83460250D01*
X122902495Y-83458072D01*
X122902497Y-83458072D01*
X123042825Y-83412476D01*
X123049525Y-83410299D01*
X123067419Y-83399632D01*
X123182318Y-83331139D01*
X123182320Y-83331138D01*
X123188370Y-83327531D01*
X123305427Y-83216059D01*
X123317788Y-83197455D01*
X123390978Y-83087294D01*
X123394879Y-83081423D01*
X123452280Y-82930315D01*
X123453829Y-82919295D01*
X123474225Y-82774169D01*
X123474226Y-82774162D01*
X123474776Y-82770245D01*
X123475059Y-82750000D01*
X123457041Y-82589364D01*
X123451303Y-82572885D01*
X123406200Y-82443369D01*
X123403882Y-82436712D01*
X123398197Y-82427613D01*
X123321957Y-82305605D01*
X123318224Y-82299631D01*
X123312757Y-82294125D01*
X123209287Y-82189931D01*
X123204325Y-82184934D01*
X123067845Y-82098321D01*
X123036877Y-82087294D01*
X122922203Y-82046460D01*
X122922198Y-82046459D01*
X122915568Y-82044098D01*
X122908582Y-82043265D01*
X122908578Y-82043264D01*
X122794624Y-82029676D01*
X122755062Y-82024959D01*
X122748059Y-82025695D01*
X122748058Y-82025695D01*
X122706808Y-82030031D01*
X122594304Y-82041855D01*
X122587636Y-82044125D01*
X122447952Y-82091677D01*
X122447949Y-82091678D01*
X122441285Y-82093947D01*
X122435290Y-82097635D01*
X122435286Y-82097637D01*
X122309610Y-82174954D01*
X122303609Y-82178646D01*
X122298576Y-82183575D01*
X122204406Y-82275793D01*
X122188120Y-82291741D01*
X122100556Y-82427613D01*
X122098145Y-82434236D01*
X122098144Y-82434239D01*
X122047681Y-82572885D01*
X122047680Y-82572890D01*
X122045271Y-82579508D01*
X122025012Y-82739877D01*
X119672396Y-82739877D01*
X119656200Y-82693369D01*
X119653882Y-82686712D01*
X119648197Y-82677613D01*
X119571957Y-82555605D01*
X119568224Y-82549631D01*
X119454325Y-82434934D01*
X119317845Y-82348321D01*
X119269592Y-82331139D01*
X119172203Y-82296460D01*
X119172198Y-82296459D01*
X119165568Y-82294098D01*
X119158582Y-82293265D01*
X119158578Y-82293264D01*
X119044624Y-82279676D01*
X119005062Y-82274959D01*
X118998059Y-82275695D01*
X118998058Y-82275695D01*
X118956808Y-82280031D01*
X118844304Y-82291855D01*
X118837636Y-82294125D01*
X118697952Y-82341677D01*
X118697949Y-82341678D01*
X118691285Y-82343947D01*
X118685290Y-82347635D01*
X118685286Y-82347637D01*
X118579893Y-82412476D01*
X118553609Y-82428646D01*
X118438120Y-82541741D01*
X118350556Y-82677613D01*
X118348145Y-82684236D01*
X118348144Y-82684239D01*
X118297681Y-82822885D01*
X118297680Y-82822890D01*
X118295271Y-82829508D01*
X118275012Y-82989877D01*
X95000000Y-82989877D01*
X95000000Y-82242927D01*
X116074612Y-82242927D01*
X116092420Y-82404234D01*
X116109559Y-82451067D01*
X116145580Y-82549501D01*
X116145582Y-82549505D01*
X116148192Y-82556637D01*
X116152429Y-82562943D01*
X116152431Y-82562946D01*
X116174887Y-82596363D01*
X116238707Y-82691337D01*
X116244325Y-82696449D01*
X116353118Y-82795444D01*
X116353122Y-82795447D01*
X116358739Y-82800558D01*
X116365412Y-82804181D01*
X116365416Y-82804184D01*
X116494686Y-82874371D01*
X116501359Y-82877994D01*
X116658334Y-82919176D01*
X116744250Y-82920526D01*
X116813004Y-82921606D01*
X116813007Y-82921606D01*
X116820601Y-82921725D01*
X116876392Y-82908947D01*
X116971389Y-82887190D01*
X116971393Y-82887189D01*
X116978792Y-82885494D01*
X117123774Y-82812576D01*
X117197041Y-82750000D01*
X117241404Y-82712111D01*
X117241406Y-82712108D01*
X117247178Y-82707179D01*
X117341879Y-82575388D01*
X117382650Y-82473968D01*
X117399577Y-82431861D01*
X117399578Y-82431859D01*
X117402410Y-82424813D01*
X117425277Y-82264145D01*
X117425425Y-82250000D01*
X117418454Y-82192391D01*
X117406841Y-82096432D01*
X117406841Y-82096431D01*
X117405928Y-82088889D01*
X117348564Y-81937078D01*
X117256644Y-81803333D01*
X117185422Y-81739877D01*
X129275012Y-81739877D01*
X129290785Y-81900748D01*
X129341808Y-82054128D01*
X129345455Y-82060150D01*
X129345456Y-82060152D01*
X129418741Y-82181159D01*
X129425543Y-82192391D01*
X129537830Y-82308668D01*
X129673087Y-82397177D01*
X129679687Y-82399632D01*
X129679688Y-82399632D01*
X129817990Y-82451067D01*
X129817992Y-82451068D01*
X129824592Y-82453522D01*
X129831570Y-82454453D01*
X129831574Y-82454454D01*
X129879806Y-82460889D01*
X129984816Y-82474900D01*
X129991827Y-82474262D01*
X129991831Y-82474262D01*
X130138772Y-82460889D01*
X130145793Y-82460250D01*
X130152495Y-82458072D01*
X130152497Y-82458072D01*
X130292825Y-82412476D01*
X130299525Y-82410299D01*
X130317419Y-82399632D01*
X130432318Y-82331139D01*
X130432320Y-82331138D01*
X130438370Y-82327531D01*
X130555427Y-82216059D01*
X130567788Y-82197455D01*
X130639475Y-82089556D01*
X130644879Y-82081423D01*
X130702280Y-81930315D01*
X130705496Y-81907433D01*
X130724225Y-81774169D01*
X130724226Y-81774162D01*
X130724776Y-81770245D01*
X130725059Y-81750000D01*
X130707041Y-81589364D01*
X130701303Y-81572885D01*
X130656200Y-81443369D01*
X130653882Y-81436712D01*
X130648197Y-81427613D01*
X130571957Y-81305605D01*
X130568224Y-81299631D01*
X130454325Y-81184934D01*
X130317845Y-81098321D01*
X130292658Y-81089352D01*
X130172203Y-81046460D01*
X130172198Y-81046459D01*
X130165568Y-81044098D01*
X130158582Y-81043265D01*
X130158578Y-81043264D01*
X130044624Y-81029676D01*
X130005062Y-81024959D01*
X129998059Y-81025695D01*
X129998058Y-81025695D01*
X129956808Y-81030031D01*
X129844304Y-81041855D01*
X129837636Y-81044125D01*
X129697952Y-81091677D01*
X129697949Y-81091678D01*
X129691285Y-81093947D01*
X129685290Y-81097635D01*
X129685286Y-81097637D01*
X129559610Y-81174954D01*
X129553609Y-81178646D01*
X129438120Y-81291741D01*
X129350556Y-81427613D01*
X129348145Y-81434236D01*
X129348144Y-81434239D01*
X129297681Y-81572885D01*
X129297680Y-81572890D01*
X129295271Y-81579508D01*
X129275012Y-81739877D01*
X117185422Y-81739877D01*
X117135474Y-81695375D01*
X116992051Y-81619436D01*
X116982098Y-81616936D01*
X116842024Y-81581752D01*
X116842021Y-81581752D01*
X116834653Y-81579901D01*
X116827054Y-81579861D01*
X116827052Y-81579861D01*
X116760042Y-81579510D01*
X116672369Y-81579051D01*
X116664989Y-81580823D01*
X116664987Y-81580823D01*
X116521945Y-81615164D01*
X116521941Y-81615165D01*
X116514566Y-81616936D01*
X116370355Y-81691369D01*
X116364633Y-81696361D01*
X116364631Y-81696362D01*
X116303144Y-81750000D01*
X116248061Y-81798052D01*
X116154746Y-81930827D01*
X116095795Y-82082029D01*
X116094804Y-82089556D01*
X116077510Y-82220918D01*
X116074612Y-82242927D01*
X95000000Y-82242927D01*
X95000000Y-79489877D01*
X112025012Y-79489877D01*
X112040785Y-79650748D01*
X112091808Y-79804128D01*
X112095455Y-79810150D01*
X112095456Y-79810152D01*
X112171086Y-79935031D01*
X112175543Y-79942391D01*
X112287830Y-80058668D01*
X112423087Y-80147177D01*
X112429687Y-80149632D01*
X112429688Y-80149632D01*
X112567990Y-80201067D01*
X112567992Y-80201068D01*
X112574592Y-80203522D01*
X112581570Y-80204453D01*
X112581574Y-80204454D01*
X112629806Y-80210889D01*
X112734816Y-80224900D01*
X112741827Y-80224262D01*
X112741831Y-80224262D01*
X112888772Y-80210889D01*
X112895793Y-80210250D01*
X112902495Y-80208072D01*
X112902497Y-80208072D01*
X113042825Y-80162476D01*
X113049525Y-80160299D01*
X113067419Y-80149632D01*
X113182318Y-80081139D01*
X113182320Y-80081138D01*
X113188370Y-80077531D01*
X113305427Y-79966059D01*
X113317788Y-79947455D01*
X113390978Y-79837294D01*
X113394879Y-79831423D01*
X113452280Y-79680315D01*
X113455496Y-79657433D01*
X113474225Y-79524169D01*
X113474226Y-79524162D01*
X113474776Y-79520245D01*
X113474919Y-79510022D01*
X113475004Y-79503962D01*
X113475004Y-79503956D01*
X113475059Y-79500000D01*
X113474266Y-79492927D01*
X126824612Y-79492927D01*
X126842420Y-79654234D01*
X126852530Y-79681861D01*
X126895580Y-79799501D01*
X126895582Y-79799505D01*
X126898192Y-79806637D01*
X126902429Y-79812943D01*
X126902431Y-79812946D01*
X126944130Y-79874999D01*
X126988707Y-79941337D01*
X126994325Y-79946449D01*
X127103118Y-80045444D01*
X127103122Y-80045447D01*
X127108739Y-80050558D01*
X127115412Y-80054181D01*
X127115416Y-80054184D01*
X127165062Y-80081139D01*
X127251359Y-80127994D01*
X127408334Y-80169176D01*
X127494250Y-80170526D01*
X127563004Y-80171606D01*
X127563007Y-80171606D01*
X127570601Y-80171725D01*
X127636238Y-80156692D01*
X127721389Y-80137190D01*
X127721393Y-80137189D01*
X127728792Y-80135494D01*
X127873774Y-80062576D01*
X127986781Y-79966059D01*
X127991404Y-79962111D01*
X127991406Y-79962108D01*
X127997178Y-79957179D01*
X128091879Y-79825388D01*
X128099417Y-79806637D01*
X128149577Y-79681861D01*
X128149578Y-79681859D01*
X128152410Y-79674813D01*
X128175277Y-79514145D01*
X128175425Y-79500000D01*
X128155928Y-79338889D01*
X128098564Y-79187078D01*
X128006644Y-79053333D01*
X127885474Y-78945375D01*
X127865755Y-78934934D01*
X127794444Y-78897177D01*
X127742051Y-78869436D01*
X127732098Y-78866936D01*
X127592024Y-78831752D01*
X127592021Y-78831752D01*
X127584653Y-78829901D01*
X127577054Y-78829861D01*
X127577052Y-78829861D01*
X127510042Y-78829510D01*
X127422369Y-78829051D01*
X127414989Y-78830823D01*
X127414987Y-78830823D01*
X127271945Y-78865164D01*
X127271941Y-78865165D01*
X127264566Y-78866936D01*
X127257821Y-78870417D01*
X127257822Y-78870417D01*
X127132823Y-78934934D01*
X127120355Y-78941369D01*
X127114633Y-78946361D01*
X127114631Y-78946362D01*
X127081917Y-78974900D01*
X126998061Y-79048052D01*
X126904746Y-79180827D01*
X126845795Y-79332029D01*
X126824612Y-79492927D01*
X113474266Y-79492927D01*
X113457041Y-79339364D01*
X113451303Y-79322885D01*
X113433345Y-79271319D01*
X113403882Y-79186712D01*
X113398197Y-79177613D01*
X113321957Y-79055605D01*
X113318224Y-79049631D01*
X113204325Y-78934934D01*
X113067845Y-78848321D01*
X113042658Y-78839352D01*
X112922203Y-78796460D01*
X112922198Y-78796459D01*
X112915568Y-78794098D01*
X112908582Y-78793265D01*
X112908578Y-78793264D01*
X112794624Y-78779676D01*
X112755062Y-78774959D01*
X112748059Y-78775695D01*
X112748058Y-78775695D01*
X112706808Y-78780031D01*
X112594304Y-78791855D01*
X112587636Y-78794125D01*
X112447952Y-78841677D01*
X112447949Y-78841678D01*
X112441285Y-78843947D01*
X112435290Y-78847635D01*
X112435286Y-78847637D01*
X112329893Y-78912476D01*
X112303609Y-78928646D01*
X112188120Y-79041741D01*
X112100556Y-79177613D01*
X112098145Y-79184236D01*
X112098144Y-79184239D01*
X112047681Y-79322885D01*
X112047680Y-79322890D01*
X112045271Y-79329508D01*
X112025012Y-79489877D01*
X95000000Y-79489877D01*
X95000000Y-78239877D01*
X120275012Y-78239877D01*
X120290785Y-78400748D01*
X120341808Y-78554128D01*
X120345455Y-78560150D01*
X120345456Y-78560152D01*
X120354349Y-78574835D01*
X120425543Y-78692391D01*
X120537830Y-78808668D01*
X120673087Y-78897177D01*
X120679687Y-78899632D01*
X120679688Y-78899632D01*
X120817990Y-78951067D01*
X120817992Y-78951068D01*
X120824592Y-78953522D01*
X120831570Y-78954453D01*
X120831574Y-78954454D01*
X120879806Y-78960889D01*
X120984816Y-78974900D01*
X120991827Y-78974262D01*
X120991831Y-78974262D01*
X121138772Y-78960889D01*
X121145793Y-78960250D01*
X121152495Y-78958072D01*
X121152497Y-78958072D01*
X121292825Y-78912476D01*
X121299525Y-78910299D01*
X121317419Y-78899632D01*
X121432318Y-78831139D01*
X121432320Y-78831138D01*
X121438370Y-78827531D01*
X121555427Y-78716059D01*
X121567788Y-78697455D01*
X121640978Y-78587294D01*
X121644879Y-78581423D01*
X121702280Y-78430315D01*
X121705496Y-78407433D01*
X121724225Y-78274169D01*
X121724226Y-78274162D01*
X121724776Y-78270245D01*
X121725059Y-78250000D01*
X121707041Y-78089364D01*
X121701303Y-78072885D01*
X121656200Y-77943369D01*
X121653882Y-77936712D01*
X121648197Y-77927613D01*
X121571957Y-77805605D01*
X121568224Y-77799631D01*
X121454325Y-77684934D01*
X121317845Y-77598321D01*
X121292658Y-77589352D01*
X121172203Y-77546460D01*
X121172198Y-77546459D01*
X121165568Y-77544098D01*
X121158582Y-77543265D01*
X121158578Y-77543264D01*
X121044624Y-77529676D01*
X121005062Y-77524959D01*
X120998059Y-77525695D01*
X120998058Y-77525695D01*
X120956808Y-77530031D01*
X120844304Y-77541855D01*
X120837636Y-77544125D01*
X120697952Y-77591677D01*
X120697949Y-77591678D01*
X120691285Y-77593947D01*
X120685290Y-77597635D01*
X120685286Y-77597637D01*
X120559610Y-77674954D01*
X120553609Y-77678646D01*
X120438120Y-77791741D01*
X120350556Y-77927613D01*
X120348145Y-77934236D01*
X120348144Y-77934239D01*
X120297681Y-78072885D01*
X120297680Y-78072890D01*
X120295271Y-78079508D01*
X120275012Y-78239877D01*
X95000000Y-78239877D01*
X95000000Y-69126000D01*
X95020002Y-69057879D01*
X95073658Y-69011386D01*
X95126000Y-69000000D01*
X101947810Y-69000000D01*
X102015931Y-69020002D01*
G37*
%TD.AperFunction*%
%TD*%
%TA.AperFunction,NonConductor*%
G36*
X92192121Y-65520002D02*
G01*
X92238614Y-65573658D01*
X92250000Y-65626000D01*
X92250000Y-118124000D01*
X92229998Y-118192121D01*
X92176342Y-118238614D01*
X92124000Y-118250000D01*
X70626000Y-118250000D01*
X70557879Y-118229998D01*
X70511386Y-118176342D01*
X70500000Y-118124000D01*
X70500000Y-111639877D01*
X87915012Y-111639877D01*
X87930785Y-111800748D01*
X87981808Y-111954128D01*
X87985455Y-111960150D01*
X87985456Y-111960152D01*
X87994349Y-111974835D01*
X88065543Y-112092391D01*
X88177830Y-112208668D01*
X88313087Y-112297177D01*
X88319687Y-112299632D01*
X88319688Y-112299632D01*
X88457990Y-112351067D01*
X88457992Y-112351068D01*
X88464592Y-112353522D01*
X88471570Y-112354453D01*
X88471574Y-112354454D01*
X88519806Y-112360889D01*
X88624816Y-112374900D01*
X88631827Y-112374262D01*
X88631831Y-112374262D01*
X88778772Y-112360889D01*
X88785793Y-112360250D01*
X88792495Y-112358072D01*
X88792497Y-112358072D01*
X88932825Y-112312476D01*
X88939525Y-112310299D01*
X88957419Y-112299632D01*
X89072318Y-112231139D01*
X89072320Y-112231138D01*
X89078370Y-112227531D01*
X89195427Y-112116059D01*
X89207788Y-112097455D01*
X89280978Y-111987294D01*
X89284879Y-111981423D01*
X89342280Y-111830315D01*
X89345496Y-111807433D01*
X89364225Y-111674169D01*
X89364226Y-111674162D01*
X89364776Y-111670245D01*
X89365059Y-111650000D01*
X89347041Y-111489364D01*
X89341303Y-111472885D01*
X89296200Y-111343369D01*
X89293882Y-111336712D01*
X89288197Y-111327613D01*
X89211957Y-111205605D01*
X89208224Y-111199631D01*
X89094325Y-111084934D01*
X88957845Y-110998321D01*
X88932658Y-110989352D01*
X88812203Y-110946460D01*
X88812198Y-110946459D01*
X88805568Y-110944098D01*
X88798582Y-110943265D01*
X88798578Y-110943264D01*
X88684624Y-110929676D01*
X88645062Y-110924959D01*
X88638059Y-110925695D01*
X88638058Y-110925695D01*
X88596808Y-110930031D01*
X88484304Y-110941855D01*
X88477636Y-110944125D01*
X88337952Y-110991677D01*
X88337949Y-110991678D01*
X88331285Y-110993947D01*
X88325290Y-110997635D01*
X88325286Y-110997637D01*
X88199610Y-111074954D01*
X88193609Y-111078646D01*
X88078120Y-111191741D01*
X87990556Y-111327613D01*
X87988145Y-111334236D01*
X87988144Y-111334239D01*
X87937681Y-111472885D01*
X87937680Y-111472890D01*
X87935271Y-111479508D01*
X87915012Y-111639877D01*
X70500000Y-111639877D01*
X70500000Y-108742927D01*
X87324612Y-108742927D01*
X87342420Y-108904234D01*
X87349951Y-108924813D01*
X87395580Y-109049501D01*
X87395582Y-109049505D01*
X87398192Y-109056637D01*
X87402429Y-109062943D01*
X87402431Y-109062946D01*
X87444130Y-109124999D01*
X87488707Y-109191337D01*
X87494325Y-109196449D01*
X87603118Y-109295444D01*
X87603122Y-109295447D01*
X87608739Y-109300558D01*
X87615412Y-109304181D01*
X87615416Y-109304184D01*
X87744686Y-109374371D01*
X87751359Y-109377994D01*
X87908334Y-109419176D01*
X87994250Y-109420526D01*
X88063004Y-109421606D01*
X88063007Y-109421606D01*
X88070601Y-109421725D01*
X88126392Y-109408947D01*
X88221389Y-109387190D01*
X88221393Y-109387189D01*
X88228792Y-109385494D01*
X88318613Y-109340319D01*
X88388456Y-109327580D01*
X88435348Y-109342153D01*
X88501359Y-109377994D01*
X88658334Y-109419176D01*
X88744250Y-109420526D01*
X88813004Y-109421606D01*
X88813007Y-109421606D01*
X88820601Y-109421725D01*
X88876392Y-109408947D01*
X88971389Y-109387190D01*
X88971393Y-109387189D01*
X88978792Y-109385494D01*
X89123774Y-109312576D01*
X89150060Y-109290126D01*
X89241404Y-109212111D01*
X89241406Y-109212108D01*
X89247178Y-109207179D01*
X89341879Y-109075388D01*
X89402410Y-108924813D01*
X89425277Y-108764145D01*
X89425425Y-108750000D01*
X89405928Y-108588889D01*
X89348564Y-108437078D01*
X89345463Y-108432566D01*
X89331807Y-108363820D01*
X89343352Y-108325980D01*
X89341879Y-108325388D01*
X89399577Y-108181861D01*
X89399578Y-108181859D01*
X89402410Y-108174813D01*
X89425277Y-108014145D01*
X89425425Y-108000000D01*
X89405928Y-107838889D01*
X89348564Y-107687078D01*
X89345463Y-107682566D01*
X89331807Y-107613820D01*
X89343352Y-107575980D01*
X89341879Y-107575388D01*
X89399577Y-107431861D01*
X89399578Y-107431859D01*
X89402410Y-107424813D01*
X89425277Y-107264145D01*
X89425425Y-107250000D01*
X89405928Y-107088889D01*
X89348564Y-106937078D01*
X89345463Y-106932566D01*
X89331807Y-106863820D01*
X89343352Y-106825980D01*
X89341879Y-106825388D01*
X89399577Y-106681861D01*
X89399578Y-106681859D01*
X89402410Y-106674813D01*
X89425277Y-106514145D01*
X89425425Y-106500000D01*
X89405928Y-106338889D01*
X89348564Y-106187078D01*
X89345463Y-106182566D01*
X89331807Y-106113820D01*
X89343352Y-106075980D01*
X89341879Y-106075388D01*
X89399577Y-105931861D01*
X89399578Y-105931859D01*
X89402410Y-105924813D01*
X89425277Y-105764145D01*
X89425425Y-105750000D01*
X89405928Y-105588889D01*
X89348564Y-105437078D01*
X89256644Y-105303333D01*
X89135474Y-105195375D01*
X88992051Y-105119436D01*
X88982098Y-105116936D01*
X88842024Y-105081752D01*
X88842021Y-105081752D01*
X88834653Y-105079901D01*
X88827054Y-105079861D01*
X88827052Y-105079861D01*
X88760042Y-105079510D01*
X88672369Y-105079051D01*
X88664989Y-105080823D01*
X88664987Y-105080823D01*
X88521945Y-105115164D01*
X88521941Y-105115165D01*
X88514566Y-105116936D01*
X88507821Y-105120417D01*
X88507822Y-105120417D01*
X88432714Y-105159183D01*
X88363007Y-105172652D01*
X88315967Y-105158573D01*
X88242051Y-105119436D01*
X88232098Y-105116936D01*
X88092024Y-105081752D01*
X88092021Y-105081752D01*
X88084653Y-105079901D01*
X88077054Y-105079861D01*
X88077052Y-105079861D01*
X88010042Y-105079510D01*
X87922369Y-105079051D01*
X87914989Y-105080823D01*
X87914987Y-105080823D01*
X87771945Y-105115164D01*
X87771941Y-105115165D01*
X87764566Y-105116936D01*
X87620355Y-105191369D01*
X87498061Y-105298052D01*
X87404746Y-105430827D01*
X87345795Y-105582029D01*
X87324612Y-105742927D01*
X87342420Y-105904234D01*
X87398192Y-106056637D01*
X87402428Y-106062941D01*
X87404955Y-106067900D01*
X87418060Y-106137677D01*
X87405017Y-106180441D01*
X87404746Y-106180827D01*
X87401989Y-106187898D01*
X87401987Y-106187902D01*
X87348553Y-106324955D01*
X87345795Y-106332029D01*
X87324612Y-106492927D01*
X87342420Y-106654234D01*
X87398192Y-106806637D01*
X87402428Y-106812941D01*
X87404955Y-106817900D01*
X87418060Y-106887677D01*
X87405017Y-106930441D01*
X87404746Y-106930827D01*
X87401989Y-106937898D01*
X87401987Y-106937902D01*
X87348553Y-107074955D01*
X87345795Y-107082029D01*
X87324612Y-107242927D01*
X87342420Y-107404234D01*
X87398192Y-107556637D01*
X87402428Y-107562941D01*
X87404955Y-107567900D01*
X87418060Y-107637677D01*
X87405017Y-107680441D01*
X87404746Y-107680827D01*
X87401989Y-107687898D01*
X87401987Y-107687902D01*
X87348553Y-107824955D01*
X87345795Y-107832029D01*
X87324612Y-107992927D01*
X87342420Y-108154234D01*
X87398192Y-108306637D01*
X87402428Y-108312941D01*
X87404955Y-108317900D01*
X87418060Y-108387677D01*
X87405017Y-108430441D01*
X87404746Y-108430827D01*
X87401989Y-108437898D01*
X87401987Y-108437902D01*
X87348553Y-108574955D01*
X87345795Y-108582029D01*
X87324612Y-108742927D01*
X70500000Y-108742927D01*
X70500000Y-103989877D01*
X90525012Y-103989877D01*
X90540785Y-104150748D01*
X90591808Y-104304128D01*
X90595455Y-104310150D01*
X90595456Y-104310152D01*
X90604349Y-104324835D01*
X90675543Y-104442391D01*
X90787830Y-104558668D01*
X90923087Y-104647177D01*
X90929687Y-104649632D01*
X90929688Y-104649632D01*
X91067990Y-104701067D01*
X91067992Y-104701068D01*
X91074592Y-104703522D01*
X91081570Y-104704453D01*
X91081574Y-104704454D01*
X91129806Y-104710889D01*
X91234816Y-104724900D01*
X91241827Y-104724262D01*
X91241831Y-104724262D01*
X91388772Y-104710889D01*
X91395793Y-104710250D01*
X91402495Y-104708072D01*
X91402497Y-104708072D01*
X91542825Y-104662476D01*
X91549525Y-104660299D01*
X91567419Y-104649632D01*
X91682318Y-104581139D01*
X91682320Y-104581138D01*
X91688370Y-104577531D01*
X91805427Y-104466059D01*
X91817788Y-104447455D01*
X91890978Y-104337294D01*
X91894879Y-104331423D01*
X91952280Y-104180315D01*
X91955496Y-104157433D01*
X91974225Y-104024169D01*
X91974226Y-104024162D01*
X91974776Y-104020245D01*
X91975059Y-104000000D01*
X91957041Y-103839364D01*
X91951303Y-103822885D01*
X91906200Y-103693369D01*
X91903882Y-103686712D01*
X91898197Y-103677613D01*
X91821957Y-103555605D01*
X91818224Y-103549631D01*
X91704325Y-103434934D01*
X91567845Y-103348321D01*
X91542658Y-103339352D01*
X91422203Y-103296460D01*
X91422198Y-103296459D01*
X91415568Y-103294098D01*
X91408582Y-103293265D01*
X91408578Y-103293264D01*
X91294624Y-103279676D01*
X91255062Y-103274959D01*
X91248059Y-103275695D01*
X91248058Y-103275695D01*
X91206808Y-103280031D01*
X91094304Y-103291855D01*
X91087636Y-103294125D01*
X90947952Y-103341677D01*
X90947949Y-103341678D01*
X90941285Y-103343947D01*
X90935290Y-103347635D01*
X90935286Y-103347637D01*
X90809610Y-103424954D01*
X90803609Y-103428646D01*
X90688120Y-103541741D01*
X90600556Y-103677613D01*
X90598145Y-103684236D01*
X90598144Y-103684239D01*
X90547681Y-103822885D01*
X90547680Y-103822890D01*
X90545271Y-103829508D01*
X90525012Y-103989877D01*
X70500000Y-103989877D01*
X70500000Y-100923327D01*
X78467625Y-100923327D01*
X78467849Y-100927993D01*
X78467849Y-100927999D01*
X78473076Y-101036814D01*
X78480304Y-101187291D01*
X78531860Y-101446482D01*
X78533439Y-101450880D01*
X78533441Y-101450887D01*
X78602683Y-101643740D01*
X78621161Y-101695206D01*
X78746245Y-101927998D01*
X78904363Y-102139744D01*
X78907672Y-102143024D01*
X78907677Y-102143030D01*
X79010274Y-102244735D01*
X79092043Y-102325793D01*
X79095805Y-102328551D01*
X79095808Y-102328554D01*
X79213603Y-102414925D01*
X79305161Y-102482058D01*
X79309292Y-102484232D01*
X79309293Y-102484232D01*
X79534901Y-102602930D01*
X79534907Y-102602932D01*
X79539036Y-102605105D01*
X79543443Y-102606644D01*
X79543450Y-102606647D01*
X79784113Y-102690690D01*
X79788529Y-102692232D01*
X79793122Y-102693104D01*
X79944999Y-102721939D01*
X80048160Y-102741525D01*
X80173677Y-102746457D01*
X80307557Y-102751717D01*
X80307562Y-102751717D01*
X80312225Y-102751900D01*
X80414912Y-102740654D01*
X80570270Y-102723640D01*
X80570275Y-102723639D01*
X80574923Y-102723130D01*
X80698138Y-102690690D01*
X80825960Y-102657037D01*
X80825962Y-102657036D01*
X80830483Y-102655846D01*
X80834780Y-102654000D01*
X81068997Y-102553373D01*
X81068999Y-102553372D01*
X81073291Y-102551528D01*
X81182040Y-102484232D01*
X81294040Y-102414925D01*
X81294044Y-102414922D01*
X81298013Y-102412466D01*
X81499711Y-102241716D01*
X81582620Y-102147177D01*
X81670874Y-102046543D01*
X81670878Y-102046538D01*
X81673956Y-102043028D01*
X81727241Y-101960188D01*
X81814391Y-101824697D01*
X81816919Y-101820767D01*
X81925459Y-101579817D01*
X81950825Y-101489877D01*
X87025012Y-101489877D01*
X87040785Y-101650748D01*
X87091808Y-101804128D01*
X87095455Y-101810150D01*
X87095456Y-101810152D01*
X87164331Y-101923877D01*
X87175543Y-101942391D01*
X87287830Y-102058668D01*
X87423087Y-102147177D01*
X87429687Y-102149632D01*
X87429688Y-102149632D01*
X87567990Y-102201067D01*
X87567992Y-102201068D01*
X87574592Y-102203522D01*
X87581570Y-102204453D01*
X87581574Y-102204454D01*
X87629806Y-102210889D01*
X87734816Y-102224900D01*
X87741827Y-102224262D01*
X87741831Y-102224262D01*
X87888772Y-102210889D01*
X87895793Y-102210250D01*
X87902495Y-102208072D01*
X87902497Y-102208072D01*
X88042825Y-102162476D01*
X88049525Y-102160299D01*
X88067419Y-102149632D01*
X88182318Y-102081139D01*
X88182320Y-102081138D01*
X88188370Y-102077531D01*
X88305427Y-101966059D01*
X88317788Y-101947455D01*
X88390978Y-101837294D01*
X88394879Y-101831423D01*
X88445056Y-101699332D01*
X88449780Y-101686897D01*
X88449781Y-101686895D01*
X88452280Y-101680315D01*
X88455496Y-101657433D01*
X88474225Y-101524169D01*
X88474226Y-101524162D01*
X88474776Y-101520245D01*
X88475059Y-101500000D01*
X88457041Y-101339364D01*
X88451303Y-101322885D01*
X88406200Y-101193369D01*
X88403882Y-101186712D01*
X88398197Y-101177613D01*
X88321957Y-101055605D01*
X88318224Y-101049631D01*
X88204325Y-100934934D01*
X88193398Y-100927999D01*
X88152114Y-100901800D01*
X88067845Y-100848321D01*
X88042658Y-100839352D01*
X87922203Y-100796460D01*
X87922198Y-100796459D01*
X87915568Y-100794098D01*
X87908582Y-100793265D01*
X87908578Y-100793264D01*
X87794624Y-100779676D01*
X87755062Y-100774959D01*
X87748059Y-100775695D01*
X87748058Y-100775695D01*
X87706808Y-100780031D01*
X87594304Y-100791855D01*
X87587636Y-100794125D01*
X87447952Y-100841677D01*
X87447949Y-100841678D01*
X87441285Y-100843947D01*
X87435290Y-100847635D01*
X87435286Y-100847637D01*
X87319820Y-100918673D01*
X87303609Y-100928646D01*
X87188120Y-101041741D01*
X87100556Y-101177613D01*
X87098145Y-101184236D01*
X87098144Y-101184239D01*
X87047681Y-101322885D01*
X87047680Y-101322890D01*
X87045271Y-101329508D01*
X87025012Y-101489877D01*
X81950825Y-101489877D01*
X81997192Y-101325470D01*
X82030542Y-101063314D01*
X82030901Y-101049631D01*
X82032903Y-100973160D01*
X82032986Y-100970000D01*
X82024224Y-100852100D01*
X82013747Y-100711110D01*
X82013746Y-100711106D01*
X82013401Y-100706458D01*
X81955078Y-100448705D01*
X81939554Y-100408785D01*
X81860990Y-100206758D01*
X81860989Y-100206756D01*
X81859297Y-100202405D01*
X81837837Y-100164857D01*
X81730481Y-99977025D01*
X81728162Y-99972967D01*
X81564555Y-99765432D01*
X81372069Y-99584360D01*
X81330413Y-99555462D01*
X81158776Y-99436392D01*
X81158773Y-99436390D01*
X81154934Y-99433727D01*
X81150744Y-99431661D01*
X81150741Y-99431659D01*
X80922106Y-99318909D01*
X80922103Y-99318908D01*
X80917918Y-99316844D01*
X80871196Y-99301888D01*
X80670675Y-99237701D01*
X80670677Y-99237701D01*
X80666230Y-99236278D01*
X80523544Y-99213040D01*
X80410009Y-99194550D01*
X80410008Y-99194550D01*
X80405397Y-99193799D01*
X80273274Y-99192070D01*
X80145828Y-99190401D01*
X80145825Y-99190401D01*
X80141151Y-99190340D01*
X79879296Y-99225977D01*
X79625585Y-99299927D01*
X79385591Y-99410565D01*
X79381682Y-99413128D01*
X79168500Y-99552896D01*
X79168495Y-99552900D01*
X79164587Y-99555462D01*
X78967427Y-99731434D01*
X78798443Y-99934615D01*
X78661348Y-100160541D01*
X78659539Y-100164855D01*
X78659538Y-100164857D01*
X78641968Y-100206758D01*
X78559152Y-100404250D01*
X78494102Y-100660388D01*
X78467625Y-100923327D01*
X70500000Y-100923327D01*
X70500000Y-90623327D01*
X78467625Y-90623327D01*
X78467849Y-90627993D01*
X78467849Y-90627999D01*
X78473965Y-90755309D01*
X78480304Y-90887291D01*
X78531860Y-91146482D01*
X78533439Y-91150880D01*
X78533441Y-91150887D01*
X78619578Y-91390797D01*
X78621161Y-91395206D01*
X78746245Y-91627998D01*
X78904363Y-91839744D01*
X78907672Y-91843024D01*
X78907677Y-91843030D01*
X79010274Y-91944735D01*
X79092043Y-92025793D01*
X79095805Y-92028551D01*
X79095808Y-92028554D01*
X79213603Y-92114925D01*
X79305161Y-92182058D01*
X79309292Y-92184232D01*
X79309293Y-92184232D01*
X79534901Y-92302930D01*
X79534907Y-92302932D01*
X79539036Y-92305105D01*
X79543443Y-92306644D01*
X79543450Y-92306647D01*
X79784113Y-92390690D01*
X79788529Y-92392232D01*
X79793122Y-92393104D01*
X79944999Y-92421939D01*
X80048160Y-92441525D01*
X80173677Y-92446457D01*
X80307557Y-92451717D01*
X80307562Y-92451717D01*
X80312225Y-92451900D01*
X80414912Y-92440654D01*
X80570270Y-92423640D01*
X80570275Y-92423639D01*
X80574923Y-92423130D01*
X80698138Y-92390690D01*
X80825960Y-92357037D01*
X80825962Y-92357036D01*
X80830483Y-92355846D01*
X80834780Y-92354000D01*
X81068997Y-92253373D01*
X81068999Y-92253372D01*
X81073291Y-92251528D01*
X81182040Y-92184232D01*
X81294040Y-92114925D01*
X81294044Y-92114922D01*
X81298013Y-92112466D01*
X81499711Y-91941716D01*
X81520883Y-91917574D01*
X81670874Y-91746543D01*
X81670878Y-91746538D01*
X81673956Y-91743028D01*
X81816919Y-91520767D01*
X81925459Y-91279817D01*
X81997192Y-91025470D01*
X82030542Y-90763314D01*
X82032986Y-90670000D01*
X82013401Y-90406458D01*
X81955078Y-90148705D01*
X81939554Y-90108785D01*
X81860990Y-89906758D01*
X81860989Y-89906756D01*
X81859297Y-89902405D01*
X81837837Y-89864857D01*
X81730481Y-89677025D01*
X81728162Y-89672967D01*
X81564555Y-89465432D01*
X81372069Y-89284360D01*
X81330413Y-89255462D01*
X81158776Y-89136392D01*
X81158773Y-89136390D01*
X81154934Y-89133727D01*
X81150744Y-89131661D01*
X81150741Y-89131659D01*
X80922106Y-89018909D01*
X80922103Y-89018908D01*
X80917918Y-89016844D01*
X80871196Y-89001888D01*
X80670675Y-88937701D01*
X80670677Y-88937701D01*
X80666230Y-88936278D01*
X80523544Y-88913040D01*
X80410009Y-88894550D01*
X80410008Y-88894550D01*
X80405397Y-88893799D01*
X80273274Y-88892070D01*
X80145828Y-88890401D01*
X80145825Y-88890401D01*
X80141151Y-88890340D01*
X79879296Y-88925977D01*
X79625585Y-88999927D01*
X79385591Y-89110565D01*
X79381682Y-89113128D01*
X79168500Y-89252896D01*
X79168495Y-89252900D01*
X79164587Y-89255462D01*
X78967427Y-89431434D01*
X78798443Y-89634615D01*
X78661348Y-89860541D01*
X78659539Y-89864855D01*
X78659538Y-89864857D01*
X78641968Y-89906758D01*
X78559152Y-90104250D01*
X78494102Y-90360388D01*
X78467625Y-90623327D01*
X70500000Y-90623327D01*
X70500000Y-80281427D01*
X78467625Y-80281427D01*
X78467849Y-80286093D01*
X78467849Y-80286099D01*
X78470026Y-80331423D01*
X78480304Y-80545391D01*
X78531860Y-80804582D01*
X78533439Y-80808980D01*
X78533441Y-80808987D01*
X78619578Y-81048897D01*
X78621161Y-81053306D01*
X78746245Y-81286098D01*
X78904363Y-81497844D01*
X78907672Y-81501124D01*
X78907677Y-81501130D01*
X79010274Y-81602835D01*
X79092043Y-81683893D01*
X79095805Y-81686651D01*
X79095808Y-81686654D01*
X79213603Y-81773025D01*
X79305161Y-81840158D01*
X79309292Y-81842332D01*
X79309293Y-81842332D01*
X79534901Y-81961030D01*
X79534907Y-81961032D01*
X79539036Y-81963205D01*
X79543443Y-81964744D01*
X79543450Y-81964747D01*
X79784113Y-82048790D01*
X79788529Y-82050332D01*
X79793122Y-82051204D01*
X79944999Y-82080039D01*
X80048160Y-82099625D01*
X80173677Y-82104557D01*
X80307557Y-82109817D01*
X80307562Y-82109817D01*
X80312225Y-82110000D01*
X80414912Y-82098754D01*
X80570270Y-82081740D01*
X80570275Y-82081739D01*
X80574923Y-82081230D01*
X80698138Y-82048790D01*
X80825960Y-82015137D01*
X80825962Y-82015136D01*
X80830483Y-82013946D01*
X80834780Y-82012100D01*
X81068997Y-81911473D01*
X81068999Y-81911472D01*
X81073291Y-81909628D01*
X81182040Y-81842332D01*
X81294040Y-81773025D01*
X81294044Y-81773022D01*
X81298013Y-81770566D01*
X81499711Y-81599816D01*
X81520883Y-81575674D01*
X81670874Y-81404643D01*
X81670878Y-81404638D01*
X81673956Y-81401128D01*
X81816919Y-81178867D01*
X81925459Y-80937917D01*
X81997192Y-80683570D01*
X82015365Y-80540719D01*
X82030144Y-80424544D01*
X82030144Y-80424540D01*
X82030542Y-80421414D01*
X82032986Y-80328100D01*
X82022493Y-80186897D01*
X82013747Y-80069210D01*
X82013746Y-80069206D01*
X82013401Y-80064558D01*
X81996503Y-79989877D01*
X89775012Y-79989877D01*
X89790785Y-80150748D01*
X89841808Y-80304128D01*
X89845455Y-80310150D01*
X89845456Y-80310152D01*
X89910928Y-80418258D01*
X89925543Y-80442391D01*
X90037830Y-80558668D01*
X90173087Y-80647177D01*
X90179687Y-80649632D01*
X90179688Y-80649632D01*
X90317990Y-80701067D01*
X90317992Y-80701068D01*
X90324592Y-80703522D01*
X90331570Y-80704453D01*
X90331574Y-80704454D01*
X90379806Y-80710889D01*
X90484816Y-80724900D01*
X90491827Y-80724262D01*
X90491831Y-80724262D01*
X90638772Y-80710889D01*
X90645793Y-80710250D01*
X90652495Y-80708072D01*
X90652497Y-80708072D01*
X90792825Y-80662476D01*
X90799525Y-80660299D01*
X90817419Y-80649632D01*
X90932318Y-80581139D01*
X90932320Y-80581138D01*
X90938370Y-80577531D01*
X91055427Y-80466059D01*
X91067788Y-80447455D01*
X91140978Y-80337294D01*
X91144879Y-80331423D01*
X91202280Y-80180315D01*
X91205496Y-80157433D01*
X91224225Y-80024169D01*
X91224226Y-80024162D01*
X91224776Y-80020245D01*
X91225059Y-80000000D01*
X91207041Y-79839364D01*
X91201303Y-79822885D01*
X91156200Y-79693369D01*
X91153882Y-79686712D01*
X91148197Y-79677613D01*
X91071957Y-79555605D01*
X91068224Y-79549631D01*
X91033477Y-79514640D01*
X90959287Y-79439931D01*
X90954325Y-79434934D01*
X90817845Y-79348321D01*
X90759089Y-79327399D01*
X90672203Y-79296460D01*
X90672198Y-79296459D01*
X90665568Y-79294098D01*
X90658582Y-79293265D01*
X90658578Y-79293264D01*
X90544624Y-79279676D01*
X90505062Y-79274959D01*
X90498059Y-79275695D01*
X90498058Y-79275695D01*
X90456808Y-79280031D01*
X90344304Y-79291855D01*
X90337636Y-79294125D01*
X90197952Y-79341677D01*
X90197949Y-79341678D01*
X90191285Y-79343947D01*
X90185290Y-79347635D01*
X90185286Y-79347637D01*
X90059610Y-79424954D01*
X90053609Y-79428646D01*
X90048576Y-79433575D01*
X89957302Y-79522957D01*
X89938120Y-79541741D01*
X89850556Y-79677613D01*
X89848145Y-79684236D01*
X89848144Y-79684239D01*
X89797681Y-79822885D01*
X89797680Y-79822890D01*
X89795271Y-79829508D01*
X89775012Y-79989877D01*
X81996503Y-79989877D01*
X81955078Y-79806805D01*
X81939554Y-79766885D01*
X81860990Y-79564858D01*
X81860989Y-79564856D01*
X81859297Y-79560505D01*
X81856497Y-79555605D01*
X81740183Y-79352100D01*
X81728162Y-79331067D01*
X81564555Y-79123532D01*
X81372069Y-78942460D01*
X81330413Y-78913562D01*
X81158776Y-78794492D01*
X81158773Y-78794490D01*
X81154934Y-78791827D01*
X81150744Y-78789761D01*
X81150741Y-78789759D01*
X80922106Y-78677009D01*
X80922103Y-78677008D01*
X80917918Y-78674944D01*
X80871196Y-78659988D01*
X80670675Y-78595801D01*
X80670677Y-78595801D01*
X80666230Y-78594378D01*
X80523544Y-78571140D01*
X80410009Y-78552650D01*
X80410008Y-78552650D01*
X80405397Y-78551899D01*
X80273274Y-78550169D01*
X80145828Y-78548501D01*
X80145825Y-78548501D01*
X80141151Y-78548440D01*
X79879296Y-78584077D01*
X79625585Y-78658027D01*
X79385591Y-78768665D01*
X79381682Y-78771228D01*
X79168500Y-78910996D01*
X79168495Y-78911000D01*
X79164587Y-78913562D01*
X78967427Y-79089534D01*
X78798443Y-79292715D01*
X78661348Y-79518641D01*
X78659539Y-79522955D01*
X78659538Y-79522957D01*
X78590870Y-79686712D01*
X78559152Y-79762350D01*
X78558001Y-79766882D01*
X78558000Y-79766885D01*
X78539593Y-79839364D01*
X78494102Y-80018488D01*
X78467625Y-80281427D01*
X70500000Y-80281427D01*
X70500000Y-75739877D01*
X90275012Y-75739877D01*
X90290785Y-75900748D01*
X90341808Y-76054128D01*
X90345455Y-76060150D01*
X90345456Y-76060152D01*
X90354349Y-76074835D01*
X90425543Y-76192391D01*
X90537830Y-76308668D01*
X90673087Y-76397177D01*
X90679687Y-76399632D01*
X90679688Y-76399632D01*
X90817990Y-76451067D01*
X90817992Y-76451068D01*
X90824592Y-76453522D01*
X90831570Y-76454453D01*
X90831574Y-76454454D01*
X90879806Y-76460889D01*
X90984816Y-76474900D01*
X90991827Y-76474262D01*
X90991831Y-76474262D01*
X91138772Y-76460889D01*
X91145793Y-76460250D01*
X91152495Y-76458072D01*
X91152497Y-76458072D01*
X91292825Y-76412476D01*
X91299525Y-76410299D01*
X91317419Y-76399632D01*
X91432318Y-76331139D01*
X91432320Y-76331138D01*
X91438370Y-76327531D01*
X91555427Y-76216059D01*
X91567788Y-76197455D01*
X91640978Y-76087294D01*
X91644879Y-76081423D01*
X91702280Y-75930315D01*
X91705496Y-75907433D01*
X91724225Y-75774169D01*
X91724226Y-75774162D01*
X91724776Y-75770245D01*
X91725059Y-75750000D01*
X91707041Y-75589364D01*
X91701303Y-75572885D01*
X91656200Y-75443369D01*
X91653882Y-75436712D01*
X91648197Y-75427613D01*
X91571957Y-75305605D01*
X91568224Y-75299631D01*
X91454325Y-75184934D01*
X91317845Y-75098321D01*
X91292658Y-75089352D01*
X91172203Y-75046460D01*
X91172198Y-75046459D01*
X91165568Y-75044098D01*
X91158582Y-75043265D01*
X91158578Y-75043264D01*
X91044624Y-75029676D01*
X91005062Y-75024959D01*
X90998059Y-75025695D01*
X90998058Y-75025695D01*
X90956808Y-75030031D01*
X90844304Y-75041855D01*
X90837636Y-75044125D01*
X90697952Y-75091677D01*
X90697949Y-75091678D01*
X90691285Y-75093947D01*
X90685290Y-75097635D01*
X90685286Y-75097637D01*
X90559610Y-75174954D01*
X90553609Y-75178646D01*
X90438120Y-75291741D01*
X90350556Y-75427613D01*
X90348145Y-75434236D01*
X90348144Y-75434239D01*
X90297681Y-75572885D01*
X90297680Y-75572890D01*
X90295271Y-75579508D01*
X90275012Y-75739877D01*
X70500000Y-75739877D01*
X70500000Y-71992927D01*
X86324612Y-71992927D01*
X86342420Y-72154234D01*
X86349951Y-72174813D01*
X86395580Y-72299501D01*
X86395582Y-72299505D01*
X86398192Y-72306637D01*
X86402429Y-72312943D01*
X86402431Y-72312946D01*
X86444130Y-72374999D01*
X86488707Y-72441337D01*
X86494325Y-72446449D01*
X86603118Y-72545444D01*
X86603122Y-72545447D01*
X86608739Y-72550558D01*
X86615412Y-72554181D01*
X86615416Y-72554184D01*
X86744686Y-72624371D01*
X86751359Y-72627994D01*
X86908334Y-72669176D01*
X86994250Y-72670526D01*
X87063004Y-72671606D01*
X87063007Y-72671606D01*
X87070601Y-72671725D01*
X87126392Y-72658947D01*
X87221389Y-72637190D01*
X87221393Y-72637189D01*
X87228792Y-72635494D01*
X87373774Y-72562576D01*
X87417322Y-72525383D01*
X87482109Y-72496353D01*
X87552309Y-72506958D01*
X87583951Y-72528003D01*
X87603118Y-72545444D01*
X87603122Y-72545447D01*
X87608739Y-72550558D01*
X87751359Y-72627994D01*
X87908334Y-72669176D01*
X87994250Y-72670526D01*
X88063004Y-72671606D01*
X88063007Y-72671606D01*
X88070601Y-72671725D01*
X88126392Y-72658947D01*
X88221389Y-72637190D01*
X88221393Y-72637189D01*
X88228792Y-72635494D01*
X88373774Y-72562576D01*
X88417320Y-72525384D01*
X88491404Y-72462111D01*
X88491406Y-72462108D01*
X88497178Y-72457179D01*
X88591879Y-72325388D01*
X88652410Y-72174813D01*
X88675277Y-72014145D01*
X88675425Y-72000000D01*
X88655928Y-71838889D01*
X88598564Y-71687078D01*
X88595463Y-71682566D01*
X88581807Y-71613820D01*
X88593352Y-71575980D01*
X88591879Y-71575388D01*
X88649577Y-71431861D01*
X88649578Y-71431859D01*
X88652410Y-71424813D01*
X88675277Y-71264145D01*
X88675425Y-71250000D01*
X88655928Y-71088889D01*
X88598564Y-70937078D01*
X88595463Y-70932566D01*
X88581807Y-70863820D01*
X88593352Y-70825980D01*
X88591879Y-70825388D01*
X88649577Y-70681861D01*
X88649578Y-70681859D01*
X88652410Y-70674813D01*
X88675277Y-70514145D01*
X88675425Y-70500000D01*
X88655928Y-70338889D01*
X88598564Y-70187078D01*
X88595463Y-70182566D01*
X88581807Y-70113820D01*
X88593352Y-70075980D01*
X88591879Y-70075388D01*
X88649577Y-69931861D01*
X88649578Y-69931859D01*
X88652410Y-69924813D01*
X88675277Y-69764145D01*
X88675425Y-69750000D01*
X88655928Y-69588889D01*
X88598564Y-69437078D01*
X88595463Y-69432566D01*
X88581807Y-69363820D01*
X88593352Y-69325980D01*
X88591879Y-69325388D01*
X88649577Y-69181861D01*
X88649578Y-69181859D01*
X88652410Y-69174813D01*
X88675277Y-69014145D01*
X88675425Y-69000000D01*
X88655928Y-68838889D01*
X88598564Y-68687078D01*
X88506644Y-68553333D01*
X88499403Y-68546881D01*
X88450786Y-68503566D01*
X88385474Y-68445375D01*
X88242051Y-68369436D01*
X88232098Y-68366936D01*
X88092024Y-68331752D01*
X88092021Y-68331752D01*
X88084653Y-68329901D01*
X88077054Y-68329861D01*
X88077052Y-68329861D01*
X88010042Y-68329510D01*
X87922369Y-68329051D01*
X87914989Y-68330823D01*
X87914987Y-68330823D01*
X87771945Y-68365164D01*
X87771941Y-68365165D01*
X87764566Y-68366936D01*
X87620355Y-68441369D01*
X87584112Y-68472986D01*
X87583112Y-68473858D01*
X87518630Y-68503566D01*
X87448323Y-68493696D01*
X87416464Y-68472986D01*
X87391145Y-68450428D01*
X87385474Y-68445375D01*
X87242051Y-68369436D01*
X87232098Y-68366936D01*
X87092024Y-68331752D01*
X87092021Y-68331752D01*
X87084653Y-68329901D01*
X87077054Y-68329861D01*
X87077052Y-68329861D01*
X87010042Y-68329510D01*
X86922369Y-68329051D01*
X86914989Y-68330823D01*
X86914987Y-68330823D01*
X86771945Y-68365164D01*
X86771941Y-68365165D01*
X86764566Y-68366936D01*
X86620355Y-68441369D01*
X86614633Y-68446361D01*
X86614631Y-68446362D01*
X86503788Y-68543056D01*
X86498061Y-68548052D01*
X86404746Y-68680827D01*
X86345795Y-68832029D01*
X86324612Y-68992927D01*
X86342420Y-69154234D01*
X86398192Y-69306637D01*
X86402428Y-69312941D01*
X86404955Y-69317900D01*
X86418060Y-69387677D01*
X86405017Y-69430441D01*
X86404746Y-69430827D01*
X86401989Y-69437898D01*
X86401987Y-69437902D01*
X86348553Y-69574955D01*
X86345795Y-69582029D01*
X86324612Y-69742927D01*
X86342420Y-69904234D01*
X86398192Y-70056637D01*
X86402428Y-70062941D01*
X86404955Y-70067900D01*
X86418060Y-70137677D01*
X86405017Y-70180441D01*
X86404746Y-70180827D01*
X86401989Y-70187898D01*
X86401987Y-70187902D01*
X86348553Y-70324955D01*
X86345795Y-70332029D01*
X86324612Y-70492927D01*
X86342420Y-70654234D01*
X86398192Y-70806637D01*
X86402428Y-70812941D01*
X86404955Y-70817900D01*
X86418060Y-70887677D01*
X86405017Y-70930441D01*
X86404746Y-70930827D01*
X86401989Y-70937898D01*
X86401987Y-70937902D01*
X86348553Y-71074955D01*
X86345795Y-71082029D01*
X86324612Y-71242927D01*
X86342420Y-71404234D01*
X86398192Y-71556637D01*
X86402428Y-71562941D01*
X86404955Y-71567900D01*
X86418060Y-71637677D01*
X86405017Y-71680441D01*
X86404746Y-71680827D01*
X86401989Y-71687898D01*
X86401987Y-71687902D01*
X86348553Y-71824955D01*
X86345795Y-71832029D01*
X86324612Y-71992927D01*
X70500000Y-71992927D01*
X70500000Y-65626000D01*
X70520002Y-65557879D01*
X70573658Y-65511386D01*
X70626000Y-65500000D01*
X92124000Y-65500000D01*
X92192121Y-65520002D01*
G37*
%TD.AperFunction*%
%TA.AperFunction,NonConductor*%
G36*
X92192121Y-65520002D02*
G01*
X92238614Y-65573658D01*
X92250000Y-65626000D01*
X92250000Y-118124000D01*
X92229998Y-118192121D01*
X92176342Y-118238614D01*
X92124000Y-118250000D01*
X70626000Y-118250000D01*
X70557879Y-118229998D01*
X70511386Y-118176342D01*
X70500000Y-118124000D01*
X70500000Y-111639877D01*
X87915012Y-111639877D01*
X87930785Y-111800748D01*
X87981808Y-111954128D01*
X87985455Y-111960150D01*
X87985456Y-111960152D01*
X87994349Y-111974835D01*
X88065543Y-112092391D01*
X88177830Y-112208668D01*
X88313087Y-112297177D01*
X88319687Y-112299632D01*
X88319688Y-112299632D01*
X88457990Y-112351067D01*
X88457992Y-112351068D01*
X88464592Y-112353522D01*
X88471570Y-112354453D01*
X88471574Y-112354454D01*
X88519806Y-112360889D01*
X88624816Y-112374900D01*
X88631827Y-112374262D01*
X88631831Y-112374262D01*
X88778772Y-112360889D01*
X88785793Y-112360250D01*
X88792495Y-112358072D01*
X88792497Y-112358072D01*
X88932825Y-112312476D01*
X88939525Y-112310299D01*
X88957419Y-112299632D01*
X89072318Y-112231139D01*
X89072320Y-112231138D01*
X89078370Y-112227531D01*
X89195427Y-112116059D01*
X89207788Y-112097455D01*
X89280978Y-111987294D01*
X89284879Y-111981423D01*
X89342280Y-111830315D01*
X89345496Y-111807433D01*
X89364225Y-111674169D01*
X89364226Y-111674162D01*
X89364776Y-111670245D01*
X89365059Y-111650000D01*
X89347041Y-111489364D01*
X89341303Y-111472885D01*
X89296200Y-111343369D01*
X89293882Y-111336712D01*
X89288197Y-111327613D01*
X89211957Y-111205605D01*
X89208224Y-111199631D01*
X89094325Y-111084934D01*
X88957845Y-110998321D01*
X88932658Y-110989352D01*
X88812203Y-110946460D01*
X88812198Y-110946459D01*
X88805568Y-110944098D01*
X88798582Y-110943265D01*
X88798578Y-110943264D01*
X88684624Y-110929676D01*
X88645062Y-110924959D01*
X88638059Y-110925695D01*
X88638058Y-110925695D01*
X88596808Y-110930031D01*
X88484304Y-110941855D01*
X88477636Y-110944125D01*
X88337952Y-110991677D01*
X88337949Y-110991678D01*
X88331285Y-110993947D01*
X88325290Y-110997635D01*
X88325286Y-110997637D01*
X88199610Y-111074954D01*
X88193609Y-111078646D01*
X88078120Y-111191741D01*
X87990556Y-111327613D01*
X87988145Y-111334236D01*
X87988144Y-111334239D01*
X87937681Y-111472885D01*
X87937680Y-111472890D01*
X87935271Y-111479508D01*
X87915012Y-111639877D01*
X70500000Y-111639877D01*
X70500000Y-108742927D01*
X87324612Y-108742927D01*
X87342420Y-108904234D01*
X87349951Y-108924813D01*
X87395580Y-109049501D01*
X87395582Y-109049505D01*
X87398192Y-109056637D01*
X87402429Y-109062943D01*
X87402431Y-109062946D01*
X87444130Y-109124999D01*
X87488707Y-109191337D01*
X87494325Y-109196449D01*
X87603118Y-109295444D01*
X87603122Y-109295447D01*
X87608739Y-109300558D01*
X87615412Y-109304181D01*
X87615416Y-109304184D01*
X87744686Y-109374371D01*
X87751359Y-109377994D01*
X87908334Y-109419176D01*
X87994250Y-109420526D01*
X88063004Y-109421606D01*
X88063007Y-109421606D01*
X88070601Y-109421725D01*
X88126392Y-109408947D01*
X88221389Y-109387190D01*
X88221393Y-109387189D01*
X88228792Y-109385494D01*
X88318613Y-109340319D01*
X88388456Y-109327580D01*
X88435348Y-109342153D01*
X88501359Y-109377994D01*
X88658334Y-109419176D01*
X88744250Y-109420526D01*
X88813004Y-109421606D01*
X88813007Y-109421606D01*
X88820601Y-109421725D01*
X88876392Y-109408947D01*
X88971389Y-109387190D01*
X88971393Y-109387189D01*
X88978792Y-109385494D01*
X89123774Y-109312576D01*
X89150060Y-109290126D01*
X89241404Y-109212111D01*
X89241406Y-109212108D01*
X89247178Y-109207179D01*
X89341879Y-109075388D01*
X89402410Y-108924813D01*
X89425277Y-108764145D01*
X89425425Y-108750000D01*
X89405928Y-108588889D01*
X89348564Y-108437078D01*
X89345463Y-108432566D01*
X89331807Y-108363820D01*
X89343352Y-108325980D01*
X89341879Y-108325388D01*
X89399577Y-108181861D01*
X89399578Y-108181859D01*
X89402410Y-108174813D01*
X89425277Y-108014145D01*
X89425425Y-108000000D01*
X89405928Y-107838889D01*
X89348564Y-107687078D01*
X89345463Y-107682566D01*
X89331807Y-107613820D01*
X89343352Y-107575980D01*
X89341879Y-107575388D01*
X89399577Y-107431861D01*
X89399578Y-107431859D01*
X89402410Y-107424813D01*
X89425277Y-107264145D01*
X89425425Y-107250000D01*
X89405928Y-107088889D01*
X89348564Y-106937078D01*
X89345463Y-106932566D01*
X89331807Y-106863820D01*
X89343352Y-106825980D01*
X89341879Y-106825388D01*
X89399577Y-106681861D01*
X89399578Y-106681859D01*
X89402410Y-106674813D01*
X89425277Y-106514145D01*
X89425425Y-106500000D01*
X89405928Y-106338889D01*
X89348564Y-106187078D01*
X89345463Y-106182566D01*
X89331807Y-106113820D01*
X89343352Y-106075980D01*
X89341879Y-106075388D01*
X89399577Y-105931861D01*
X89399578Y-105931859D01*
X89402410Y-105924813D01*
X89425277Y-105764145D01*
X89425425Y-105750000D01*
X89405928Y-105588889D01*
X89348564Y-105437078D01*
X89256644Y-105303333D01*
X89135474Y-105195375D01*
X88992051Y-105119436D01*
X88982098Y-105116936D01*
X88842024Y-105081752D01*
X88842021Y-105081752D01*
X88834653Y-105079901D01*
X88827054Y-105079861D01*
X88827052Y-105079861D01*
X88760042Y-105079510D01*
X88672369Y-105079051D01*
X88664989Y-105080823D01*
X88664987Y-105080823D01*
X88521945Y-105115164D01*
X88521941Y-105115165D01*
X88514566Y-105116936D01*
X88507821Y-105120417D01*
X88507822Y-105120417D01*
X88432714Y-105159183D01*
X88363007Y-105172652D01*
X88315967Y-105158573D01*
X88242051Y-105119436D01*
X88232098Y-105116936D01*
X88092024Y-105081752D01*
X88092021Y-105081752D01*
X88084653Y-105079901D01*
X88077054Y-105079861D01*
X88077052Y-105079861D01*
X88010042Y-105079510D01*
X87922369Y-105079051D01*
X87914989Y-105080823D01*
X87914987Y-105080823D01*
X87771945Y-105115164D01*
X87771941Y-105115165D01*
X87764566Y-105116936D01*
X87620355Y-105191369D01*
X87498061Y-105298052D01*
X87404746Y-105430827D01*
X87345795Y-105582029D01*
X87324612Y-105742927D01*
X87342420Y-105904234D01*
X87398192Y-106056637D01*
X87402428Y-106062941D01*
X87404955Y-106067900D01*
X87418060Y-106137677D01*
X87405017Y-106180441D01*
X87404746Y-106180827D01*
X87401989Y-106187898D01*
X87401987Y-106187902D01*
X87348553Y-106324955D01*
X87345795Y-106332029D01*
X87324612Y-106492927D01*
X87342420Y-106654234D01*
X87398192Y-106806637D01*
X87402428Y-106812941D01*
X87404955Y-106817900D01*
X87418060Y-106887677D01*
X87405017Y-106930441D01*
X87404746Y-106930827D01*
X87401989Y-106937898D01*
X87401987Y-106937902D01*
X87348553Y-107074955D01*
X87345795Y-107082029D01*
X87324612Y-107242927D01*
X87342420Y-107404234D01*
X87398192Y-107556637D01*
X87402428Y-107562941D01*
X87404955Y-107567900D01*
X87418060Y-107637677D01*
X87405017Y-107680441D01*
X87404746Y-107680827D01*
X87401989Y-107687898D01*
X87401987Y-107687902D01*
X87348553Y-107824955D01*
X87345795Y-107832029D01*
X87324612Y-107992927D01*
X87342420Y-108154234D01*
X87398192Y-108306637D01*
X87402428Y-108312941D01*
X87404955Y-108317900D01*
X87418060Y-108387677D01*
X87405017Y-108430441D01*
X87404746Y-108430827D01*
X87401989Y-108437898D01*
X87401987Y-108437902D01*
X87348553Y-108574955D01*
X87345795Y-108582029D01*
X87324612Y-108742927D01*
X70500000Y-108742927D01*
X70500000Y-103989877D01*
X90525012Y-103989877D01*
X90540785Y-104150748D01*
X90591808Y-104304128D01*
X90595455Y-104310150D01*
X90595456Y-104310152D01*
X90604349Y-104324835D01*
X90675543Y-104442391D01*
X90787830Y-104558668D01*
X90923087Y-104647177D01*
X90929687Y-104649632D01*
X90929688Y-104649632D01*
X91067990Y-104701067D01*
X91067992Y-104701068D01*
X91074592Y-104703522D01*
X91081570Y-104704453D01*
X91081574Y-104704454D01*
X91129806Y-104710889D01*
X91234816Y-104724900D01*
X91241827Y-104724262D01*
X91241831Y-104724262D01*
X91388772Y-104710889D01*
X91395793Y-104710250D01*
X91402495Y-104708072D01*
X91402497Y-104708072D01*
X91542825Y-104662476D01*
X91549525Y-104660299D01*
X91567419Y-104649632D01*
X91682318Y-104581139D01*
X91682320Y-104581138D01*
X91688370Y-104577531D01*
X91805427Y-104466059D01*
X91817788Y-104447455D01*
X91890978Y-104337294D01*
X91894879Y-104331423D01*
X91952280Y-104180315D01*
X91955496Y-104157433D01*
X91974225Y-104024169D01*
X91974226Y-104024162D01*
X91974776Y-104020245D01*
X91975059Y-104000000D01*
X91957041Y-103839364D01*
X91951303Y-103822885D01*
X91906200Y-103693369D01*
X91903882Y-103686712D01*
X91898197Y-103677613D01*
X91821957Y-103555605D01*
X91818224Y-103549631D01*
X91704325Y-103434934D01*
X91567845Y-103348321D01*
X91542658Y-103339352D01*
X91422203Y-103296460D01*
X91422198Y-103296459D01*
X91415568Y-103294098D01*
X91408582Y-103293265D01*
X91408578Y-103293264D01*
X91294624Y-103279676D01*
X91255062Y-103274959D01*
X91248059Y-103275695D01*
X91248058Y-103275695D01*
X91206808Y-103280031D01*
X91094304Y-103291855D01*
X91087636Y-103294125D01*
X90947952Y-103341677D01*
X90947949Y-103341678D01*
X90941285Y-103343947D01*
X90935290Y-103347635D01*
X90935286Y-103347637D01*
X90809610Y-103424954D01*
X90803609Y-103428646D01*
X90688120Y-103541741D01*
X90600556Y-103677613D01*
X90598145Y-103684236D01*
X90598144Y-103684239D01*
X90547681Y-103822885D01*
X90547680Y-103822890D01*
X90545271Y-103829508D01*
X90525012Y-103989877D01*
X70500000Y-103989877D01*
X70500000Y-100923327D01*
X78467625Y-100923327D01*
X78467849Y-100927993D01*
X78467849Y-100927999D01*
X78473076Y-101036814D01*
X78480304Y-101187291D01*
X78531860Y-101446482D01*
X78533439Y-101450880D01*
X78533441Y-101450887D01*
X78602683Y-101643740D01*
X78621161Y-101695206D01*
X78746245Y-101927998D01*
X78904363Y-102139744D01*
X78907672Y-102143024D01*
X78907677Y-102143030D01*
X79010274Y-102244735D01*
X79092043Y-102325793D01*
X79095805Y-102328551D01*
X79095808Y-102328554D01*
X79213603Y-102414925D01*
X79305161Y-102482058D01*
X79309292Y-102484232D01*
X79309293Y-102484232D01*
X79534901Y-102602930D01*
X79534907Y-102602932D01*
X79539036Y-102605105D01*
X79543443Y-102606644D01*
X79543450Y-102606647D01*
X79784113Y-102690690D01*
X79788529Y-102692232D01*
X79793122Y-102693104D01*
X79944999Y-102721939D01*
X80048160Y-102741525D01*
X80173677Y-102746457D01*
X80307557Y-102751717D01*
X80307562Y-102751717D01*
X80312225Y-102751900D01*
X80414912Y-102740654D01*
X80570270Y-102723640D01*
X80570275Y-102723639D01*
X80574923Y-102723130D01*
X80698138Y-102690690D01*
X80825960Y-102657037D01*
X80825962Y-102657036D01*
X80830483Y-102655846D01*
X80834780Y-102654000D01*
X81068997Y-102553373D01*
X81068999Y-102553372D01*
X81073291Y-102551528D01*
X81182040Y-102484232D01*
X81294040Y-102414925D01*
X81294044Y-102414922D01*
X81298013Y-102412466D01*
X81499711Y-102241716D01*
X81582620Y-102147177D01*
X81670874Y-102046543D01*
X81670878Y-102046538D01*
X81673956Y-102043028D01*
X81727241Y-101960188D01*
X81814391Y-101824697D01*
X81816919Y-101820767D01*
X81925459Y-101579817D01*
X81950825Y-101489877D01*
X87025012Y-101489877D01*
X87040785Y-101650748D01*
X87091808Y-101804128D01*
X87095455Y-101810150D01*
X87095456Y-101810152D01*
X87164331Y-101923877D01*
X87175543Y-101942391D01*
X87287830Y-102058668D01*
X87423087Y-102147177D01*
X87429687Y-102149632D01*
X87429688Y-102149632D01*
X87567990Y-102201067D01*
X87567992Y-102201068D01*
X87574592Y-102203522D01*
X87581570Y-102204453D01*
X87581574Y-102204454D01*
X87629806Y-102210889D01*
X87734816Y-102224900D01*
X87741827Y-102224262D01*
X87741831Y-102224262D01*
X87888772Y-102210889D01*
X87895793Y-102210250D01*
X87902495Y-102208072D01*
X87902497Y-102208072D01*
X88042825Y-102162476D01*
X88049525Y-102160299D01*
X88067419Y-102149632D01*
X88182318Y-102081139D01*
X88182320Y-102081138D01*
X88188370Y-102077531D01*
X88305427Y-101966059D01*
X88317788Y-101947455D01*
X88390978Y-101837294D01*
X88394879Y-101831423D01*
X88445056Y-101699332D01*
X88449780Y-101686897D01*
X88449781Y-101686895D01*
X88452280Y-101680315D01*
X88455496Y-101657433D01*
X88474225Y-101524169D01*
X88474226Y-101524162D01*
X88474776Y-101520245D01*
X88475059Y-101500000D01*
X88457041Y-101339364D01*
X88451303Y-101322885D01*
X88406200Y-101193369D01*
X88403882Y-101186712D01*
X88398197Y-101177613D01*
X88321957Y-101055605D01*
X88318224Y-101049631D01*
X88204325Y-100934934D01*
X88193398Y-100927999D01*
X88152114Y-100901800D01*
X88067845Y-100848321D01*
X88042658Y-100839352D01*
X87922203Y-100796460D01*
X87922198Y-100796459D01*
X87915568Y-100794098D01*
X87908582Y-100793265D01*
X87908578Y-100793264D01*
X87794624Y-100779676D01*
X87755062Y-100774959D01*
X87748059Y-100775695D01*
X87748058Y-100775695D01*
X87706808Y-100780031D01*
X87594304Y-100791855D01*
X87587636Y-100794125D01*
X87447952Y-100841677D01*
X87447949Y-100841678D01*
X87441285Y-100843947D01*
X87435290Y-100847635D01*
X87435286Y-100847637D01*
X87319820Y-100918673D01*
X87303609Y-100928646D01*
X87188120Y-101041741D01*
X87100556Y-101177613D01*
X87098145Y-101184236D01*
X87098144Y-101184239D01*
X87047681Y-101322885D01*
X87047680Y-101322890D01*
X87045271Y-101329508D01*
X87025012Y-101489877D01*
X81950825Y-101489877D01*
X81997192Y-101325470D01*
X82030542Y-101063314D01*
X82030901Y-101049631D01*
X82032903Y-100973160D01*
X82032986Y-100970000D01*
X82024224Y-100852100D01*
X82013747Y-100711110D01*
X82013746Y-100711106D01*
X82013401Y-100706458D01*
X81955078Y-100448705D01*
X81939554Y-100408785D01*
X81860990Y-100206758D01*
X81860989Y-100206756D01*
X81859297Y-100202405D01*
X81837837Y-100164857D01*
X81730481Y-99977025D01*
X81728162Y-99972967D01*
X81564555Y-99765432D01*
X81372069Y-99584360D01*
X81330413Y-99555462D01*
X81158776Y-99436392D01*
X81158773Y-99436390D01*
X81154934Y-99433727D01*
X81150744Y-99431661D01*
X81150741Y-99431659D01*
X80922106Y-99318909D01*
X80922103Y-99318908D01*
X80917918Y-99316844D01*
X80871196Y-99301888D01*
X80670675Y-99237701D01*
X80670677Y-99237701D01*
X80666230Y-99236278D01*
X80523544Y-99213040D01*
X80410009Y-99194550D01*
X80410008Y-99194550D01*
X80405397Y-99193799D01*
X80273274Y-99192070D01*
X80145828Y-99190401D01*
X80145825Y-99190401D01*
X80141151Y-99190340D01*
X79879296Y-99225977D01*
X79625585Y-99299927D01*
X79385591Y-99410565D01*
X79381682Y-99413128D01*
X79168500Y-99552896D01*
X79168495Y-99552900D01*
X79164587Y-99555462D01*
X78967427Y-99731434D01*
X78798443Y-99934615D01*
X78661348Y-100160541D01*
X78659539Y-100164855D01*
X78659538Y-100164857D01*
X78641968Y-100206758D01*
X78559152Y-100404250D01*
X78494102Y-100660388D01*
X78467625Y-100923327D01*
X70500000Y-100923327D01*
X70500000Y-90623327D01*
X78467625Y-90623327D01*
X78467849Y-90627993D01*
X78467849Y-90627999D01*
X78473965Y-90755309D01*
X78480304Y-90887291D01*
X78531860Y-91146482D01*
X78533439Y-91150880D01*
X78533441Y-91150887D01*
X78619578Y-91390797D01*
X78621161Y-91395206D01*
X78746245Y-91627998D01*
X78904363Y-91839744D01*
X78907672Y-91843024D01*
X78907677Y-91843030D01*
X79010274Y-91944735D01*
X79092043Y-92025793D01*
X79095805Y-92028551D01*
X79095808Y-92028554D01*
X79213603Y-92114925D01*
X79305161Y-92182058D01*
X79309292Y-92184232D01*
X79309293Y-92184232D01*
X79534901Y-92302930D01*
X79534907Y-92302932D01*
X79539036Y-92305105D01*
X79543443Y-92306644D01*
X79543450Y-92306647D01*
X79784113Y-92390690D01*
X79788529Y-92392232D01*
X79793122Y-92393104D01*
X79944999Y-92421939D01*
X80048160Y-92441525D01*
X80173677Y-92446457D01*
X80307557Y-92451717D01*
X80307562Y-92451717D01*
X80312225Y-92451900D01*
X80414912Y-92440654D01*
X80570270Y-92423640D01*
X80570275Y-92423639D01*
X80574923Y-92423130D01*
X80698138Y-92390690D01*
X80825960Y-92357037D01*
X80825962Y-92357036D01*
X80830483Y-92355846D01*
X80834780Y-92354000D01*
X81068997Y-92253373D01*
X81068999Y-92253372D01*
X81073291Y-92251528D01*
X81182040Y-92184232D01*
X81294040Y-92114925D01*
X81294044Y-92114922D01*
X81298013Y-92112466D01*
X81499711Y-91941716D01*
X81520883Y-91917574D01*
X81670874Y-91746543D01*
X81670878Y-91746538D01*
X81673956Y-91743028D01*
X81816919Y-91520767D01*
X81925459Y-91279817D01*
X81997192Y-91025470D01*
X82030542Y-90763314D01*
X82032986Y-90670000D01*
X82013401Y-90406458D01*
X81955078Y-90148705D01*
X81939554Y-90108785D01*
X81860990Y-89906758D01*
X81860989Y-89906756D01*
X81859297Y-89902405D01*
X81837837Y-89864857D01*
X81730481Y-89677025D01*
X81728162Y-89672967D01*
X81564555Y-89465432D01*
X81372069Y-89284360D01*
X81330413Y-89255462D01*
X81158776Y-89136392D01*
X81158773Y-89136390D01*
X81154934Y-89133727D01*
X81150744Y-89131661D01*
X81150741Y-89131659D01*
X80922106Y-89018909D01*
X80922103Y-89018908D01*
X80917918Y-89016844D01*
X80871196Y-89001888D01*
X80670675Y-88937701D01*
X80670677Y-88937701D01*
X80666230Y-88936278D01*
X80523544Y-88913040D01*
X80410009Y-88894550D01*
X80410008Y-88894550D01*
X80405397Y-88893799D01*
X80273274Y-88892070D01*
X80145828Y-88890401D01*
X80145825Y-88890401D01*
X80141151Y-88890340D01*
X79879296Y-88925977D01*
X79625585Y-88999927D01*
X79385591Y-89110565D01*
X79381682Y-89113128D01*
X79168500Y-89252896D01*
X79168495Y-89252900D01*
X79164587Y-89255462D01*
X78967427Y-89431434D01*
X78798443Y-89634615D01*
X78661348Y-89860541D01*
X78659539Y-89864855D01*
X78659538Y-89864857D01*
X78641968Y-89906758D01*
X78559152Y-90104250D01*
X78494102Y-90360388D01*
X78467625Y-90623327D01*
X70500000Y-90623327D01*
X70500000Y-80281427D01*
X78467625Y-80281427D01*
X78467849Y-80286093D01*
X78467849Y-80286099D01*
X78470026Y-80331423D01*
X78480304Y-80545391D01*
X78531860Y-80804582D01*
X78533439Y-80808980D01*
X78533441Y-80808987D01*
X78619578Y-81048897D01*
X78621161Y-81053306D01*
X78746245Y-81286098D01*
X78904363Y-81497844D01*
X78907672Y-81501124D01*
X78907677Y-81501130D01*
X79010274Y-81602835D01*
X79092043Y-81683893D01*
X79095805Y-81686651D01*
X79095808Y-81686654D01*
X79213603Y-81773025D01*
X79305161Y-81840158D01*
X79309292Y-81842332D01*
X79309293Y-81842332D01*
X79534901Y-81961030D01*
X79534907Y-81961032D01*
X79539036Y-81963205D01*
X79543443Y-81964744D01*
X79543450Y-81964747D01*
X79784113Y-82048790D01*
X79788529Y-82050332D01*
X79793122Y-82051204D01*
X79944999Y-82080039D01*
X80048160Y-82099625D01*
X80173677Y-82104557D01*
X80307557Y-82109817D01*
X80307562Y-82109817D01*
X80312225Y-82110000D01*
X80414912Y-82098754D01*
X80570270Y-82081740D01*
X80570275Y-82081739D01*
X80574923Y-82081230D01*
X80698138Y-82048790D01*
X80825960Y-82015137D01*
X80825962Y-82015136D01*
X80830483Y-82013946D01*
X80834780Y-82012100D01*
X81068997Y-81911473D01*
X81068999Y-81911472D01*
X81073291Y-81909628D01*
X81182040Y-81842332D01*
X81294040Y-81773025D01*
X81294044Y-81773022D01*
X81298013Y-81770566D01*
X81499711Y-81599816D01*
X81520883Y-81575674D01*
X81670874Y-81404643D01*
X81670878Y-81404638D01*
X81673956Y-81401128D01*
X81816919Y-81178867D01*
X81925459Y-80937917D01*
X81997192Y-80683570D01*
X82015365Y-80540719D01*
X82030144Y-80424544D01*
X82030144Y-80424540D01*
X82030542Y-80421414D01*
X82032986Y-80328100D01*
X82022493Y-80186897D01*
X82013747Y-80069210D01*
X82013746Y-80069206D01*
X82013401Y-80064558D01*
X81996503Y-79989877D01*
X89775012Y-79989877D01*
X89790785Y-80150748D01*
X89841808Y-80304128D01*
X89845455Y-80310150D01*
X89845456Y-80310152D01*
X89910928Y-80418258D01*
X89925543Y-80442391D01*
X90037830Y-80558668D01*
X90173087Y-80647177D01*
X90179687Y-80649632D01*
X90179688Y-80649632D01*
X90317990Y-80701067D01*
X90317992Y-80701068D01*
X90324592Y-80703522D01*
X90331570Y-80704453D01*
X90331574Y-80704454D01*
X90379806Y-80710889D01*
X90484816Y-80724900D01*
X90491827Y-80724262D01*
X90491831Y-80724262D01*
X90638772Y-80710889D01*
X90645793Y-80710250D01*
X90652495Y-80708072D01*
X90652497Y-80708072D01*
X90792825Y-80662476D01*
X90799525Y-80660299D01*
X90817419Y-80649632D01*
X90932318Y-80581139D01*
X90932320Y-80581138D01*
X90938370Y-80577531D01*
X91055427Y-80466059D01*
X91067788Y-80447455D01*
X91140978Y-80337294D01*
X91144879Y-80331423D01*
X91202280Y-80180315D01*
X91205496Y-80157433D01*
X91224225Y-80024169D01*
X91224226Y-80024162D01*
X91224776Y-80020245D01*
X91225059Y-80000000D01*
X91207041Y-79839364D01*
X91201303Y-79822885D01*
X91156200Y-79693369D01*
X91153882Y-79686712D01*
X91148197Y-79677613D01*
X91071957Y-79555605D01*
X91068224Y-79549631D01*
X91033477Y-79514640D01*
X90959287Y-79439931D01*
X90954325Y-79434934D01*
X90817845Y-79348321D01*
X90759089Y-79327399D01*
X90672203Y-79296460D01*
X90672198Y-79296459D01*
X90665568Y-79294098D01*
X90658582Y-79293265D01*
X90658578Y-79293264D01*
X90544624Y-79279676D01*
X90505062Y-79274959D01*
X90498059Y-79275695D01*
X90498058Y-79275695D01*
X90456808Y-79280031D01*
X90344304Y-79291855D01*
X90337636Y-79294125D01*
X90197952Y-79341677D01*
X90197949Y-79341678D01*
X90191285Y-79343947D01*
X90185290Y-79347635D01*
X90185286Y-79347637D01*
X90059610Y-79424954D01*
X90053609Y-79428646D01*
X90048576Y-79433575D01*
X89957302Y-79522957D01*
X89938120Y-79541741D01*
X89850556Y-79677613D01*
X89848145Y-79684236D01*
X89848144Y-79684239D01*
X89797681Y-79822885D01*
X89797680Y-79822890D01*
X89795271Y-79829508D01*
X89775012Y-79989877D01*
X81996503Y-79989877D01*
X81955078Y-79806805D01*
X81939554Y-79766885D01*
X81860990Y-79564858D01*
X81860989Y-79564856D01*
X81859297Y-79560505D01*
X81856497Y-79555605D01*
X81740183Y-79352100D01*
X81728162Y-79331067D01*
X81564555Y-79123532D01*
X81372069Y-78942460D01*
X81330413Y-78913562D01*
X81158776Y-78794492D01*
X81158773Y-78794490D01*
X81154934Y-78791827D01*
X81150744Y-78789761D01*
X81150741Y-78789759D01*
X80922106Y-78677009D01*
X80922103Y-78677008D01*
X80917918Y-78674944D01*
X80871196Y-78659988D01*
X80670675Y-78595801D01*
X80670677Y-78595801D01*
X80666230Y-78594378D01*
X80523544Y-78571140D01*
X80410009Y-78552650D01*
X80410008Y-78552650D01*
X80405397Y-78551899D01*
X80273274Y-78550169D01*
X80145828Y-78548501D01*
X80145825Y-78548501D01*
X80141151Y-78548440D01*
X79879296Y-78584077D01*
X79625585Y-78658027D01*
X79385591Y-78768665D01*
X79381682Y-78771228D01*
X79168500Y-78910996D01*
X79168495Y-78911000D01*
X79164587Y-78913562D01*
X78967427Y-79089534D01*
X78798443Y-79292715D01*
X78661348Y-79518641D01*
X78659539Y-79522955D01*
X78659538Y-79522957D01*
X78590870Y-79686712D01*
X78559152Y-79762350D01*
X78558001Y-79766882D01*
X78558000Y-79766885D01*
X78539593Y-79839364D01*
X78494102Y-80018488D01*
X78467625Y-80281427D01*
X70500000Y-80281427D01*
X70500000Y-75739877D01*
X90275012Y-75739877D01*
X90290785Y-75900748D01*
X90341808Y-76054128D01*
X90345455Y-76060150D01*
X90345456Y-76060152D01*
X90354349Y-76074835D01*
X90425543Y-76192391D01*
X90537830Y-76308668D01*
X90673087Y-76397177D01*
X90679687Y-76399632D01*
X90679688Y-76399632D01*
X90817990Y-76451067D01*
X90817992Y-76451068D01*
X90824592Y-76453522D01*
X90831570Y-76454453D01*
X90831574Y-76454454D01*
X90879806Y-76460889D01*
X90984816Y-76474900D01*
X90991827Y-76474262D01*
X90991831Y-76474262D01*
X91138772Y-76460889D01*
X91145793Y-76460250D01*
X91152495Y-76458072D01*
X91152497Y-76458072D01*
X91292825Y-76412476D01*
X91299525Y-76410299D01*
X91317419Y-76399632D01*
X91432318Y-76331139D01*
X91432320Y-76331138D01*
X91438370Y-76327531D01*
X91555427Y-76216059D01*
X91567788Y-76197455D01*
X91640978Y-76087294D01*
X91644879Y-76081423D01*
X91702280Y-75930315D01*
X91705496Y-75907433D01*
X91724225Y-75774169D01*
X91724226Y-75774162D01*
X91724776Y-75770245D01*
X91725059Y-75750000D01*
X91707041Y-75589364D01*
X91701303Y-75572885D01*
X91656200Y-75443369D01*
X91653882Y-75436712D01*
X91648197Y-75427613D01*
X91571957Y-75305605D01*
X91568224Y-75299631D01*
X91454325Y-75184934D01*
X91317845Y-75098321D01*
X91292658Y-75089352D01*
X91172203Y-75046460D01*
X91172198Y-75046459D01*
X91165568Y-75044098D01*
X91158582Y-75043265D01*
X91158578Y-75043264D01*
X91044624Y-75029676D01*
X91005062Y-75024959D01*
X90998059Y-75025695D01*
X90998058Y-75025695D01*
X90956808Y-75030031D01*
X90844304Y-75041855D01*
X90837636Y-75044125D01*
X90697952Y-75091677D01*
X90697949Y-75091678D01*
X90691285Y-75093947D01*
X90685290Y-75097635D01*
X90685286Y-75097637D01*
X90559610Y-75174954D01*
X90553609Y-75178646D01*
X90438120Y-75291741D01*
X90350556Y-75427613D01*
X90348145Y-75434236D01*
X90348144Y-75434239D01*
X90297681Y-75572885D01*
X90297680Y-75572890D01*
X90295271Y-75579508D01*
X90275012Y-75739877D01*
X70500000Y-75739877D01*
X70500000Y-71992927D01*
X86324612Y-71992927D01*
X86342420Y-72154234D01*
X86349951Y-72174813D01*
X86395580Y-72299501D01*
X86395582Y-72299505D01*
X86398192Y-72306637D01*
X86402429Y-72312943D01*
X86402431Y-72312946D01*
X86444130Y-72374999D01*
X86488707Y-72441337D01*
X86494325Y-72446449D01*
X86603118Y-72545444D01*
X86603122Y-72545447D01*
X86608739Y-72550558D01*
X86615412Y-72554181D01*
X86615416Y-72554184D01*
X86744686Y-72624371D01*
X86751359Y-72627994D01*
X86908334Y-72669176D01*
X86994250Y-72670526D01*
X87063004Y-72671606D01*
X87063007Y-72671606D01*
X87070601Y-72671725D01*
X87126392Y-72658947D01*
X87221389Y-72637190D01*
X87221393Y-72637189D01*
X87228792Y-72635494D01*
X87373774Y-72562576D01*
X87417322Y-72525383D01*
X87482109Y-72496353D01*
X87552309Y-72506958D01*
X87583951Y-72528003D01*
X87603118Y-72545444D01*
X87603122Y-72545447D01*
X87608739Y-72550558D01*
X87751359Y-72627994D01*
X87908334Y-72669176D01*
X87994250Y-72670526D01*
X88063004Y-72671606D01*
X88063007Y-72671606D01*
X88070601Y-72671725D01*
X88126392Y-72658947D01*
X88221389Y-72637190D01*
X88221393Y-72637189D01*
X88228792Y-72635494D01*
X88373774Y-72562576D01*
X88417320Y-72525384D01*
X88491404Y-72462111D01*
X88491406Y-72462108D01*
X88497178Y-72457179D01*
X88591879Y-72325388D01*
X88652410Y-72174813D01*
X88675277Y-72014145D01*
X88675425Y-72000000D01*
X88655928Y-71838889D01*
X88598564Y-71687078D01*
X88595463Y-71682566D01*
X88581807Y-71613820D01*
X88593352Y-71575980D01*
X88591879Y-71575388D01*
X88649577Y-71431861D01*
X88649578Y-71431859D01*
X88652410Y-71424813D01*
X88675277Y-71264145D01*
X88675425Y-71250000D01*
X88655928Y-71088889D01*
X88598564Y-70937078D01*
X88595463Y-70932566D01*
X88581807Y-70863820D01*
X88593352Y-70825980D01*
X88591879Y-70825388D01*
X88649577Y-70681861D01*
X88649578Y-70681859D01*
X88652410Y-70674813D01*
X88675277Y-70514145D01*
X88675425Y-70500000D01*
X88655928Y-70338889D01*
X88598564Y-70187078D01*
X88595463Y-70182566D01*
X88581807Y-70113820D01*
X88593352Y-70075980D01*
X88591879Y-70075388D01*
X88649577Y-69931861D01*
X88649578Y-69931859D01*
X88652410Y-69924813D01*
X88675277Y-69764145D01*
X88675425Y-69750000D01*
X88655928Y-69588889D01*
X88598564Y-69437078D01*
X88595463Y-69432566D01*
X88581807Y-69363820D01*
X88593352Y-69325980D01*
X88591879Y-69325388D01*
X88649577Y-69181861D01*
X88649578Y-69181859D01*
X88652410Y-69174813D01*
X88675277Y-69014145D01*
X88675425Y-69000000D01*
X88655928Y-68838889D01*
X88598564Y-68687078D01*
X88506644Y-68553333D01*
X88499403Y-68546881D01*
X88450786Y-68503566D01*
X88385474Y-68445375D01*
X88242051Y-68369436D01*
X88232098Y-68366936D01*
X88092024Y-68331752D01*
X88092021Y-68331752D01*
X88084653Y-68329901D01*
X88077054Y-68329861D01*
X88077052Y-68329861D01*
X88010042Y-68329510D01*
X87922369Y-68329051D01*
X87914989Y-68330823D01*
X87914987Y-68330823D01*
X87771945Y-68365164D01*
X87771941Y-68365165D01*
X87764566Y-68366936D01*
X87620355Y-68441369D01*
X87584112Y-68472986D01*
X87583112Y-68473858D01*
X87518630Y-68503566D01*
X87448323Y-68493696D01*
X87416464Y-68472986D01*
X87391145Y-68450428D01*
X87385474Y-68445375D01*
X87242051Y-68369436D01*
X87232098Y-68366936D01*
X87092024Y-68331752D01*
X87092021Y-68331752D01*
X87084653Y-68329901D01*
X87077054Y-68329861D01*
X87077052Y-68329861D01*
X87010042Y-68329510D01*
X86922369Y-68329051D01*
X86914989Y-68330823D01*
X86914987Y-68330823D01*
X86771945Y-68365164D01*
X86771941Y-68365165D01*
X86764566Y-68366936D01*
X86620355Y-68441369D01*
X86614633Y-68446361D01*
X86614631Y-68446362D01*
X86503788Y-68543056D01*
X86498061Y-68548052D01*
X86404746Y-68680827D01*
X86345795Y-68832029D01*
X86324612Y-68992927D01*
X86342420Y-69154234D01*
X86398192Y-69306637D01*
X86402428Y-69312941D01*
X86404955Y-69317900D01*
X86418060Y-69387677D01*
X86405017Y-69430441D01*
X86404746Y-69430827D01*
X86401989Y-69437898D01*
X86401987Y-69437902D01*
X86348553Y-69574955D01*
X86345795Y-69582029D01*
X86324612Y-69742927D01*
X86342420Y-69904234D01*
X86398192Y-70056637D01*
X86402428Y-70062941D01*
X86404955Y-70067900D01*
X86418060Y-70137677D01*
X86405017Y-70180441D01*
X86404746Y-70180827D01*
X86401989Y-70187898D01*
X86401987Y-70187902D01*
X86348553Y-70324955D01*
X86345795Y-70332029D01*
X86324612Y-70492927D01*
X86342420Y-70654234D01*
X86398192Y-70806637D01*
X86402428Y-70812941D01*
X86404955Y-70817900D01*
X86418060Y-70887677D01*
X86405017Y-70930441D01*
X86404746Y-70930827D01*
X86401989Y-70937898D01*
X86401987Y-70937902D01*
X86348553Y-71074955D01*
X86345795Y-71082029D01*
X86324612Y-71242927D01*
X86342420Y-71404234D01*
X86398192Y-71556637D01*
X86402428Y-71562941D01*
X86404955Y-71567900D01*
X86418060Y-71637677D01*
X86405017Y-71680441D01*
X86404746Y-71680827D01*
X86401989Y-71687898D01*
X86401987Y-71687902D01*
X86348553Y-71824955D01*
X86345795Y-71832029D01*
X86324612Y-71992927D01*
X70500000Y-71992927D01*
X70500000Y-65626000D01*
X70520002Y-65557879D01*
X70573658Y-65511386D01*
X70626000Y-65500000D01*
X92124000Y-65500000D01*
X92192121Y-65520002D01*
G37*
%TD.AperFunction*%
M02*
