%TF.GenerationSoftware,KiCad,Pcbnew,6.0.4-6f826c9f35~116~ubuntu18.04.1*%
%TF.CreationDate,2022-05-26T20:07:41+01:00*%
%TF.ProjectId,cosmic_ray_detector,636f736d-6963-45f7-9261-795f64657465,1*%
%TF.SameCoordinates,Original*%
%TF.FileFunction,Paste,Top*%
%TF.FilePolarity,Positive*%
%FSLAX46Y46*%
G04 Gerber Fmt 4.6, Leading zero omitted, Abs format (unit mm)*
G04 Created by KiCad (PCBNEW 6.0.4-6f826c9f35~116~ubuntu18.04.1) date 2022-05-26 20:07:41*
%MOMM*%
%LPD*%
G01*
G04 APERTURE LIST*
G04 Aperture macros list*
%AMRoundRect*
0 Rectangle with rounded corners*
0 $1 Rounding radius*
0 $2 $3 $4 $5 $6 $7 $8 $9 X,Y pos of 4 corners*
0 Add a 4 corners polygon primitive as box body*
4,1,4,$2,$3,$4,$5,$6,$7,$8,$9,$2,$3,0*
0 Add four circle primitives for the rounded corners*
1,1,$1+$1,$2,$3*
1,1,$1+$1,$4,$5*
1,1,$1+$1,$6,$7*
1,1,$1+$1,$8,$9*
0 Add four rect primitives between the rounded corners*
20,1,$1+$1,$2,$3,$4,$5,0*
20,1,$1+$1,$4,$5,$6,$7,0*
20,1,$1+$1,$6,$7,$8,$9,0*
20,1,$1+$1,$8,$9,$2,$3,0*%
G04 Aperture macros list end*
%ADD10R,3.450000X1.850000*%
%ADD11RoundRect,0.140000X0.170000X-0.140000X0.170000X0.140000X-0.170000X0.140000X-0.170000X-0.140000X0*%
%ADD12RoundRect,0.140000X-0.170000X0.140000X-0.170000X-0.140000X0.170000X-0.140000X0.170000X0.140000X0*%
%ADD13RoundRect,0.140000X0.140000X0.170000X-0.140000X0.170000X-0.140000X-0.170000X0.140000X-0.170000X0*%
%ADD14RoundRect,0.135000X0.185000X-0.135000X0.185000X0.135000X-0.185000X0.135000X-0.185000X-0.135000X0*%
%ADD15RoundRect,0.135000X-0.185000X0.135000X-0.185000X-0.135000X0.185000X-0.135000X0.185000X0.135000X0*%
%ADD16RoundRect,0.135000X0.135000X0.185000X-0.135000X0.185000X-0.135000X-0.185000X0.135000X-0.185000X0*%
%ADD17RoundRect,0.135000X-0.135000X-0.185000X0.135000X-0.185000X0.135000X0.185000X-0.135000X0.185000X0*%
%ADD18R,1.200000X0.900000*%
%ADD19R,1.212799X2.508199*%
%ADD20RoundRect,0.250000X0.425000X-0.450000X0.425000X0.450000X-0.425000X0.450000X-0.425000X-0.450000X0*%
%ADD21RoundRect,0.250000X-0.450000X-0.425000X0.450000X-0.425000X0.450000X0.425000X-0.450000X0.425000X0*%
%ADD22R,2.508199X1.212799*%
%ADD23R,1.450000X0.300000*%
%ADD24R,1.850000X3.450000*%
%ADD25R,0.600000X1.200000*%
%ADD26RoundRect,0.250000X-0.850000X0.375000X-0.850000X-0.375000X0.850000X-0.375000X0.850000X0.375000X0*%
%ADD27R,1.750000X1.800000*%
%ADD28RoundRect,0.150000X-0.725000X-0.150000X0.725000X-0.150000X0.725000X0.150000X-0.725000X0.150000X0*%
%ADD29RoundRect,0.180000X0.180000X0.205000X-0.180000X0.205000X-0.180000X-0.205000X0.180000X-0.205000X0*%
%ADD30RoundRect,0.100000X0.612500X0.100000X-0.612500X0.100000X-0.612500X-0.100000X0.612500X-0.100000X0*%
%ADD31R,1.270000X2.920000*%
%ADD32R,3.430000X1.650000*%
%ADD33RoundRect,0.250000X0.375000X0.850000X-0.375000X0.850000X-0.375000X-0.850000X0.375000X-0.850000X0*%
%ADD34RoundRect,0.250000X1.100000X-0.325000X1.100000X0.325000X-1.100000X0.325000X-1.100000X-0.325000X0*%
G04 APERTURE END LIST*
D10*
%TO.C,TP4*%
X95512500Y-116570000D03*
%TD*%
D11*
%TO.C,C5*%
X109500000Y-103000000D03*
X109500000Y-102040000D03*
%TD*%
%TO.C,C13*%
X99250000Y-101980000D03*
X99250000Y-101020000D03*
%TD*%
D12*
%TO.C,C11*%
X89000000Y-102790000D03*
X89000000Y-103750000D03*
%TD*%
D11*
%TO.C,C18*%
X114905000Y-87960000D03*
X114905000Y-87000000D03*
%TD*%
D13*
%TO.C,C19*%
X122520000Y-81500000D03*
X123480000Y-81500000D03*
%TD*%
D11*
%TO.C,C8*%
X115750000Y-98460000D03*
X115750000Y-97500000D03*
%TD*%
D13*
%TO.C,C20*%
X123540000Y-77000000D03*
X124500000Y-77000000D03*
%TD*%
D11*
%TO.C,C6*%
X106750000Y-97230000D03*
X106750000Y-96270000D03*
%TD*%
%TO.C,C4*%
X114000000Y-94480000D03*
X114000000Y-93520000D03*
%TD*%
%TO.C,C17*%
X116155000Y-87960000D03*
X116155000Y-87000000D03*
%TD*%
D13*
%TO.C,C14*%
X98460000Y-76750000D03*
X97500000Y-76750000D03*
%TD*%
%TO.C,C7*%
X109155000Y-94365000D03*
X108195000Y-94365000D03*
%TD*%
D11*
%TO.C,C12*%
X89076000Y-76900000D03*
X89076000Y-75940000D03*
%TD*%
D14*
%TO.C,R6*%
X98000000Y-101010000D03*
X98000000Y-99990000D03*
%TD*%
%TO.C,R8*%
X99000000Y-75770000D03*
X99000000Y-74750000D03*
%TD*%
%TO.C,R5*%
X98000000Y-103260000D03*
X98000000Y-102240000D03*
%TD*%
D15*
%TO.C,R10*%
X116155000Y-84210000D03*
X116155000Y-85230000D03*
%TD*%
%TO.C,R9*%
X117905000Y-82220000D03*
X117905000Y-83240000D03*
%TD*%
D14*
%TO.C,R4*%
X117000000Y-98520000D03*
X117000000Y-97500000D03*
%TD*%
%TO.C,R2*%
X105500000Y-97260000D03*
X105500000Y-96240000D03*
%TD*%
D16*
%TO.C,R7*%
X98510000Y-77750000D03*
X97490000Y-77750000D03*
%TD*%
D17*
%TO.C,R1*%
X123740000Y-92500000D03*
X124760000Y-92500000D03*
%TD*%
D14*
%TO.C,R3*%
X106675000Y-95115000D03*
X106675000Y-94095000D03*
%TD*%
D16*
%TO.C,R11*%
X122980000Y-78250000D03*
X124000000Y-78250000D03*
%TD*%
D18*
%TO.C,D2*%
X92576000Y-94770000D03*
X92576000Y-98070000D03*
%TD*%
%TO.C,D3*%
X92076000Y-81770000D03*
X92076000Y-85070000D03*
%TD*%
D19*
%TO.C,C9*%
X88076000Y-94469001D03*
X88076000Y-98370999D03*
%TD*%
D20*
%TO.C,C3*%
X107250000Y-104850000D03*
X107250000Y-102150000D03*
%TD*%
%TO.C,C2*%
X111500000Y-93000000D03*
X111500000Y-90300000D03*
%TD*%
D21*
%TO.C,C21*%
X129100000Y-76250000D03*
X126400000Y-76250000D03*
%TD*%
D22*
%TO.C,C16*%
X97526999Y-72420000D03*
X93625001Y-72420000D03*
%TD*%
D23*
%TO.C,U5*%
X129975000Y-79000000D03*
X129975000Y-79500000D03*
X129975000Y-80000000D03*
X129975000Y-80500000D03*
X129975000Y-81000000D03*
X125525000Y-81000000D03*
X125525000Y-80500000D03*
X125525000Y-80000000D03*
X125525000Y-79500000D03*
X125525000Y-79000000D03*
%TD*%
D24*
%TO.C,TP2*%
X111750000Y-103500000D03*
%TD*%
D10*
%TO.C,TP1*%
X100000000Y-96000000D03*
%TD*%
D25*
%TO.C,U4*%
X119950000Y-84750000D03*
X119000000Y-84750000D03*
X118050000Y-84750000D03*
X118050000Y-87250000D03*
X119000000Y-87250000D03*
X119950000Y-87250000D03*
%TD*%
D26*
%TO.C,L2*%
X100250000Y-82100000D03*
X100250000Y-84250000D03*
%TD*%
D27*
%TO.C,D1*%
X106075000Y-89750000D03*
X98925000Y-89750000D03*
%TD*%
D28*
%TO.C,U1*%
X108675000Y-96095000D03*
X108675000Y-97365000D03*
X108675000Y-98635000D03*
X108675000Y-99905000D03*
X113825000Y-99905000D03*
X113825000Y-98635000D03*
X113825000Y-97365000D03*
X113825000Y-96095000D03*
%TD*%
D10*
%TO.C,TP3*%
X121250000Y-97500000D03*
%TD*%
D29*
%TO.C,U3*%
X94076000Y-77920000D03*
X93216000Y-77000000D03*
X94076000Y-77000000D03*
X93216000Y-77920000D03*
D30*
X95808500Y-78435000D03*
X95808500Y-77785000D03*
X95808500Y-77135000D03*
X95808500Y-76485000D03*
X91483500Y-76485000D03*
X91483500Y-77135000D03*
X91483500Y-77785000D03*
X91483500Y-78435000D03*
%TD*%
D31*
%TO.C,J1*%
X112696901Y-76930400D03*
X112696901Y-72300400D03*
D32*
X116581901Y-66830400D03*
X108811901Y-66830400D03*
%TD*%
D19*
%TO.C,C10*%
X88076000Y-80518002D03*
X88076000Y-84420000D03*
%TD*%
D29*
%TO.C,U2*%
X94006000Y-102380000D03*
X93146000Y-101460000D03*
X94006000Y-101460000D03*
X93146000Y-102380000D03*
D30*
X95738500Y-102895000D03*
X95738500Y-102245000D03*
X95738500Y-101595000D03*
X95738500Y-100945000D03*
X91413500Y-100945000D03*
X91413500Y-101595000D03*
X91413500Y-102245000D03*
X91413500Y-102895000D03*
%TD*%
D22*
%TO.C,C15*%
X98200999Y-107000000D03*
X94299001Y-107000000D03*
%TD*%
D33*
%TO.C,L1*%
X109325000Y-81000000D03*
X107175000Y-81000000D03*
%TD*%
D34*
%TO.C,C1*%
X104000000Y-84950000D03*
X104000000Y-82000000D03*
%TD*%
M02*
